<?xml version="1.0" encoding="utf-8" standalone="no"?>
<!DOCTYPE svg PUBLIC "-//W3C//DTD SVG 1.1//EN"
  "http://www.w3.org/Graphics/SVG/1.1/DTD/svg11.dtd">
<svg xmlns:xlink="http://www.w3.org/1999/xlink" width="216pt" height="216pt" viewBox="0 0 216 216" xmlns="http://www.w3.org/2000/svg" version="1.1">
 <metadata>
  <rdf:RDF xmlns:dc="http://purl.org/dc/elements/1.1/" xmlns:cc="http://creativecommons.org/ns#" xmlns:rdf="http://www.w3.org/1999/02/22-rdf-syntax-ns#">
   <cc:Work>
    <dc:type rdf:resource="http://purl.org/dc/dcmitype/StillImage"/>
    <dc:date>2025-06-19T13:34:35.166112</dc:date>
    <dc:format>image/svg+xml</dc:format>
    <dc:creator>
     <cc:Agent>
      <dc:title>Matplotlib v3.10.0, https://matplotlib.org/</dc:title>
     </cc:Agent>
    </dc:creator>
   </cc:Work>
  </rdf:RDF>
 </metadata>
 <defs>
  <style type="text/css">*{stroke-linejoin: round; stroke-linecap: butt}</style>
 </defs>
 <g id="figure_1">
  <g id="patch_1">
   <path d="M 0 216 
L 216 216 
L 216 0 
L 0 0 
L 0 216 
z
" style="fill: none"/>
  </g>
  <g id="axes_1">
   <g id="line2d_1">
    <path d="M 88.834844 86.17629 
L 98.671648 119.477437 
L 100.009988 124.222068 
L 101.088287 126.381513 
L 101.857495 127.273822 
L 102.882933 128.023051 
L 104.534616 128.576194 
L 105.601337 128.657325 
L 108.471364 128.34706 
L 111.766619 127.533508 
L 115.939504 126.075709 
L 119.474306 124.608049 
L 125.657995 121.645377 
L 126.371532 121.250339 
L 129.032317 119.545195 
L 130.122919 118.581937 
L 131.228946 117.150938 
L 132.282741 114.799108 
L 132.688591 113.075498 
L 134.008574 104.252104 
L 135.563138 100.367963 
L 138.201764 97.357325 
L 140.12668 95.98997 
L 142.296589 94.971012 
L 144.959322 94.31794 
L 147.390219 94.085105 
L 154.24441 93.953417 
L 162.332168 93.946864 
L 165.950563 93.786101 
L 170.343929 93.231705 
L 178.538017 91.67673 
L 185.155044 90.13061 
L 196.361725 87.200054 
L 198.625835 86.507133 
L 200.957686 85.643181 
L 202.624221 84.823119 
L 203.925645 83.945061 
L 204.756518 83.174449 
L 205.384942 82.36611 
L 205.964545 81.211495 
L 206.181818 80.084056 
L 205.929975 78.794588 
L 205.256432 77.7508 
L 204.047435 76.654578 
L 202.639428 75.887144 
L 200.709899 75.285094 
L 197.044835 74.695367 
L 177.793749 72.118008 
L 102.490317 59.79542 
L 76.519379 55.196756 
L 71.863678 54.610382 
L 69.476098 54.603069 
L 68.209678 54.777423 
L 66.321171 55.37964 
L 65.856182 55.657429 
L 65.257803 56.289147 
L 65.101363 56.720565 
L 65.182892 57.807554 
L 66.198953 60.724454 
L 66.266608 61.177546 
L 66.173609 62.246359 
L 65.943149 62.813203 
L 65.583542 63.341632 
L 65.10247 63.805817 
L 64.108249 64.482858 
L 61.812661 65.621875 
L 55.298062 68.581708 
L 53.161637 69.79056 
L 50.117537 71.820278 
L 49.513596 72.281654 
L 46.33814 75.093252 
L 43.940437 77.596387 
L 41.873643 80.102362 
L 39.646884 83.297361 
L 36.067468 89.300722 
L 27.926798 103.303939 
L 21.731544 114.112815 
L 19.640094 118.213997 
L 17.906817 122.056225 
L 16.396259 125.773521 
L 15.209674 129.176706 
L 13.807821 134.34332 
L 12.674126 138.948681 
L 10.271679 150.447133 
L 9.818182 153.427357 
L 9.85433 154.534586 
L 10.257623 156.127759 
L 11.135623 157.845264 
L 11.683546 158.59303 
L 13.573827 160.291129 
L 16.53232 161.384802 
L 17.507592 161.433108 
L 18.744684 161.300637 
L 20.10049 160.939198 
L 21.554769 160.303411 
L 22.721426 159.632677 
L 23.610925 158.986339 
L 25.068789 157.676863 
L 26.684525 155.666493 
L 27.736228 153.302795 
L 27.959208 151.305495 
L 27.723078 147.467879 
L 27.544662 140.27928 
L 26.363892 126.989643 
L 26.384363 125.370699 
L 26.876963 122.33463 
L 27.49438 120.353442 
L 29.113187 116.347837 
L 30.476994 113.672121 
L 32.13817 111.22543 
L 34.563767 108.949887 
L 37.865444 107.131736 
L 40.334843 106.145632 
L 43.29291 105.293635 
L 46.232055 104.958945 
L 47.926366 105.198638 
L 48.754974 105.664401 
L 49.330131 106.358416 
L 49.740506 107.228334 
L 50.11797 108.813825 
L 50.511198 112.501366 
L 51.243308 114.085509 
L 52.927641 115.795448 
L 54.709789 116.949693 
L 55.435107 117.176684 
L 56.42712 117.319938 
L 58.639484 117.235773 
L 61.168138 116.863327 
L 62.2768 116.557704 
L 64.44324 115.380272 
L 65.283202 114.522395 
L 66.413023 112.67113 
L 67.099616 110.249437 
L 66.95545 107.766192 
L 66.359569 105.497209 
L 60.136321 86.721018 
L 59.827374 84.413678 
L 60.150319 81.456473 
L 60.568008 79.938812 
L 62.222276 76.967132 
L 65.433366 73.941215 
L 69.790873 70.199184 
L 72.527083 68.297179 
L 74.528741 67.295651 
L 77.135659 66.395436 
L 79.919139 65.941345 
L 79.89331 65.933662 
L 81.501074 66.029529 
L 82.317842 66.289345 
L 83.279753 67.0253 
L 83.943521 68.083049 
L 84.344091 69.17497 
L 85.259557 72.562391 
L 86.027128 75.18046 
L 87.878842 83.114189 
L 88.834844 86.17629 
L 88.834844 86.17629 
" clip-path="url(#pf7ea8a8efe)" style="fill: none; stroke: #ffffff; stroke-width: 9; stroke-linecap: square"/>
   </g>
   <g id="line2d_2">
    <path d="M 88.834844 86.17629 
L 98.671648 119.477437 
L 100.009988 124.222068 
L 101.088287 126.381513 
L 101.857495 127.273822 
L 102.882933 128.023051 
L 104.534616 128.576194 
L 105.601337 128.657325 
L 108.471364 128.34706 
L 111.766619 127.533508 
L 115.939504 126.075709 
L 119.474306 124.608049 
L 125.657995 121.645377 
L 126.371532 121.250339 
L 129.032317 119.545195 
L 130.122919 118.581937 
L 131.228946 117.150938 
L 132.282741 114.799108 
L 132.688591 113.075498 
L 134.008574 104.252104 
L 135.563138 100.367963 
L 138.201764 97.357325 
L 140.12668 95.98997 
L 142.296589 94.971012 
L 144.959322 94.31794 
L 147.390219 94.085105 
L 154.24441 93.953417 
L 162.332168 93.946864 
L 165.950563 93.786101 
L 170.343929 93.231705 
L 178.538017 91.67673 
L 185.155044 90.13061 
L 196.361725 87.200054 
L 198.625835 86.507133 
L 200.957686 85.643181 
L 202.624221 84.823119 
L 203.925645 83.945061 
L 204.756518 83.174449 
L 205.384942 82.36611 
L 205.964545 81.211495 
L 206.181818 80.084056 
L 205.929975 78.794588 
L 205.256432 77.7508 
L 204.047435 76.654578 
L 202.639428 75.887144 
L 200.709899 75.285094 
L 197.044835 74.695367 
L 177.793749 72.118008 
L 102.490317 59.79542 
L 76.519379 55.196756 
L 71.863678 54.610382 
L 69.476098 54.603069 
L 68.209678 54.777423 
L 66.321171 55.37964 
L 65.856182 55.657429 
L 65.257803 56.289147 
L 65.101363 56.720565 
L 65.182892 57.807554 
L 66.198953 60.724454 
L 66.266608 61.177546 
L 66.173609 62.246359 
L 65.943149 62.813203 
L 65.583542 63.341632 
L 65.10247 63.805817 
L 64.108249 64.482858 
L 61.812661 65.621875 
L 55.298062 68.581708 
L 53.161637 69.79056 
L 50.117537 71.820278 
L 49.513596 72.281654 
L 46.33814 75.093252 
L 43.940437 77.596387 
L 41.873643 80.102362 
L 39.646884 83.297361 
L 36.067468 89.300722 
L 27.926798 103.303939 
L 21.731544 114.112815 
L 19.640094 118.213997 
L 17.906817 122.056225 
L 16.396259 125.773521 
L 15.209674 129.176706 
L 13.807821 134.34332 
L 12.674126 138.948681 
L 10.271679 150.447133 
L 9.818182 153.427357 
L 9.85433 154.534586 
L 10.257623 156.127759 
L 11.135623 157.845264 
L 11.683546 158.59303 
L 13.573827 160.291129 
L 16.53232 161.384802 
L 17.507592 161.433108 
L 18.744684 161.300637 
L 20.10049 160.939198 
L 21.554769 160.303411 
L 22.721426 159.632677 
L 23.610925 158.986339 
L 25.068789 157.676863 
L 26.684525 155.666493 
L 27.736228 153.302795 
L 27.959208 151.305495 
L 27.723078 147.467879 
L 27.544662 140.27928 
L 26.363892 126.989643 
L 26.384363 125.370699 
L 26.876963 122.33463 
L 27.49438 120.353442 
L 29.113187 116.347837 
L 30.476994 113.672121 
L 32.13817 111.22543 
L 34.563767 108.949887 
L 37.865444 107.131736 
L 40.334843 106.145632 
L 43.29291 105.293635 
L 46.232055 104.958945 
L 47.926366 105.198638 
L 48.754974 105.664401 
L 49.330131 106.358416 
L 49.740506 107.228334 
L 50.11797 108.813825 
L 50.511198 112.501366 
L 51.243308 114.085509 
L 52.927641 115.795448 
L 54.709789 116.949693 
L 55.435107 117.176684 
L 56.42712 117.319938 
L 58.639484 117.235773 
L 61.168138 116.863327 
L 62.2768 116.557704 
L 64.44324 115.380272 
L 65.283202 114.522395 
L 66.413023 112.67113 
L 67.099616 110.249437 
L 66.95545 107.766192 
L 66.359569 105.497209 
L 60.136321 86.721018 
L 59.827374 84.413678 
L 60.150319 81.456473 
L 60.568008 79.938812 
L 62.222276 76.967132 
L 65.433366 73.941215 
L 69.790873 70.199184 
L 72.527083 68.297179 
L 74.528741 67.295651 
L 77.135659 66.395436 
L 79.919139 65.941345 
L 79.89331 65.933662 
L 81.501074 66.029529 
L 82.317842 66.289345 
L 83.279753 67.0253 
L 83.943521 68.083049 
L 84.344091 69.17497 
L 85.259557 72.562391 
L 86.027128 75.18046 
L 87.878842 83.114189 
L 88.834844 86.17629 
L 88.834844 86.17629 
" clip-path="url(#pf7ea8a8efe)" style="fill: none; stroke: #000000; stroke-width: 3; stroke-linecap: square"/>
   </g>
  </g>
 </g>
 <defs>
  <clipPath id="pf7ea8a8efe">
   <rect x="0" y="0" width="216" height="216"/>
  </clipPath>
 </defs>
</svg>
