<?xml version="1.0" encoding="utf-8" standalone="no"?>
<!DOCTYPE svg PUBLIC "-//W3C//DTD SVG 1.1//EN"
  "http://www.w3.org/Graphics/SVG/1.1/DTD/svg11.dtd">
<svg xmlns:xlink="http://www.w3.org/1999/xlink" width="216pt" height="216pt" viewBox="0 0 216 216" xmlns="http://www.w3.org/2000/svg" version="1.1">
 <metadata>
  <rdf:RDF xmlns:dc="http://purl.org/dc/elements/1.1/" xmlns:cc="http://creativecommons.org/ns#" xmlns:rdf="http://www.w3.org/1999/02/22-rdf-syntax-ns#">
   <cc:Work>
    <dc:type rdf:resource="http://purl.org/dc/dcmitype/StillImage"/>
    <dc:date>2025-05-31T19:13:23.617303</dc:date>
    <dc:format>image/svg+xml</dc:format>
    <dc:creator>
     <cc:Agent>
      <dc:title>Matplotlib v3.10.0, https://matplotlib.org/</dc:title>
     </cc:Agent>
    </dc:creator>
   </cc:Work>
  </rdf:RDF>
 </metadata>
 <defs>
  <style type="text/css">*{stroke-linejoin: round; stroke-linecap: butt}</style>
 </defs>
 <g id="figure_1">
  <g id="patch_1">
   <path d="M 0 216 
L 216 216 
L 216 0 
L 0 0 
L 0 216 
z
" style="fill: none"/>
  </g>
  <g id="axes_1">
   <g id="line2d_1">
    <path d="M 115.551824 156.274467 
L 90.625644 156.490991 
L 87.365485 156.209874 
L 85.970709 155.835199 
L 84.782852 155.246932 
L 83.872203 154.432287 
L 82.689411 152.751082 
L 80.919606 149.777427 
L 79.70366 148.389919 
L 78.066715 147.037103 
L 76.124788 145.896167 
L 75.032303 145.463709 
L 71.876564 144.820073 
L 68.584964 144.734592 
L 61.769308 145.036019 
L 58.749048 145.060372 
L 53.762128 144.959312 
L 48.477806 144.635857 
L 41.966572 143.95467 
L 35.294077 142.8783 
L 29.380507 141.675045 
L 23.678783 140.377396 
L 21.873557 139.834406 
L 20.775902 139.296759 
L 19.87018 138.601312 
L 19.374907 138.07418 
L 18.742444 136.97712 
L 18.583594 136.042473 
L 18.804207 135.044383 
L 19.5043 133.872491 
L 21.345401 131.557424 
L 22.139155 130.639404 
L 23.569352 128.583414 
L 23.984866 127.658792 
L 24.269619 126.598762 
L 24.362195 125.710542 
L 24.302141 124.73558 
L 23.878065 123.340875 
L 23.518444 122.668973 
L 22.40105 121.255159 
L 20.261216 119.410111 
L 13.544348 114.051947 
L 12.485959 112.87038 
L 11.316442 111.231447 
L 10.517305 109.648024 
L 9.9821 107.795952 
L 9.837748 106.833531 
L 9.818182 105.144604 
L 10.192924 101.738941 
L 11.09815 96.84313 
L 11.846766 94.095605 
L 13.180471 90.342339 
L 17.49254 79.732573 
L 18.427219 77.163461 
L 19.073896 75.037742 
L 19.653708 72.728685 
L 20.272647 70.987844 
L 20.897805 70.094907 
L 21.645376 69.414305 
L 22.763571 68.775205 
L 25.27455 68.223475 
L 27.163759 67.969181 
L 28.719688 67.540913 
L 31.355698 66.248668 
L 33.423737 64.981542 
L 37.228772 62.54661 
L 40.141501 61.056005 
L 42.694227 60.119642 
L 45.365941 59.591737 
L 47.048964 59.509009 
L 50.596183 59.802143 
L 53.185907 60.358827 
L 55.122872 60.98119 
L 57.007995 61.763799 
L 60.208312 63.466206 
L 61.560119 64.295559 
L 67.524348 68.617625 
L 70.676876 71.85364 
L 73.792339 75.607494 
L 74.984459 77.155737 
L 76.407674 79.51377 
L 80.196443 87.644475 
L 82.071788 91.797078 
L 83.500805 95.829785 
L 84.195731 97.362342 
L 85.147989 99.00449 
L 86.131932 100.436994 
L 87.442027 102.050355 
L 91.018525 105.482948 
L 94.016885 107.917521 
L 95.283171 108.82946 
L 98.445165 110.720376 
L 100.334969 111.636192 
L 104.760452 113.395018 
L 108.81035 114.593768 
L 111.757912 115.121665 
L 114.234307 115.347062 
L 118.604836 115.437363 
L 122.692217 115.291505 
L 126.410442 115.020091 
L 130.497788 114.474857 
L 132.490193 113.928088 
L 133.791237 113.25014 
L 135.179234 112.006177 
L 138.75946 107.598473 
L 140.221658 106.117581 
L 142.378885 104.557736 
L 143.550181 104.08772 
L 145.125045 103.778894 
L 150.02861 103.437084 
L 163.896082 102.551083 
L 167.390933 102.633105 
L 168.684921 102.760791 
L 170.927602 103.129246 
L 173.146212 103.672446 
L 175.195249 104.296764 
L 180.579032 106.548765 
L 187.253451 109.923327 
L 197.825978 115.565996 
L 200.426114 117.131809 
L 204.55039 120.090509 
L 205.692099 121.315569 
L 206.131127 122.255107 
L 206.181818 122.963657 
L 206.037119 123.626756 
L 204.969686 125.773157 
L 202.385558 130.114169 
L 197.261005 138.299489 
L 196.083213 140.345871 
L 195.322158 141.397587 
L 194.073517 142.686022 
L 192.705643 143.580008 
L 191.380493 144.033325 
L 190.200323 144.208909 
L 187.413777 144.090204 
L 184.001685 143.280942 
L 179.816589 141.799568 
L 175.424538 140.132411 
L 172.012447 139.323149 
L 170.913116 139.28294 
L 170.280515 139.398017 
L 169.544961 139.791559 
L 168.742858 140.786506 
L 168.438436 141.76912 
L 168.400953 143.113728 
L 168.543349 144.188221 
L 169.123586 146.671671 
L 169.254209 148.019214 
L 168.956776 150.207082 
L 168.19408 152.155611 
L 167.647071 152.986852 
L 166.947186 153.745359 
L 165.011376 155.063839 
L 163.817966 155.596528 
L 162.599228 155.97463 
L 160.422226 156.258933 
L 157.12081 156.334431 
L 137.686812 156.205407 
L 125.229242 156.198157 
L 115.551824 156.274467 
L 115.551824 156.274467 
" clip-path="url(#p638386a75d)" style="fill: none; stroke: #fb2c36; stroke-width: 9; stroke-linecap: square"/>
   </g>
   <g id="line2d_2">
    <path d="M 115.551824 156.274467 
L 90.625644 156.490991 
L 87.365485 156.209874 
L 85.970709 155.835199 
L 84.782852 155.246932 
L 83.872203 154.432287 
L 82.689411 152.751082 
L 80.919606 149.777427 
L 79.70366 148.389919 
L 78.066715 147.037103 
L 76.124788 145.896167 
L 75.032303 145.463709 
L 71.876564 144.820073 
L 68.584964 144.734592 
L 61.769308 145.036019 
L 58.749048 145.060372 
L 53.762128 144.959312 
L 48.477806 144.635857 
L 41.966572 143.95467 
L 35.294077 142.8783 
L 29.380507 141.675045 
L 23.678783 140.377396 
L 21.873557 139.834406 
L 20.775902 139.296759 
L 19.87018 138.601312 
L 19.374907 138.07418 
L 18.742444 136.97712 
L 18.583594 136.042473 
L 18.804207 135.044383 
L 19.5043 133.872491 
L 21.345401 131.557424 
L 22.139155 130.639404 
L 23.569352 128.583414 
L 23.984866 127.658792 
L 24.269619 126.598762 
L 24.362195 125.710542 
L 24.302141 124.73558 
L 23.878065 123.340875 
L 23.518444 122.668973 
L 22.40105 121.255159 
L 20.261216 119.410111 
L 13.544348 114.051947 
L 12.485959 112.87038 
L 11.316442 111.231447 
L 10.517305 109.648024 
L 9.9821 107.795952 
L 9.837748 106.833531 
L 9.818182 105.144604 
L 10.192924 101.738941 
L 11.09815 96.84313 
L 11.846766 94.095605 
L 13.180471 90.342339 
L 17.49254 79.732573 
L 18.427219 77.163461 
L 19.073896 75.037742 
L 19.653708 72.728685 
L 20.272647 70.987844 
L 20.897805 70.094907 
L 21.645376 69.414305 
L 22.763571 68.775205 
L 25.27455 68.223475 
L 27.163759 67.969181 
L 28.719688 67.540913 
L 31.355698 66.248668 
L 33.423737 64.981542 
L 37.228772 62.54661 
L 40.141501 61.056005 
L 42.694227 60.119642 
L 45.365941 59.591737 
L 47.048964 59.509009 
L 50.596183 59.802143 
L 53.185907 60.358827 
L 55.122872 60.98119 
L 57.007995 61.763799 
L 60.208312 63.466206 
L 61.560119 64.295559 
L 67.524348 68.617625 
L 70.676876 71.85364 
L 73.792339 75.607494 
L 74.984459 77.155737 
L 76.407674 79.51377 
L 80.196443 87.644475 
L 82.071788 91.797078 
L 83.500805 95.829785 
L 84.195731 97.362342 
L 85.147989 99.00449 
L 86.131932 100.436994 
L 87.442027 102.050355 
L 91.018525 105.482948 
L 94.016885 107.917521 
L 95.283171 108.82946 
L 98.445165 110.720376 
L 100.334969 111.636192 
L 104.760452 113.395018 
L 108.81035 114.593768 
L 111.757912 115.121665 
L 114.234307 115.347062 
L 118.604836 115.437363 
L 122.692217 115.291505 
L 126.410442 115.020091 
L 130.497788 114.474857 
L 132.490193 113.928088 
L 133.791237 113.25014 
L 135.179234 112.006177 
L 138.75946 107.598473 
L 140.221658 106.117581 
L 142.378885 104.557736 
L 143.550181 104.08772 
L 145.125045 103.778894 
L 150.02861 103.437084 
L 163.896082 102.551083 
L 167.390933 102.633105 
L 168.684921 102.760791 
L 170.927602 103.129246 
L 173.146212 103.672446 
L 175.195249 104.296764 
L 180.579032 106.548765 
L 187.253451 109.923327 
L 197.825978 115.565996 
L 200.426114 117.131809 
L 204.55039 120.090509 
L 205.692099 121.315569 
L 206.131127 122.255107 
L 206.181818 122.963657 
L 206.037119 123.626756 
L 204.969686 125.773157 
L 202.385558 130.114169 
L 197.261005 138.299489 
L 196.083213 140.345871 
L 195.322158 141.397587 
L 194.073517 142.686022 
L 192.705643 143.580008 
L 191.380493 144.033325 
L 190.200323 144.208909 
L 187.413777 144.090204 
L 184.001685 143.280942 
L 179.816589 141.799568 
L 175.424538 140.132411 
L 172.012447 139.323149 
L 170.913116 139.28294 
L 170.280515 139.398017 
L 169.544961 139.791559 
L 168.742858 140.786506 
L 168.438436 141.76912 
L 168.400953 143.113728 
L 168.543349 144.188221 
L 169.123586 146.671671 
L 169.254209 148.019214 
L 168.956776 150.207082 
L 168.19408 152.155611 
L 167.647071 152.986852 
L 166.947186 153.745359 
L 165.011376 155.063839 
L 163.817966 155.596528 
L 162.599228 155.97463 
L 160.422226 156.258933 
L 157.12081 156.334431 
L 137.686812 156.205407 
L 125.229242 156.198157 
L 115.551824 156.274467 
L 115.551824 156.274467 
" clip-path="url(#p638386a75d)" style="fill: none; stroke: #000000; stroke-width: 3; stroke-linecap: square"/>
   </g>
  </g>
 </g>
 <defs>
  <clipPath id="p638386a75d">
   <rect x="0" y="0" width="216" height="216"/>
  </clipPath>
 </defs>
</svg>
