<?xml version="1.0" encoding="utf-8" standalone="no"?>
<!DOCTYPE svg PUBLIC "-//W3C//DTD SVG 1.1//EN"
  "http://www.w3.org/Graphics/SVG/1.1/DTD/svg11.dtd">
<svg xmlns:xlink="http://www.w3.org/1999/xlink" width="216pt" height="216pt" viewBox="0 0 216 216" xmlns="http://www.w3.org/2000/svg" version="1.1">
 <metadata>
  <rdf:RDF xmlns:dc="http://purl.org/dc/elements/1.1/" xmlns:cc="http://creativecommons.org/ns#" xmlns:rdf="http://www.w3.org/1999/02/22-rdf-syntax-ns#">
   <cc:Work>
    <dc:type rdf:resource="http://purl.org/dc/dcmitype/StillImage"/>
    <dc:date>2025-06-30T23:40:35.450176</dc:date>
    <dc:format>image/svg+xml</dc:format>
    <dc:creator>
     <cc:Agent>
      <dc:title>Matplotlib v3.10.0, https://matplotlib.org/</dc:title>
     </cc:Agent>
    </dc:creator>
   </cc:Work>
  </rdf:RDF>
 </metadata>
 <defs>
  <style type="text/css">*{stroke-linejoin: round; stroke-linecap: butt}</style>
 </defs>
 <g id="figure_1">
  <g id="patch_1">
   <path d="M 0 216 
L 216 216 
L 216 0 
L 0 0 
L 0 216 
z
" style="fill: none"/>
  </g>
  <g id="axes_1">
   <g id="line2d_1">
    <path d="M 152.935222 153.408123 
L 115.505753 164.282901 
L 100.919649 168.522927 
L 98.288951 169.131495 
L 96.713891 169.330908 
L 95.151182 169.342556 
L 93.678947 169.165075 
L 91.99705 168.616155 
L 90.892436 168.010272 
L 89.369861 166.739632 
L 88.344266 165.288396 
L 86.471841 161.882673 
L 85.024468 159.547941 
L 80.441903 153.094958 
L 64.884007 130.313572 
L 62.392959 126.387257 
L 60.878725 123.803625 
L 55.919776 114.590858 
L 52.085077 107.108929 
L 44.650863 92.187852 
L 42.262368 87.86902 
L 38.875902 82.78615 
L 36.539928 79.685472 
L 33.781279 76.545284 
L 27.275008 70.016476 
L 17.852675 61.178571 
L 11.323337 55.119039 
L 10.249233 53.574876 
L 9.818182 52.16015 
L 9.848419 51.206246 
L 10.512982 49.8818 
L 11.545905 49.066686 
L 12.569476 48.611204 
L 14.467739 48.124825 
L 18.769971 47.471452 
L 23.543934 46.981765 
L 27.759511 46.736261 
L 33.932223 46.691033 
L 37.983023 46.854763 
L 45.44975 47.521515 
L 50.759771 48.194656 
L 59.803389 49.662227 
L 79.464789 53.241945 
L 87.063329 54.297125 
L 98.871641 55.669551 
L 108.102285 56.21174 
L 120.436449 56.371545 
L 126.751417 56.417608 
L 128.973348 56.566373 
L 130.102666 56.796727 
L 131.565549 57.333841 
L 133.241095 58.414261 
L 134.022233 59.291486 
L 134.492521 60.267912 
L 134.80076 61.809814 
L 134.865905 62.855828 
L 134.772625 63.779574 
L 134.35887 65.14653 
L 133.833018 66.359151 
L 132.603444 68.443657 
L 131.641746 69.75766 
L 130.049812 71.676571 
L 128.621837 73.139375 
L 127.528871 74.0962 
L 125.492365 75.616513 
L 123.172438 77.016741 
L 121.514813 77.858389 
L 118.472894 79.08367 
L 116.57654 79.679419 
L 112.996846 80.538988 
L 110.736769 80.89102 
L 107.769777 81.036584 
L 104.923689 80.945601 
L 100.305231 80.494826 
L 95.354025 79.784165 
L 85.808246 78.200326 
L 82.440827 77.790231 
L 79.374362 77.609319 
L 76.657087 77.734895 
L 72.93432 78.456299 
L 70.266021 79.596913 
L 68.721039 80.624144 
L 67.628619 81.612218 
L 66.267232 83.308297 
L 65.268206 85.169971 
L 64.649892 87.353211 
L 64.428538 88.998132 
L 64.395689 91.593139 
L 64.600011 93.449438 
L 64.892079 94.960364 
L 65.903528 98.287341 
L 67.201203 100.999786 
L 69.67799 105.004495 
L 74.527181 112.4062 
L 76.734069 115.274695 
L 80.041481 118.514708 
L 81.433606 119.475042 
L 84.018637 120.727137 
L 85.541563 121.122541 
L 87.294218 121.248239 
L 90.845936 120.576708 
L 92.909521 119.712345 
L 95.028786 118.456282 
L 97.586702 116.364219 
L 104.829049 109.54854 
L 108.418525 106.56324 
L 111.850588 104.409032 
L 116.884244 102.680111 
L 118.987532 102.299558 
L 121.124251 102.043453 
L 126.432715 101.731986 
L 139.225246 101.289884 
L 161.031669 100.612298 
L 178.912832 99.80005 
L 183.446077 99.845954 
L 187.139153 100.109703 
L 190.149394 100.651066 
L 193.341047 101.736281 
L 197.836182 104.971191 
L 198.426011 105.632948 
L 200.163623 108.478375 
L 201.535989 112.783687 
L 204.179339 120.958463 
L 205.73721 126.041992 
L 206.0638 127.739866 
L 206.181818 129.128797 
L 206.14932 130.848567 
L 205.440533 133.220936 
L 204.774061 134.436012 
L 203.719434 135.798525 
L 201.995415 137.313384 
L 200.60395 138.181644 
L 196.032673 140.433884 
L 191.484735 142.232471 
L 185.157257 144.155896 
L 177.069682 146.422625 
L 152.935222 153.408123 
L 152.935222 153.408123 
" clip-path="url(#p4d424c3778)" style="fill: none; stroke: #ffffff; stroke-width: 9; stroke-linecap: square"/>
   </g>
   <g id="line2d_2">
    <path d="M 152.935222 153.408123 
L 115.505753 164.282901 
L 100.919649 168.522927 
L 98.288951 169.131495 
L 96.713891 169.330908 
L 95.151182 169.342556 
L 93.678947 169.165075 
L 91.99705 168.616155 
L 90.892436 168.010272 
L 89.369861 166.739632 
L 88.344266 165.288396 
L 86.471841 161.882673 
L 85.024468 159.547941 
L 80.441903 153.094958 
L 64.884007 130.313572 
L 62.392959 126.387257 
L 60.878725 123.803625 
L 55.919776 114.590858 
L 52.085077 107.108929 
L 44.650863 92.187852 
L 42.262368 87.86902 
L 38.875902 82.78615 
L 36.539928 79.685472 
L 33.781279 76.545284 
L 27.275008 70.016476 
L 17.852675 61.178571 
L 11.323337 55.119039 
L 10.249233 53.574876 
L 9.818182 52.16015 
L 9.848419 51.206246 
L 10.512982 49.8818 
L 11.545905 49.066686 
L 12.569476 48.611204 
L 14.467739 48.124825 
L 18.769971 47.471452 
L 23.543934 46.981765 
L 27.759511 46.736261 
L 33.932223 46.691033 
L 37.983023 46.854763 
L 45.44975 47.521515 
L 50.759771 48.194656 
L 59.803389 49.662227 
L 79.464789 53.241945 
L 87.063329 54.297125 
L 98.871641 55.669551 
L 108.102285 56.21174 
L 120.436449 56.371545 
L 126.751417 56.417608 
L 128.973348 56.566373 
L 130.102666 56.796727 
L 131.565549 57.333841 
L 133.241095 58.414261 
L 134.022233 59.291486 
L 134.492521 60.267912 
L 134.80076 61.809814 
L 134.865905 62.855828 
L 134.772625 63.779574 
L 134.35887 65.14653 
L 133.833018 66.359151 
L 132.603444 68.443657 
L 131.641746 69.75766 
L 130.049812 71.676571 
L 128.621837 73.139375 
L 127.528871 74.0962 
L 125.492365 75.616513 
L 123.172438 77.016741 
L 121.514813 77.858389 
L 118.472894 79.08367 
L 116.57654 79.679419 
L 112.996846 80.538988 
L 110.736769 80.89102 
L 107.769777 81.036584 
L 104.923689 80.945601 
L 100.305231 80.494826 
L 95.354025 79.784165 
L 85.808246 78.200326 
L 82.440827 77.790231 
L 79.374362 77.609319 
L 76.657087 77.734895 
L 72.93432 78.456299 
L 70.266021 79.596913 
L 68.721039 80.624144 
L 67.628619 81.612218 
L 66.267232 83.308297 
L 65.268206 85.169971 
L 64.649892 87.353211 
L 64.428538 88.998132 
L 64.395689 91.593139 
L 64.600011 93.449438 
L 64.892079 94.960364 
L 65.903528 98.287341 
L 67.201203 100.999786 
L 69.67799 105.004495 
L 74.527181 112.4062 
L 76.734069 115.274695 
L 80.041481 118.514708 
L 81.433606 119.475042 
L 84.018637 120.727137 
L 85.541563 121.122541 
L 87.294218 121.248239 
L 90.845936 120.576708 
L 92.909521 119.712345 
L 95.028786 118.456282 
L 97.586702 116.364219 
L 104.829049 109.54854 
L 108.418525 106.56324 
L 111.850588 104.409032 
L 116.884244 102.680111 
L 118.987532 102.299558 
L 121.124251 102.043453 
L 126.432715 101.731986 
L 139.225246 101.289884 
L 161.031669 100.612298 
L 178.912832 99.80005 
L 183.446077 99.845954 
L 187.139153 100.109703 
L 190.149394 100.651066 
L 193.341047 101.736281 
L 197.836182 104.971191 
L 198.426011 105.632948 
L 200.163623 108.478375 
L 201.535989 112.783687 
L 204.179339 120.958463 
L 205.73721 126.041992 
L 206.0638 127.739866 
L 206.181818 129.128797 
L 206.14932 130.848567 
L 205.440533 133.220936 
L 204.774061 134.436012 
L 203.719434 135.798525 
L 201.995415 137.313384 
L 200.60395 138.181644 
L 196.032673 140.433884 
L 191.484735 142.232471 
L 185.157257 144.155896 
L 177.069682 146.422625 
L 152.935222 153.408123 
L 152.935222 153.408123 
" clip-path="url(#p4d424c3778)" style="fill: none; stroke: #000000; stroke-width: 3; stroke-linecap: square"/>
   </g>
  </g>
 </g>
 <defs>
  <clipPath id="p4d424c3778">
   <rect x="0" y="0" width="216" height="216"/>
  </clipPath>
 </defs>
</svg>
