<?xml version="1.0" encoding="utf-8" standalone="no"?>
<!DOCTYPE svg PUBLIC "-//W3C//DTD SVG 1.1//EN"
  "http://www.w3.org/Graphics/SVG/1.1/DTD/svg11.dtd">
<svg xmlns:xlink="http://www.w3.org/1999/xlink" width="216pt" height="216pt" viewBox="0 0 216 216" xmlns="http://www.w3.org/2000/svg" version="1.1">
 <metadata>
  <rdf:RDF xmlns:dc="http://purl.org/dc/elements/1.1/" xmlns:cc="http://creativecommons.org/ns#" xmlns:rdf="http://www.w3.org/1999/02/22-rdf-syntax-ns#">
   <cc:Work>
    <dc:type rdf:resource="http://purl.org/dc/dcmitype/StillImage"/>
    <dc:date>2025-06-18T12:18:06.725975</dc:date>
    <dc:format>image/svg+xml</dc:format>
    <dc:creator>
     <cc:Agent>
      <dc:title>Matplotlib v3.10.0, https://matplotlib.org/</dc:title>
     </cc:Agent>
    </dc:creator>
   </cc:Work>
  </rdf:RDF>
 </metadata>
 <defs>
  <style type="text/css">*{stroke-linejoin: round; stroke-linecap: butt}</style>
 </defs>
 <g id="figure_1">
  <g id="patch_1">
   <path d="M 0 216 
L 216 216 
L 216 0 
L 0 0 
L 0 216 
z
" style="fill: none"/>
  </g>
  <g id="axes_1">
   <g id="line2d_1">
    <path d="M 183.912524 81.129407 
L 200.131572 75.308215 
L 202.944313 74.440037 
L 204.332528 73.730136 
L 205.092836 73.089818 
L 205.827138 72.05681 
L 206.113038 71.223918 
L 206.164169 70.248279 
L 206.070119 69.553869 
L 205.255823 67.135279 
L 203.883256 63.457545 
L 202.017948 58.514785 
L 196.383473 44.066495 
L 195.865449 43.461673 
L 195.248703 43.140514 
L 194.263773 43.088896 
L 192.831942 43.38655 
L 185.555113 45.697891 
L 167.905089 51.26706 
L 163.313391 52.833978 
L 136.808868 62.728202 
L 121.659837 68.57752 
L 120.548876 69.152874 
L 120.004674 69.580902 
L 119.454708 70.474494 
L 119.459815 71.443762 
L 119.862073 72.65746 
L 121.191511 75.913654 
L 122.874063 81.499048 
L 124.958071 86.891183 
L 125.192025 87.760637 
L 125.334113 88.9607 
L 125.177811 89.809701 
L 124.613644 90.618693 
L 123.363832 91.354482 
L 121.246475 92.110026 
L 118.004402 93.170002 
L 110.551147 96.003184 
L 106.376724 98.141692 
L 104.632539 99.06587 
L 99.845423 101.517009 
L 98.826932 102.283556 
L 97.964006 103.281871 
L 97.582753 104.156353 
L 97.516369 104.711912 
L 97.648599 105.566718 
L 98.599389 108.225394 
L 98.548179 108.846971 
L 98.139499 109.533668 
L 97.273085 110.242964 
L 95.514738 111.259573 
L 93.52511 112.422456 
L 72.661128 126.693272 
L 70.146895 128.443604 
L 69.353276 128.830608 
L 68.693598 128.973065 
L 67.920879 128.783491 
L 67.408251 128.253491 
L 66.747731 126.81196 
L 66.157004 124.749827 
L 62.938672 111.667364 
L 62.700902 111.226307 
L 62.333574 110.946171 
L 61.417503 110.469566 
L 60.070074 109.867863 
L 58.196462 109.350392 
L 55.32181 108.910901 
L 53.836465 108.274019 
L 53.444183 107.936671 
L 52.925106 106.996371 
L 52.855852 105.651048 
L 52.840479 104.699877 
L 52.672622 104.16931 
L 52.365913 103.799178 
L 51.205821 103.35637 
L 50.500619 103.300778 
L 48.080896 103.425533 
L 46.28279 103.778529 
L 43.787917 104.626096 
L 39.862266 106.106796 
L 37.742961 106.899507 
L 28.174942 111.149898 
L 19.005087 115.803167 
L 17.335882 117.430073 
L 15.983768 119.940108 
L 15.0043 122.451037 
L 13.172041 127.544756 
L 11.865123 130.970256 
L 10.854569 134.429923 
L 10.43074 137.361299 
L 10.360117 140.842274 
L 10.521435 149.320166 
L 10.374136 151.064102 
L 9.84736 155.070891 
L 9.863785 156.357541 
L 10.089868 157.021602 
L 10.77271 157.681648 
L 18.443244 162.080771 
L 22.953238 164.739632 
L 27.693172 167.811187 
L 30.314748 169.346175 
L 33.930216 171.650684 
L 35.791694 172.577481 
L 37.012407 172.930293 
L 38.40078 172.928516 
L 39.480457 172.416743 
L 39.921475 172.001942 
L 40.833742 170.77328 
L 46.760997 160.434225 
L 48.738055 157.733326 
L 50.824747 155.429501 
L 53.283637 153.312893 
L 57.364418 150.116621 
L 60.017383 147.674761 
L 60.439817 147.258986 
L 64.473087 143.724801 
L 65.45137 142.480964 
L 66.262849 141.042039 
L 67.047834 139.219715 
L 68.312517 135.00003 
L 68.760603 133.383666 
L 69.48785 131.418557 
L 70.666499 129.551643 
L 72.849596 127.541707 
L 85.464336 119.025263 
L 93.380127 113.588839 
L 96.99266 111.50474 
L 100.191642 110.200256 
L 113.920279 105.497066 
L 135.513892 97.749339 
L 150.682072 92.245766 
L 156.7491 90.262349 
L 170.808872 85.818764 
L 183.912524 81.129407 
L 183.912524 81.129407 
" clip-path="url(#p30ba2d7fe7)" style="fill: none; stroke: #ffffff; stroke-width: 9; stroke-linecap: square"/>
   </g>
   <g id="line2d_2">
    <path d="M 183.912524 81.129407 
L 200.131572 75.308215 
L 202.944313 74.440037 
L 204.332528 73.730136 
L 205.092836 73.089818 
L 205.827138 72.05681 
L 206.113038 71.223918 
L 206.164169 70.248279 
L 206.070119 69.553869 
L 205.255823 67.135279 
L 203.883256 63.457545 
L 202.017948 58.514785 
L 196.383473 44.066495 
L 195.865449 43.461673 
L 195.248703 43.140514 
L 194.263773 43.088896 
L 192.831942 43.38655 
L 185.555113 45.697891 
L 167.905089 51.26706 
L 163.313391 52.833978 
L 136.808868 62.728202 
L 121.659837 68.57752 
L 120.548876 69.152874 
L 120.004674 69.580902 
L 119.454708 70.474494 
L 119.459815 71.443762 
L 119.862073 72.65746 
L 121.191511 75.913654 
L 122.874063 81.499048 
L 124.958071 86.891183 
L 125.192025 87.760637 
L 125.334113 88.9607 
L 125.177811 89.809701 
L 124.613644 90.618693 
L 123.363832 91.354482 
L 121.246475 92.110026 
L 118.004402 93.170002 
L 110.551147 96.003184 
L 106.376724 98.141692 
L 104.632539 99.06587 
L 99.845423 101.517009 
L 98.826932 102.283556 
L 97.964006 103.281871 
L 97.582753 104.156353 
L 97.516369 104.711912 
L 97.648599 105.566718 
L 98.599389 108.225394 
L 98.548179 108.846971 
L 98.139499 109.533668 
L 97.273085 110.242964 
L 95.514738 111.259573 
L 93.52511 112.422456 
L 72.661128 126.693272 
L 70.146895 128.443604 
L 69.353276 128.830608 
L 68.693598 128.973065 
L 67.920879 128.783491 
L 67.408251 128.253491 
L 66.747731 126.81196 
L 66.157004 124.749827 
L 62.938672 111.667364 
L 62.700902 111.226307 
L 62.333574 110.946171 
L 61.417503 110.469566 
L 60.070074 109.867863 
L 58.196462 109.350392 
L 55.32181 108.910901 
L 53.836465 108.274019 
L 53.444183 107.936671 
L 52.925106 106.996371 
L 52.855852 105.651048 
L 52.840479 104.699877 
L 52.672622 104.16931 
L 52.365913 103.799178 
L 51.205821 103.35637 
L 50.500619 103.300778 
L 48.080896 103.425533 
L 46.28279 103.778529 
L 43.787917 104.626096 
L 39.862266 106.106796 
L 37.742961 106.899507 
L 28.174942 111.149898 
L 19.005087 115.803167 
L 17.335882 117.430073 
L 15.983768 119.940108 
L 15.0043 122.451037 
L 13.172041 127.544756 
L 11.865123 130.970256 
L 10.854569 134.429923 
L 10.43074 137.361299 
L 10.360117 140.842274 
L 10.521435 149.320166 
L 10.374136 151.064102 
L 9.84736 155.070891 
L 9.863785 156.357541 
L 10.089868 157.021602 
L 10.77271 157.681648 
L 18.443244 162.080771 
L 22.953238 164.739632 
L 27.693172 167.811187 
L 30.314748 169.346175 
L 33.930216 171.650684 
L 35.791694 172.577481 
L 37.012407 172.930293 
L 38.40078 172.928516 
L 39.480457 172.416743 
L 39.921475 172.001942 
L 40.833742 170.77328 
L 46.760997 160.434225 
L 48.738055 157.733326 
L 50.824747 155.429501 
L 53.283637 153.312893 
L 57.364418 150.116621 
L 60.017383 147.674761 
L 60.439817 147.258986 
L 64.473087 143.724801 
L 65.45137 142.480964 
L 66.262849 141.042039 
L 67.047834 139.219715 
L 68.312517 135.00003 
L 68.760603 133.383666 
L 69.48785 131.418557 
L 70.666499 129.551643 
L 72.849596 127.541707 
L 85.464336 119.025263 
L 93.380127 113.588839 
L 96.99266 111.50474 
L 100.191642 110.200256 
L 113.920279 105.497066 
L 135.513892 97.749339 
L 150.682072 92.245766 
L 156.7491 90.262349 
L 170.808872 85.818764 
L 183.912524 81.129407 
L 183.912524 81.129407 
" clip-path="url(#p30ba2d7fe7)" style="fill: none; stroke: #000000; stroke-opacity: 0.5; stroke-width: 3; stroke-linecap: square"/>
   </g>
  </g>
 </g>
 <defs>
  <clipPath id="p30ba2d7fe7">
   <rect x="0" y="0" width="216" height="216"/>
  </clipPath>
 </defs>
</svg>
