<?xml version="1.0" encoding="utf-8" standalone="no"?>
<!DOCTYPE svg PUBLIC "-//W3C//DTD SVG 1.1//EN"
  "http://www.w3.org/Graphics/SVG/1.1/DTD/svg11.dtd">
<svg xmlns:xlink="http://www.w3.org/1999/xlink" width="216pt" height="216pt" viewBox="0 0 216 216" xmlns="http://www.w3.org/2000/svg" version="1.1">
 <metadata>
  <rdf:RDF xmlns:dc="http://purl.org/dc/elements/1.1/" xmlns:cc="http://creativecommons.org/ns#" xmlns:rdf="http://www.w3.org/1999/02/22-rdf-syntax-ns#">
   <cc:Work>
    <dc:type rdf:resource="http://purl.org/dc/dcmitype/StillImage"/>
    <dc:date>2025-06-19T13:34:45.828279</dc:date>
    <dc:format>image/svg+xml</dc:format>
    <dc:creator>
     <cc:Agent>
      <dc:title>Matplotlib v3.10.0, https://matplotlib.org/</dc:title>
     </cc:Agent>
    </dc:creator>
   </cc:Work>
  </rdf:RDF>
 </metadata>
 <defs>
  <style type="text/css">*{stroke-linejoin: round; stroke-linecap: butt}</style>
 </defs>
 <g id="figure_1">
  <g id="patch_1">
   <path d="M 0 216 
L 216 216 
L 216 0 
L 0 0 
L 0 216 
z
" style="fill: none"/>
  </g>
  <g id="axes_1">
   <g id="line2d_1">
    <path d="M 126.734305 171.128779 
L 108.611252 170.965284 
L 50.420611 170.790746 
L 16.791161 170.803744 
L 14.695143 170.644665 
L 12.856735 170.260907 
L 11.541068 169.643212 
L 11.012908 169.246882 
L 10.23424 168.328388 
L 9.888726 167.461132 
L 9.818182 166.86632 
L 9.865369 166.31717 
L 10.259174 165.241596 
L 10.713687 164.47913 
L 12.482445 162.393265 
L 14.931551 159.835685 
L 15.502638 159.08574 
L 16.162154 158.017478 
L 16.836295 156.417794 
L 17.213897 154.878238 
L 17.361035 152.915365 
L 17.149771 150.66637 
L 15.952624 145.365881 
L 13.997062 139.726876 
L 13.310769 135.752417 
L 13.239751 132.768522 
L 13.305561 130.377124 
L 13.524715 127.150822 
L 14.155771 122.416948 
L 19.201224 92.061775 
L 23.07131 67.006986 
L 25.29279 52.229807 
L 25.770764 50.23879 
L 26.637757 47.985324 
L 27.355455 46.682756 
L 28.020179 45.763631 
L 28.756974 45.007899 
L 29.697246 44.377789 
L 30.531361 44.033432 
L 32.412327 43.735474 
L 34.090603 43.809595 
L 36.399358 44.359428 
L 37.527538 44.834352 
L 39.580052 46.123136 
L 40.519798 46.903277 
L 42.102175 48.507117 
L 44.301563 51.151232 
L 49.117923 57.470112 
L 50.503766 59.147179 
L 56.710334 65.367738 
L 60.795528 68.327592 
L 65.43892 71.118635 
L 67.299896 72.148652 
L 70.150332 73.957075 
L 71.636545 75.18268 
L 73.324712 76.965326 
L 74.460257 78.601361 
L 74.905774 79.481715 
L 75.744624 82.123569 
L 76.01428 84.619389 
L 76.113337 90.306634 
L 76.387834 93.416152 
L 76.710832 95.06397 
L 77.240782 96.936835 
L 78.074791 98.964991 
L 80.62569 103.123201 
L 81.783961 104.459804 
L 83.293689 105.88368 
L 85.916763 107.83277 
L 89.529085 110.079134 
L 98.192125 114.903225 
L 102.545345 117.936674 
L 103.432486 118.635698 
L 105.000606 120.306399 
L 105.732666 121.790613 
L 105.980491 122.711054 
L 106.030046 123.655009 
L 105.934304 124.239036 
L 105.402724 125.170103 
L 104.452825 125.999641 
L 103.738178 126.439371 
L 102.531037 127.029028 
L 100.742183 127.589225 
L 99.356026 127.80354 
L 97.051532 127.850833 
L 93.307485 127.533622 
L 89.437606 126.938758 
L 78.032973 124.848371 
L 69.731913 123.26347 
L 62.643623 122.200312 
L 58.265258 121.772523 
L 54.992716 121.654529 
L 52.656816 121.752692 
L 50.790106 121.983789 
L 47.600839 122.825163 
L 45.816615 123.517927 
L 42.90137 125.079735 
L 41.02719 126.522234 
L 39.920263 127.60612 
L 38.163078 130.0234 
L 37.626501 131.286461 
L 37.387041 132.505964 
L 37.475523 133.61447 
L 37.676898 134.15494 
L 38.372712 135.076327 
L 39.18952 135.661669 
L 40.972639 136.362586 
L 43.462515 136.872913 
L 47.142593 137.258722 
L 53.993474 137.699714 
L 61.99968 137.967633 
L 88.610069 138.398838 
L 144.676969 139.045721 
L 147.091671 138.82867 
L 150.699259 138.088824 
L 153.089079 137.15923 
L 154.273862 136.404445 
L 155.857659 134.723222 
L 156.715235 133.150314 
L 157.592433 130.713991 
L 157.9471 128.992735 
L 158.006544 126.419058 
L 157.631887 124.242133 
L 156.887465 121.928801 
L 156.221109 120.425701 
L 155.09114 118.474244 
L 152.955142 115.74496 
L 150.912624 113.792188 
L 147.680272 111.499373 
L 144.82426 110.006373 
L 140.90367 108.434413 
L 136.856299 107.03279 
L 134.080459 105.935174 
L 131.410777 104.551805 
L 128.065901 102.362465 
L 125.536465 100.244195 
L 123.49663 97.893146 
L 122.182068 95.88177 
L 120.648772 92.832802 
L 119.681986 90.328144 
L 119.094802 88.241595 
L 118.628768 84.873311 
L 118.63466 82.666506 
L 118.848081 80.701318 
L 119.915974 76.599238 
L 121.12322 73.637068 
L 124.525539 66.068909 
L 125.307574 64.233184 
L 127.431945 59.978074 
L 128.980076 57.750594 
L 129.955015 56.687908 
L 130.855781 55.876677 
L 133.364279 54.544755 
L 136.378791 53.925166 
L 138.903913 54.019488 
L 140.343465 54.383992 
L 141.472224 54.875486 
L 143.524737 56.16427 
L 144.637714 57.154045 
L 146.049175 58.614534 
L 147.193768 60.03457 
L 149.403783 63.45809 
L 167.638206 94.841909 
L 177.235786 110.749318 
L 195.364366 140.527509 
L 204.006365 154.726235 
L 204.75326 156.160159 
L 205.763603 158.961933 
L 206.181818 161.435975 
L 206.033734 163.846837 
L 205.075786 165.871207 
L 204.678298 166.366225 
L 203.668481 167.380356 
L 202.005092 168.682766 
L 199.974252 169.915053 
L 197.963824 170.781625 
L 196.586346 171.244502 
L 194.941421 171.650355 
L 192.846193 171.988977 
L 187.331021 172.264526 
L 174.679793 172.009496 
L 159.75374 171.701177 
L 126.734305 171.128779 
L 126.734305 171.128779 
" clip-path="url(#p3c6c4f6c9c)" style="fill: none; stroke: #ffffff; stroke-width: 9; stroke-linecap: square"/>
   </g>
   <g id="line2d_2">
    <path d="M 126.734305 171.128779 
L 108.611252 170.965284 
L 50.420611 170.790746 
L 16.791161 170.803744 
L 14.695143 170.644665 
L 12.856735 170.260907 
L 11.541068 169.643212 
L 11.012908 169.246882 
L 10.23424 168.328388 
L 9.888726 167.461132 
L 9.818182 166.86632 
L 9.865369 166.31717 
L 10.259174 165.241596 
L 10.713687 164.47913 
L 12.482445 162.393265 
L 14.931551 159.835685 
L 15.502638 159.08574 
L 16.162154 158.017478 
L 16.836295 156.417794 
L 17.213897 154.878238 
L 17.361035 152.915365 
L 17.149771 150.66637 
L 15.952624 145.365881 
L 13.997062 139.726876 
L 13.310769 135.752417 
L 13.239751 132.768522 
L 13.305561 130.377124 
L 13.524715 127.150822 
L 14.155771 122.416948 
L 19.201224 92.061775 
L 23.07131 67.006986 
L 25.29279 52.229807 
L 25.770764 50.23879 
L 26.637757 47.985324 
L 27.355455 46.682756 
L 28.020179 45.763631 
L 28.756974 45.007899 
L 29.697246 44.377789 
L 30.531361 44.033432 
L 32.412327 43.735474 
L 34.090603 43.809595 
L 36.399358 44.359428 
L 37.527538 44.834352 
L 39.580052 46.123136 
L 40.519798 46.903277 
L 42.102175 48.507117 
L 44.301563 51.151232 
L 49.117923 57.470112 
L 50.503766 59.147179 
L 56.710334 65.367738 
L 60.795528 68.327592 
L 65.43892 71.118635 
L 67.299896 72.148652 
L 70.150332 73.957075 
L 71.636545 75.18268 
L 73.324712 76.965326 
L 74.460257 78.601361 
L 74.905774 79.481715 
L 75.744624 82.123569 
L 76.01428 84.619389 
L 76.113337 90.306634 
L 76.387834 93.416152 
L 76.710832 95.06397 
L 77.240782 96.936835 
L 78.074791 98.964991 
L 80.62569 103.123201 
L 81.783961 104.459804 
L 83.293689 105.88368 
L 85.916763 107.83277 
L 89.529085 110.079134 
L 98.192125 114.903225 
L 102.545345 117.936674 
L 103.432486 118.635698 
L 105.000606 120.306399 
L 105.732666 121.790613 
L 105.980491 122.711054 
L 106.030046 123.655009 
L 105.934304 124.239036 
L 105.402724 125.170103 
L 104.452825 125.999641 
L 103.738178 126.439371 
L 102.531037 127.029028 
L 100.742183 127.589225 
L 99.356026 127.80354 
L 97.051532 127.850833 
L 93.307485 127.533622 
L 89.437606 126.938758 
L 78.032973 124.848371 
L 69.731913 123.26347 
L 62.643623 122.200312 
L 58.265258 121.772523 
L 54.992716 121.654529 
L 52.656816 121.752692 
L 50.790106 121.983789 
L 47.600839 122.825163 
L 45.816615 123.517927 
L 42.90137 125.079735 
L 41.02719 126.522234 
L 39.920263 127.60612 
L 38.163078 130.0234 
L 37.626501 131.286461 
L 37.387041 132.505964 
L 37.475523 133.61447 
L 37.676898 134.15494 
L 38.372712 135.076327 
L 39.18952 135.661669 
L 40.972639 136.362586 
L 43.462515 136.872913 
L 47.142593 137.258722 
L 53.993474 137.699714 
L 61.99968 137.967633 
L 88.610069 138.398838 
L 144.676969 139.045721 
L 147.091671 138.82867 
L 150.699259 138.088824 
L 153.089079 137.15923 
L 154.273862 136.404445 
L 155.857659 134.723222 
L 156.715235 133.150314 
L 157.592433 130.713991 
L 157.9471 128.992735 
L 158.006544 126.419058 
L 157.631887 124.242133 
L 156.887465 121.928801 
L 156.221109 120.425701 
L 155.09114 118.474244 
L 152.955142 115.74496 
L 150.912624 113.792188 
L 147.680272 111.499373 
L 144.82426 110.006373 
L 140.90367 108.434413 
L 136.856299 107.03279 
L 134.080459 105.935174 
L 131.410777 104.551805 
L 128.065901 102.362465 
L 125.536465 100.244195 
L 123.49663 97.893146 
L 122.182068 95.88177 
L 120.648772 92.832802 
L 119.681986 90.328144 
L 119.094802 88.241595 
L 118.628768 84.873311 
L 118.63466 82.666506 
L 118.848081 80.701318 
L 119.915974 76.599238 
L 121.12322 73.637068 
L 124.525539 66.068909 
L 125.307574 64.233184 
L 127.431945 59.978074 
L 128.980076 57.750594 
L 129.955015 56.687908 
L 130.855781 55.876677 
L 133.364279 54.544755 
L 136.378791 53.925166 
L 138.903913 54.019488 
L 140.343465 54.383992 
L 141.472224 54.875486 
L 143.524737 56.16427 
L 144.637714 57.154045 
L 146.049175 58.614534 
L 147.193768 60.03457 
L 149.403783 63.45809 
L 167.638206 94.841909 
L 177.235786 110.749318 
L 195.364366 140.527509 
L 204.006365 154.726235 
L 204.75326 156.160159 
L 205.763603 158.961933 
L 206.181818 161.435975 
L 206.033734 163.846837 
L 205.075786 165.871207 
L 204.678298 166.366225 
L 203.668481 167.380356 
L 202.005092 168.682766 
L 199.974252 169.915053 
L 197.963824 170.781625 
L 196.586346 171.244502 
L 194.941421 171.650355 
L 192.846193 171.988977 
L 187.331021 172.264526 
L 174.679793 172.009496 
L 159.75374 171.701177 
L 126.734305 171.128779 
L 126.734305 171.128779 
" clip-path="url(#p3c6c4f6c9c)" style="fill: none; stroke: #000000; stroke-width: 3; stroke-linecap: square"/>
   </g>
  </g>
 </g>
 <defs>
  <clipPath id="p3c6c4f6c9c">
   <rect x="0" y="0" width="216" height="216"/>
  </clipPath>
 </defs>
</svg>
