<?xml version="1.0" encoding="utf-8" standalone="no"?>
<!DOCTYPE svg PUBLIC "-//W3C//DTD SVG 1.1//EN"
  "http://www.w3.org/Graphics/SVG/1.1/DTD/svg11.dtd">
<svg xmlns:xlink="http://www.w3.org/1999/xlink" width="216pt" height="216pt" viewBox="0 0 216 216" xmlns="http://www.w3.org/2000/svg" version="1.1">
 <metadata>
  <rdf:RDF xmlns:dc="http://purl.org/dc/elements/1.1/" xmlns:cc="http://creativecommons.org/ns#" xmlns:rdf="http://www.w3.org/1999/02/22-rdf-syntax-ns#">
   <cc:Work>
    <dc:type rdf:resource="http://purl.org/dc/dcmitype/StillImage"/>
    <dc:date>2025-06-18T12:18:11.802395</dc:date>
    <dc:format>image/svg+xml</dc:format>
    <dc:creator>
     <cc:Agent>
      <dc:title>Matplotlib v3.10.0, https://matplotlib.org/</dc:title>
     </cc:Agent>
    </dc:creator>
   </cc:Work>
  </rdf:RDF>
 </metadata>
 <defs>
  <style type="text/css">*{stroke-linejoin: round; stroke-linecap: butt}</style>
 </defs>
 <g id="figure_1">
  <g id="patch_1">
   <path d="M 0 216 
L 216 216 
L 216 0 
L 0 0 
L 0 216 
z
" style="fill: none"/>
  </g>
  <g id="axes_1">
   <g id="line2d_1">
    <path d="M 40.303213 134.401824 
L 16.193197 150.932722 
L 14.044479 152.118167 
L 12.447439 152.583817 
L 11.269655 152.546005 
L 10.829299 152.398039 
L 10.445428 152.142075 
L 10.137831 151.797226 
L 9.936195 151.392157 
L 9.818182 150.761878 
L 10.000515 149.503745 
L 10.592041 147.72287 
L 11.762552 145.114712 
L 16.471808 135.683621 
L 18.882167 131.652947 
L 20.656837 129.102341 
L 22.882487 126.193646 
L 25.591857 123.130582 
L 30.983748 117.695632 
L 40.216421 108.808195 
L 44.716369 104.66322 
L 47.065343 102.131775 
L 47.881691 100.969587 
L 49.712265 97.163056 
L 51.346827 94.945658 
L 53.784977 93.064452 
L 55.443644 92.228052 
L 58.99281 91.018162 
L 62.862013 90.308557 
L 66.252179 88.906877 
L 70.322876 86.364836 
L 71.543733 85.526349 
L 83.084367 76.773735 
L 85.574029 75.057011 
L 88.114526 73.465868 
L 92.143726 71.333139 
L 96.045429 69.698779 
L 115.460329 62.851662 
L 136.131034 55.496209 
L 158.562073 47.555517 
L 160.381777 47.027611 
L 161.923182 46.718585 
L 162.924043 46.652474 
L 164.034598 46.7401 
L 165.55153 47.258406 
L 166.426761 47.797642 
L 170.03066 50.838062 
L 170.815476 51.213495 
L 172.52369 51.543624 
L 173.758638 51.51234 
L 175.890232 51.017903 
L 177.658934 50.354691 
L 180.432789 49.313987 
L 181.362686 49.083733 
L 183.032727 48.89893 
L 184.309631 49.042022 
L 185.38485 49.33456 
L 186.757261 49.933215 
L 188.026598 50.757421 
L 189.480666 52.132914 
L 190.725361 53.774726 
L 195.699847 60.653356 
L 200.743139 67.015184 
L 202.921028 69.730276 
L 204.840576 72.693085 
L 205.796736 74.524772 
L 206.094389 75.414579 
L 206.181818 76.522079 
L 206.053084 77.506884 
L 205.520299 78.751677 
L 204.882112 79.531352 
L 204.163577 80.166505 
L 203.412131 80.58821 
L 202.705916 80.814559 
L 201.09219 80.88164 
L 200.555429 80.783998 
L 199.203997 80.272531 
L 198.722363 79.989089 
L 197.280736 78.769031 
L 196.048313 77.272929 
L 195.179631 75.994229 
L 191.723726 70.285673 
L 190.624013 69.147201 
L 188.951015 68.047922 
L 187.026128 67.565921 
L 186.208181 67.521828 
L 184.470063 67.70782 
L 182.021437 68.431542 
L 179.085986 69.689089 
L 172.770265 72.357872 
L 169.820675 73.36273 
L 165.754709 74.503814 
L 158.876884 76.180394 
L 148.07388 78.703752 
L 145.023472 79.506076 
L 143.505592 80.04817 
L 141.056917 81.326405 
L 138.64297 83.479581 
L 138.204942 84.022283 
L 136.910087 86.194838 
L 136.465849 87.496455 
L 136.190118 89.534482 
L 136.124023 94.107934 
L 136.403095 96.719974 
L 136.921276 98.539849 
L 137.497519 99.784741 
L 138.669334 101.709946 
L 139.694639 103.044282 
L 141.764071 105.1192 
L 143.105389 106.165899 
L 144.807393 107.254945 
L 147.623348 108.626123 
L 150.276907 109.611004 
L 169.2493 115.311383 
L 173.094781 116.586764 
L 174.496538 117.194636 
L 176.167669 118.186937 
L 177.550435 119.378838 
L 178.235233 120.154876 
L 178.91455 121.174218 
L 179.268517 121.946303 
L 179.496564 122.749771 
L 179.607907 123.555276 
L 179.631673 124.916823 
L 179.420503 126.194915 
L 179.106138 127.134319 
L 177.826951 129.647091 
L 177.241925 131.243014 
L 177.036237 132.277804 
L 176.976428 133.310047 
L 177.210368 135.008415 
L 177.44814 135.811713 
L 177.995037 137.047389 
L 178.585637 138.000181 
L 179.261559 138.825016 
L 184.09063 142.388835 
L 187.504923 144.041418 
L 190.731039 145.50272 
L 193.813482 147.092998 
L 195.356656 147.999978 
L 197.399337 149.657046 
L 198.076277 150.540233 
L 198.651161 151.707322 
L 198.849353 152.472398 
L 198.886459 153.483493 
L 198.53581 155.688209 
L 197.922118 157.313818 
L 196.592606 159.730185 
L 195.294527 161.717958 
L 193.356054 164.358978 
L 191.923227 165.872417 
L 190.82094 166.815845 
L 188.829356 168.086102 
L 187.671483 168.631641 
L 185.988102 169.166896 
L 184.677559 169.325967 
L 182.361742 169.298292 
L 180.587487 169.086054 
L 178.156034 168.564254 
L 175.739957 167.808707 
L 172.838851 166.575211 
L 170.009776 165.009696 
L 166.160488 162.401604 
L 161.887119 158.905912 
L 159.602881 156.786102 
L 157.4937 154.663236 
L 154.456296 151.194612 
L 152.543538 148.620816 
L 151.164944 146.553296 
L 143.440938 133.749487 
L 141.77318 131.278426 
L 139.476211 128.429216 
L 136.408394 125.447537 
L 135.234443 124.514655 
L 132.272658 122.59151 
L 128.523121 120.682114 
L 123.407114 118.51445 
L 118.188712 116.611237 
L 115.100059 115.779875 
L 111.483473 115.356588 
L 109.471178 115.440354 
L 106.6194 115.918177 
L 104.249595 116.698893 
L 99.603116 118.579732 
L 84.357667 125.198419 
L 82.112425 125.869949 
L 77.481371 126.962527 
L 71.858842 128.101596 
L 64.631973 129.288125 
L 62.600398 129.381956 
L 61.109366 129.232873 
L 59.775857 128.633539 
L 59.228062 127.90375 
L 59.048472 127.089708 
L 58.905456 125.584319 
L 58.540914 124.763777 
L 57.683606 124.136674 
L 56.738042 124.026711 
L 55.63258 124.230844 
L 54.782353 124.566719 
L 53.558779 125.2496 
L 50.415602 127.425233 
L 41.514515 133.573232 
L 40.303213 134.401824 
L 40.303213 134.401824 
" clip-path="url(#p8353eafffe)" style="fill: none; stroke: #ffffff; stroke-width: 9; stroke-linecap: square"/>
   </g>
   <g id="line2d_2">
    <path d="M 40.303213 134.401824 
L 16.193197 150.932722 
L 14.044479 152.118167 
L 12.447439 152.583817 
L 11.269655 152.546005 
L 10.829299 152.398039 
L 10.445428 152.142075 
L 10.137831 151.797226 
L 9.936195 151.392157 
L 9.818182 150.761878 
L 10.000515 149.503745 
L 10.592041 147.72287 
L 11.762552 145.114712 
L 16.471808 135.683621 
L 18.882167 131.652947 
L 20.656837 129.102341 
L 22.882487 126.193646 
L 25.591857 123.130582 
L 30.983748 117.695632 
L 40.216421 108.808195 
L 44.716369 104.66322 
L 47.065343 102.131775 
L 47.881691 100.969587 
L 49.712265 97.163056 
L 51.346827 94.945658 
L 53.784977 93.064452 
L 55.443644 92.228052 
L 58.99281 91.018162 
L 62.862013 90.308557 
L 66.252179 88.906877 
L 70.322876 86.364836 
L 71.543733 85.526349 
L 83.084367 76.773735 
L 85.574029 75.057011 
L 88.114526 73.465868 
L 92.143726 71.333139 
L 96.045429 69.698779 
L 115.460329 62.851662 
L 136.131034 55.496209 
L 158.562073 47.555517 
L 160.381777 47.027611 
L 161.923182 46.718585 
L 162.924043 46.652474 
L 164.034598 46.7401 
L 165.55153 47.258406 
L 166.426761 47.797642 
L 170.03066 50.838062 
L 170.815476 51.213495 
L 172.52369 51.543624 
L 173.758638 51.51234 
L 175.890232 51.017903 
L 177.658934 50.354691 
L 180.432789 49.313987 
L 181.362686 49.083733 
L 183.032727 48.89893 
L 184.309631 49.042022 
L 185.38485 49.33456 
L 186.757261 49.933215 
L 188.026598 50.757421 
L 189.480666 52.132914 
L 190.725361 53.774726 
L 195.699847 60.653356 
L 200.743139 67.015184 
L 202.921028 69.730276 
L 204.840576 72.693085 
L 205.796736 74.524772 
L 206.094389 75.414579 
L 206.181818 76.522079 
L 206.053084 77.506884 
L 205.520299 78.751677 
L 204.882112 79.531352 
L 204.163577 80.166505 
L 203.412131 80.58821 
L 202.705916 80.814559 
L 201.09219 80.88164 
L 200.555429 80.783998 
L 199.203997 80.272531 
L 198.722363 79.989089 
L 197.280736 78.769031 
L 196.048313 77.272929 
L 195.179631 75.994229 
L 191.723726 70.285673 
L 190.624013 69.147201 
L 188.951015 68.047922 
L 187.026128 67.565921 
L 186.208181 67.521828 
L 184.470063 67.70782 
L 182.021437 68.431542 
L 179.085986 69.689089 
L 172.770265 72.357872 
L 169.820675 73.36273 
L 165.754709 74.503814 
L 158.876884 76.180394 
L 148.07388 78.703752 
L 145.023472 79.506076 
L 143.505592 80.04817 
L 141.056917 81.326405 
L 138.64297 83.479581 
L 138.204942 84.022283 
L 136.910087 86.194838 
L 136.465849 87.496455 
L 136.190118 89.534482 
L 136.124023 94.107934 
L 136.403095 96.719974 
L 136.921276 98.539849 
L 137.497519 99.784741 
L 138.669334 101.709946 
L 139.694639 103.044282 
L 141.764071 105.1192 
L 143.105389 106.165899 
L 144.807393 107.254945 
L 147.623348 108.626123 
L 150.276907 109.611004 
L 169.2493 115.311383 
L 173.094781 116.586764 
L 174.496538 117.194636 
L 176.167669 118.186937 
L 177.550435 119.378838 
L 178.235233 120.154876 
L 178.91455 121.174218 
L 179.268517 121.946303 
L 179.496564 122.749771 
L 179.607907 123.555276 
L 179.631673 124.916823 
L 179.420503 126.194915 
L 179.106138 127.134319 
L 177.826951 129.647091 
L 177.241925 131.243014 
L 177.036237 132.277804 
L 176.976428 133.310047 
L 177.210368 135.008415 
L 177.44814 135.811713 
L 177.995037 137.047389 
L 178.585637 138.000181 
L 179.261559 138.825016 
L 184.09063 142.388835 
L 187.504923 144.041418 
L 190.731039 145.50272 
L 193.813482 147.092998 
L 195.356656 147.999978 
L 197.399337 149.657046 
L 198.076277 150.540233 
L 198.651161 151.707322 
L 198.849353 152.472398 
L 198.886459 153.483493 
L 198.53581 155.688209 
L 197.922118 157.313818 
L 196.592606 159.730185 
L 195.294527 161.717958 
L 193.356054 164.358978 
L 191.923227 165.872417 
L 190.82094 166.815845 
L 188.829356 168.086102 
L 187.671483 168.631641 
L 185.988102 169.166896 
L 184.677559 169.325967 
L 182.361742 169.298292 
L 180.587487 169.086054 
L 178.156034 168.564254 
L 175.739957 167.808707 
L 172.838851 166.575211 
L 170.009776 165.009696 
L 166.160488 162.401604 
L 161.887119 158.905912 
L 159.602881 156.786102 
L 157.4937 154.663236 
L 154.456296 151.194612 
L 152.543538 148.620816 
L 151.164944 146.553296 
L 143.440938 133.749487 
L 141.77318 131.278426 
L 139.476211 128.429216 
L 136.408394 125.447537 
L 135.234443 124.514655 
L 132.272658 122.59151 
L 128.523121 120.682114 
L 123.407114 118.51445 
L 118.188712 116.611237 
L 115.100059 115.779875 
L 111.483473 115.356588 
L 109.471178 115.440354 
L 106.6194 115.918177 
L 104.249595 116.698893 
L 99.603116 118.579732 
L 84.357667 125.198419 
L 82.112425 125.869949 
L 77.481371 126.962527 
L 71.858842 128.101596 
L 64.631973 129.288125 
L 62.600398 129.381956 
L 61.109366 129.232873 
L 59.775857 128.633539 
L 59.228062 127.90375 
L 59.048472 127.089708 
L 58.905456 125.584319 
L 58.540914 124.763777 
L 57.683606 124.136674 
L 56.738042 124.026711 
L 55.63258 124.230844 
L 54.782353 124.566719 
L 53.558779 125.2496 
L 50.415602 127.425233 
L 41.514515 133.573232 
L 40.303213 134.401824 
L 40.303213 134.401824 
" clip-path="url(#p8353eafffe)" style="fill: none; stroke: #000000; stroke-opacity: 0.5; stroke-width: 3; stroke-linecap: square"/>
   </g>
  </g>
 </g>
 <defs>
  <clipPath id="p8353eafffe">
   <rect x="0" y="0" width="216" height="216"/>
  </clipPath>
 </defs>
</svg>
