<?xml version="1.0" encoding="utf-8" standalone="no"?>
<!DOCTYPE svg PUBLIC "-//W3C//DTD SVG 1.1//EN"
  "http://www.w3.org/Graphics/SVG/1.1/DTD/svg11.dtd">
<svg xmlns:xlink="http://www.w3.org/1999/xlink" width="216pt" height="216pt" viewBox="0 0 216 216" xmlns="http://www.w3.org/2000/svg" version="1.1">
 <metadata>
  <rdf:RDF xmlns:dc="http://purl.org/dc/elements/1.1/" xmlns:cc="http://creativecommons.org/ns#" xmlns:rdf="http://www.w3.org/1999/02/22-rdf-syntax-ns#">
   <cc:Work>
    <dc:type rdf:resource="http://purl.org/dc/dcmitype/StillImage"/>
    <dc:date>2025-06-19T13:34:51.129485</dc:date>
    <dc:format>image/svg+xml</dc:format>
    <dc:creator>
     <cc:Agent>
      <dc:title>Matplotlib v3.10.0, https://matplotlib.org/</dc:title>
     </cc:Agent>
    </dc:creator>
   </cc:Work>
  </rdf:RDF>
 </metadata>
 <defs>
  <style type="text/css">*{stroke-linejoin: round; stroke-linecap: butt}</style>
 </defs>
 <g id="figure_1">
  <g id="patch_1">
   <path d="M 0 216 
L 216 216 
L 216 0 
L 0 0 
L 0 216 
z
" style="fill: none"/>
  </g>
  <g id="axes_1">
   <g id="line2d_1">
    <path d="M 77.065514 43.345428 
L 63.292422 43.979942 
L 40.492209 45.234399 
L 32.325594 45.879808 
L 30.873832 46.043546 
L 27.178753 46.576691 
L 23.688432 47.350159 
L 20.913623 48.275713 
L 19.873741 48.723798 
L 18.010741 49.803803 
L 16.947301 50.640481 
L 16.186311 51.443046 
L 15.104227 53.200719 
L 14.652695 54.954661 
L 14.593572 55.788333 
L 14.694727 56.793832 
L 15.157368 58.505928 
L 15.656757 59.674795 
L 19.182217 66.328147 
L 19.940672 68.870638 
L 19.808241 71.715765 
L 19.251282 73.132418 
L 17.991004 75.265494 
L 15.339369 79.129866 
L 13.152369 82.66004 
L 12.115222 84.761824 
L 11.156668 87.234554 
L 10.361666 90.234047 
L 10.093242 92.144989 
L 9.818182 94.920439 
L 9.821828 97.125371 
L 10.001305 99.151198 
L 10.658977 102.538186 
L 11.436261 105.08468 
L 12.55129 107.801363 
L 14.5875 111.461688 
L 16.020077 113.51771 
L 17.500681 115.34778 
L 18.976827 116.921063 
L 21.897371 119.568881 
L 23.079342 120.489236 
L 27.620385 123.383102 
L 33.027118 126.185456 
L 46.036059 132.571707 
L 67.05745 142.648734 
L 84.790814 151.43647 
L 108.586388 163.461087 
L 122.175946 170.541471 
L 125.773702 172.132756 
L 128.780018 172.988248 
L 131.784239 173.390656 
L 134.885698 173.243012 
L 136.566957 172.832856 
L 137.773483 172.341472 
L 139.958489 170.857592 
L 141.919452 168.85377 
L 142.802148 167.663795 
L 143.526206 166.47946 
L 145.50399 162.452177 
L 146.524216 159.874476 
L 147.322494 157.229919 
L 147.748374 155.411485 
L 148.526725 151.286695 
L 148.772588 148.741198 
L 148.835798 146.314317 
L 148.639856 144.088191 
L 147.432219 139.029586 
L 145.94324 135.387178 
L 144.67403 132.932922 
L 143.238178 130.521965 
L 141.315128 127.810651 
L 133.877455 119.656614 
L 120.977186 105.815072 
L 106.005058 90.332664 
L 102.63479 86.467496 
L 99.648471 81.4441 
L 99.201568 80.306069 
L 98.527617 77.643779 
L 98.311664 75.5118 
L 98.28728 73.774779 
L 98.390698 72.084604 
L 98.77637 69.529464 
L 99.633499 66.700617 
L 100.855663 64.283919 
L 102.234558 62.333495 
L 103.91472 60.447108 
L 106.765387 58.2388 
L 109.850922 56.592093 
L 111.887843 55.804896 
L 113.645602 55.3126 
L 116.41168 54.79847 
L 119.280365 54.542309 
L 124.535908 54.53765 
L 127.606987 54.718109 
L 130.803503 55.14171 
L 133.348274 55.761337 
L 135.603057 56.634206 
L 137.527373 57.672991 
L 138.944938 58.781182 
L 139.808449 59.810966 
L 140.313478 61.138472 
L 140.3918 62.158798 
L 140.325855 62.93198 
L 139.916711 64.301332 
L 139.537491 65.066965 
L 137.962755 67.290642 
L 134.400678 71.827412 
L 133.365895 73.732899 
L 132.80257 75.364678 
L 132.600092 76.502439 
L 132.559072 77.713878 
L 132.66541 78.6024 
L 133.097942 79.993216 
L 133.584868 80.942954 
L 134.261269 81.834566 
L 135.351914 82.814229 
L 136.458112 83.442958 
L 137.995745 83.986272 
L 139.035356 84.187568 
L 140.767193 84.280161 
L 142.721704 84.065847 
L 145.589477 83.258452 
L 148.272505 82.11659 
L 149.400893 81.529877 
L 156.945401 77.0524 
L 159.08802 75.95311 
L 162.109518 74.607672 
L 165.014494 73.532666 
L 168.101396 72.712809 
L 171.063772 72.201043 
L 173.365215 72.02111 
L 175.455989 72.091599 
L 177.053656 72.352473 
L 179.457435 73.079892 
L 180.819238 73.802312 
L 181.357738 74.231653 
L 181.954364 74.850469 
L 182.737103 76.630603 
L 182.7573 77.461455 
L 182.349793 79.008275 
L 181.474375 80.534357 
L 180.284044 81.875422 
L 178.762791 83.106787 
L 176.818107 84.38591 
L 174.131534 85.822218 
L 168.225983 88.699749 
L 166.024512 89.98333 
L 163.98732 91.419909 
L 162.117683 93.364422 
L 160.830115 95.255538 
L 158.99496 99.352498 
L 158.599005 100.567214 
L 158.0526 102.674909 
L 157.680118 105.075412 
L 157.610356 106.792421 
L 157.936834 110.719091 
L 158.358271 112.717628 
L 159.341951 115.681912 
L 160.809552 118.591617 
L 161.769303 120.094496 
L 165.507425 124.451134 
L 167.201517 126.110103 
L 174.624905 132.942546 
L 183.431745 140.58073 
L 184.341646 141.207094 
L 186.360109 142.265891 
L 187.917753 142.715059 
L 189.199325 142.889065 
L 190.109496 142.866048 
L 191.691425 142.552859 
L 193.056589 142.055834 
L 194.833447 140.918159 
L 196.567733 139.240076 
L 198.293103 137.048418 
L 200.717605 133.234167 
L 202.362287 130.21848 
L 203.967944 126.367938 
L 204.751395 123.700549 
L 205.706303 119.022888 
L 206.116344 114.131011 
L 206.181818 109.008455 
L 206.019348 105.884165 
L 205.644841 102.183446 
L 205.117337 98.647006 
L 204.211153 94.577436 
L 203.18208 90.993424 
L 202.078602 87.944636 
L 200.626555 84.683998 
L 198.17237 80.30507 
L 194.37239 75.128405 
L 190.781812 71.373848 
L 189.044876 69.823853 
L 186.99985 68.14933 
L 182.459533 64.881699 
L 178.160906 62.23616 
L 175.287849 60.661154 
L 171.493339 58.791888 
L 160.367509 53.730863 
L 152.910024 50.669728 
L 149.688127 49.532253 
L 143.395421 47.564938 
L 138.231745 46.211525 
L 131.71682 44.826735 
L 123.840278 43.644524 
L 120.661408 43.323074 
L 112.022238 42.76596 
L 105.915376 42.609344 
L 94.613916 42.726182 
L 77.065514 43.345428 
L 77.065514 43.345428 
" clip-path="url(#p74baafad22)" style="fill: none; stroke: #ffffff; stroke-width: 9; stroke-linecap: square"/>
   </g>
   <g id="line2d_2">
    <path d="M 77.065514 43.345428 
L 63.292422 43.979942 
L 40.492209 45.234399 
L 32.325594 45.879808 
L 30.873832 46.043546 
L 27.178753 46.576691 
L 23.688432 47.350159 
L 20.913623 48.275713 
L 19.873741 48.723798 
L 18.010741 49.803803 
L 16.947301 50.640481 
L 16.186311 51.443046 
L 15.104227 53.200719 
L 14.652695 54.954661 
L 14.593572 55.788333 
L 14.694727 56.793832 
L 15.157368 58.505928 
L 15.656757 59.674795 
L 19.182217 66.328147 
L 19.940672 68.870638 
L 19.808241 71.715765 
L 19.251282 73.132418 
L 17.991004 75.265494 
L 15.339369 79.129866 
L 13.152369 82.66004 
L 12.115222 84.761824 
L 11.156668 87.234554 
L 10.361666 90.234047 
L 10.093242 92.144989 
L 9.818182 94.920439 
L 9.821828 97.125371 
L 10.001305 99.151198 
L 10.658977 102.538186 
L 11.436261 105.08468 
L 12.55129 107.801363 
L 14.5875 111.461688 
L 16.020077 113.51771 
L 17.500681 115.34778 
L 18.976827 116.921063 
L 21.897371 119.568881 
L 23.079342 120.489236 
L 27.620385 123.383102 
L 33.027118 126.185456 
L 46.036059 132.571707 
L 67.05745 142.648734 
L 84.790814 151.43647 
L 108.586388 163.461087 
L 122.175946 170.541471 
L 125.773702 172.132756 
L 128.780018 172.988248 
L 131.784239 173.390656 
L 134.885698 173.243012 
L 136.566957 172.832856 
L 137.773483 172.341472 
L 139.958489 170.857592 
L 141.919452 168.85377 
L 142.802148 167.663795 
L 143.526206 166.47946 
L 145.50399 162.452177 
L 146.524216 159.874476 
L 147.322494 157.229919 
L 147.748374 155.411485 
L 148.526725 151.286695 
L 148.772588 148.741198 
L 148.835798 146.314317 
L 148.639856 144.088191 
L 147.432219 139.029586 
L 145.94324 135.387178 
L 144.67403 132.932922 
L 143.238178 130.521965 
L 141.315128 127.810651 
L 133.877455 119.656614 
L 120.977186 105.815072 
L 106.005058 90.332664 
L 102.63479 86.467496 
L 99.648471 81.4441 
L 99.201568 80.306069 
L 98.527617 77.643779 
L 98.311664 75.5118 
L 98.28728 73.774779 
L 98.390698 72.084604 
L 98.77637 69.529464 
L 99.633499 66.700617 
L 100.855663 64.283919 
L 102.234558 62.333495 
L 103.91472 60.447108 
L 106.765387 58.2388 
L 109.850922 56.592093 
L 111.887843 55.804896 
L 113.645602 55.3126 
L 116.41168 54.79847 
L 119.280365 54.542309 
L 124.535908 54.53765 
L 127.606987 54.718109 
L 130.803503 55.14171 
L 133.348274 55.761337 
L 135.603057 56.634206 
L 137.527373 57.672991 
L 138.944938 58.781182 
L 139.808449 59.810966 
L 140.313478 61.138472 
L 140.3918 62.158798 
L 140.325855 62.93198 
L 139.916711 64.301332 
L 139.537491 65.066965 
L 137.962755 67.290642 
L 134.400678 71.827412 
L 133.365895 73.732899 
L 132.80257 75.364678 
L 132.600092 76.502439 
L 132.559072 77.713878 
L 132.66541 78.6024 
L 133.097942 79.993216 
L 133.584868 80.942954 
L 134.261269 81.834566 
L 135.351914 82.814229 
L 136.458112 83.442958 
L 137.995745 83.986272 
L 139.035356 84.187568 
L 140.767193 84.280161 
L 142.721704 84.065847 
L 145.589477 83.258452 
L 148.272505 82.11659 
L 149.400893 81.529877 
L 156.945401 77.0524 
L 159.08802 75.95311 
L 162.109518 74.607672 
L 165.014494 73.532666 
L 168.101396 72.712809 
L 171.063772 72.201043 
L 173.365215 72.02111 
L 175.455989 72.091599 
L 177.053656 72.352473 
L 179.457435 73.079892 
L 180.819238 73.802312 
L 181.357738 74.231653 
L 181.954364 74.850469 
L 182.737103 76.630603 
L 182.7573 77.461455 
L 182.349793 79.008275 
L 181.474375 80.534357 
L 180.284044 81.875422 
L 178.762791 83.106787 
L 176.818107 84.38591 
L 174.131534 85.822218 
L 168.225983 88.699749 
L 166.024512 89.98333 
L 163.98732 91.419909 
L 162.117683 93.364422 
L 160.830115 95.255538 
L 158.99496 99.352498 
L 158.599005 100.567214 
L 158.0526 102.674909 
L 157.680118 105.075412 
L 157.610356 106.792421 
L 157.936834 110.719091 
L 158.358271 112.717628 
L 159.341951 115.681912 
L 160.809552 118.591617 
L 161.769303 120.094496 
L 165.507425 124.451134 
L 167.201517 126.110103 
L 174.624905 132.942546 
L 183.431745 140.58073 
L 184.341646 141.207094 
L 186.360109 142.265891 
L 187.917753 142.715059 
L 189.199325 142.889065 
L 190.109496 142.866048 
L 191.691425 142.552859 
L 193.056589 142.055834 
L 194.833447 140.918159 
L 196.567733 139.240076 
L 198.293103 137.048418 
L 200.717605 133.234167 
L 202.362287 130.21848 
L 203.967944 126.367938 
L 204.751395 123.700549 
L 205.706303 119.022888 
L 206.116344 114.131011 
L 206.181818 109.008455 
L 206.019348 105.884165 
L 205.644841 102.183446 
L 205.117337 98.647006 
L 204.211153 94.577436 
L 203.18208 90.993424 
L 202.078602 87.944636 
L 200.626555 84.683998 
L 198.17237 80.30507 
L 194.37239 75.128405 
L 190.781812 71.373848 
L 189.044876 69.823853 
L 186.99985 68.14933 
L 182.459533 64.881699 
L 178.160906 62.23616 
L 175.287849 60.661154 
L 171.493339 58.791888 
L 160.367509 53.730863 
L 152.910024 50.669728 
L 149.688127 49.532253 
L 143.395421 47.564938 
L 138.231745 46.211525 
L 131.71682 44.826735 
L 123.840278 43.644524 
L 120.661408 43.323074 
L 112.022238 42.76596 
L 105.915376 42.609344 
L 94.613916 42.726182 
L 77.065514 43.345428 
L 77.065514 43.345428 
" clip-path="url(#p74baafad22)" style="fill: none; stroke: #000000; stroke-width: 3; stroke-linecap: square"/>
   </g>
  </g>
 </g>
 <defs>
  <clipPath id="p74baafad22">
   <rect x="0" y="0" width="216" height="216"/>
  </clipPath>
 </defs>
</svg>
