<?xml version="1.0" encoding="utf-8" standalone="no"?>
<!DOCTYPE svg PUBLIC "-//W3C//DTD SVG 1.1//EN"
  "http://www.w3.org/Graphics/SVG/1.1/DTD/svg11.dtd">
<svg xmlns:xlink="http://www.w3.org/1999/xlink" width="216pt" height="216pt" viewBox="0 0 216 216" xmlns="http://www.w3.org/2000/svg" version="1.1">
 <metadata>
  <rdf:RDF xmlns:dc="http://purl.org/dc/elements/1.1/" xmlns:cc="http://creativecommons.org/ns#" xmlns:rdf="http://www.w3.org/1999/02/22-rdf-syntax-ns#">
   <cc:Work>
    <dc:type rdf:resource="http://purl.org/dc/dcmitype/StillImage"/>
    <dc:date>2025-06-19T13:34:53.670314</dc:date>
    <dc:format>image/svg+xml</dc:format>
    <dc:creator>
     <cc:Agent>
      <dc:title>Matplotlib v3.10.0, https://matplotlib.org/</dc:title>
     </cc:Agent>
    </dc:creator>
   </cc:Work>
  </rdf:RDF>
 </metadata>
 <defs>
  <style type="text/css">*{stroke-linejoin: round; stroke-linecap: butt}</style>
 </defs>
 <g id="figure_1">
  <g id="patch_1">
   <path d="M 0 216 
L 216 216 
L 216 0 
L 0 0 
L 0 216 
z
" style="fill: none"/>
  </g>
  <g id="axes_1">
   <g id="line2d_1">
    <path d="M 177.679806 112.434692 
L 180.230298 113.625728 
L 183.316754 115.36116 
L 188.08128 118.531259 
L 191.763386 121.03149 
L 194.092891 122.305486 
L 195.274236 122.74495 
L 196.066344 122.918494 
L 197.005896 122.969975 
L 198.442354 122.70787 
L 199.967737 122.056751 
L 202.733302 120.425992 
L 203.52263 120.338639 
L 204.61949 120.803933 
L 205.671866 121.929496 
L 206.091909 122.824968 
L 206.181818 123.698197 
L 205.844865 125.063758 
L 205.020781 126.724519 
L 203.189834 129.347477 
L 201.649741 130.957699 
L 198.936149 133.488683 
L 196.633723 135.224195 
L 194.213316 136.649349 
L 190.614433 138.450196 
L 184.314022 141.184761 
L 180.748323 142.59054 
L 179.108097 142.991928 
L 177.624285 143.099145 
L 176.585361 142.924076 
L 175.330832 142.24524 
L 173.935048 141.255461 
L 171.79765 140.307654 
L 170.620833 140.059267 
L 168.704599 140.137021 
L 162.910469 141.254098 
L 160.525714 141.813825 
L 158.887461 142.322387 
L 152.251445 145.067176 
L 150.283057 145.553496 
L 148.352742 145.635555 
L 145.904491 145.383264 
L 144.249289 145.080974 
L 142.645298 144.593662 
L 140.493818 143.65016 
L 136.221489 141.284188 
L 131.065258 138.318528 
L 129.958038 137.894894 
L 128.69907 137.579241 
L 127.895437 137.493904 
L 126.770504 137.59148 
L 125.787409 137.976726 
L 125.393955 138.250985 
L 124.60633 139.200043 
L 123.035786 142.397754 
L 121.791747 143.717305 
L 121.025558 144.182505 
L 120.046767 144.581831 
L 118.556542 144.945058 
L 116.737124 145.062499 
L 114.211025 144.757023 
L 111.73219 144.052176 
L 108.072953 142.684322 
L 101.885914 140.149288 
L 95.409952 137.248379 
L 91.209057 135.1916 
L 87.119417 132.969933 
L 83.196774 130.589432 
L 78.296104 127.276194 
L 74.771802 124.612241 
L 71.49176 121.865911 
L 63.771903 115.072667 
L 62.588855 113.771498 
L 61.974372 112.642932 
L 61.865719 111.960196 
L 62.462495 108.775352 
L 62.434516 107.475172 
L 62.230347 106.328938 
L 61.817299 105.154184 
L 61.22609 104.0262 
L 60.303939 102.722252 
L 59.184659 101.478572 
L 56.372644 98.827804 
L 50.893232 94.074833 
L 46.987495 91.0194 
L 42.684135 87.84688 
L 39.029026 85.384586 
L 36.693825 83.966061 
L 32.311765 81.51816 
L 29.778268 80.206452 
L 27.056251 78.983173 
L 25.002394 78.23308 
L 19.632439 76.733877 
L 13.924323 75.160997 
L 11.564771 74.342697 
L 10.989929 74.048839 
L 10.249974 73.46673 
L 9.818182 72.482469 
L 9.919932 71.581437 
L 10.437109 70.830541 
L 11.003836 70.518703 
L 11.91128 70.364445 
L 13.02294 70.424895 
L 14.33451 70.685973 
L 16.675092 71.517771 
L 20.312446 73.015491 
L 21.625405 73.407018 
L 23.497513 73.789263 
L 27.932851 74.296266 
L 52.587612 76.450882 
L 58.129945 77.204524 
L 63.344923 78.19682 
L 69.572861 79.656965 
L 81.372412 82.747121 
L 126.914252 94.851999 
L 128.800888 95.583931 
L 129.7773 96.209225 
L 130.372142 96.820302 
L 131.842453 99.111427 
L 132.436129 99.769051 
L 133.680523 100.666542 
L 135.346173 101.481433 
L 137.404917 102.222334 
L 141.306217 103.223641 
L 151.408236 105.470161 
L 174.560389 111.271323 
L 177.679806 112.434692 
L 177.679806 112.434692 
" clip-path="url(#pfe301275e4)" style="fill: none; stroke: #ffffff; stroke-width: 9; stroke-linecap: square"/>
   </g>
   <g id="line2d_2">
    <path d="M 177.679806 112.434692 
L 180.230298 113.625728 
L 183.316754 115.36116 
L 188.08128 118.531259 
L 191.763386 121.03149 
L 194.092891 122.305486 
L 195.274236 122.74495 
L 196.066344 122.918494 
L 197.005896 122.969975 
L 198.442354 122.70787 
L 199.967737 122.056751 
L 202.733302 120.425992 
L 203.52263 120.338639 
L 204.61949 120.803933 
L 205.671866 121.929496 
L 206.091909 122.824968 
L 206.181818 123.698197 
L 205.844865 125.063758 
L 205.020781 126.724519 
L 203.189834 129.347477 
L 201.649741 130.957699 
L 198.936149 133.488683 
L 196.633723 135.224195 
L 194.213316 136.649349 
L 190.614433 138.450196 
L 184.314022 141.184761 
L 180.748323 142.59054 
L 179.108097 142.991928 
L 177.624285 143.099145 
L 176.585361 142.924076 
L 175.330832 142.24524 
L 173.935048 141.255461 
L 171.79765 140.307654 
L 170.620833 140.059267 
L 168.704599 140.137021 
L 162.910469 141.254098 
L 160.525714 141.813825 
L 158.887461 142.322387 
L 152.251445 145.067176 
L 150.283057 145.553496 
L 148.352742 145.635555 
L 145.904491 145.383264 
L 144.249289 145.080974 
L 142.645298 144.593662 
L 140.493818 143.65016 
L 136.221489 141.284188 
L 131.065258 138.318528 
L 129.958038 137.894894 
L 128.69907 137.579241 
L 127.895437 137.493904 
L 126.770504 137.59148 
L 125.787409 137.976726 
L 125.393955 138.250985 
L 124.60633 139.200043 
L 123.035786 142.397754 
L 121.791747 143.717305 
L 121.025558 144.182505 
L 120.046767 144.581831 
L 118.556542 144.945058 
L 116.737124 145.062499 
L 114.211025 144.757023 
L 111.73219 144.052176 
L 108.072953 142.684322 
L 101.885914 140.149288 
L 95.409952 137.248379 
L 91.209057 135.1916 
L 87.119417 132.969933 
L 83.196774 130.589432 
L 78.296104 127.276194 
L 74.771802 124.612241 
L 71.49176 121.865911 
L 63.771903 115.072667 
L 62.588855 113.771498 
L 61.974372 112.642932 
L 61.865719 111.960196 
L 62.462495 108.775352 
L 62.434516 107.475172 
L 62.230347 106.328938 
L 61.817299 105.154184 
L 61.22609 104.0262 
L 60.303939 102.722252 
L 59.184659 101.478572 
L 56.372644 98.827804 
L 50.893232 94.074833 
L 46.987495 91.0194 
L 42.684135 87.84688 
L 39.029026 85.384586 
L 36.693825 83.966061 
L 32.311765 81.51816 
L 29.778268 80.206452 
L 27.056251 78.983173 
L 25.002394 78.23308 
L 19.632439 76.733877 
L 13.924323 75.160997 
L 11.564771 74.342697 
L 10.989929 74.048839 
L 10.249974 73.46673 
L 9.818182 72.482469 
L 9.919932 71.581437 
L 10.437109 70.830541 
L 11.003836 70.518703 
L 11.91128 70.364445 
L 13.02294 70.424895 
L 14.33451 70.685973 
L 16.675092 71.517771 
L 20.312446 73.015491 
L 21.625405 73.407018 
L 23.497513 73.789263 
L 27.932851 74.296266 
L 52.587612 76.450882 
L 58.129945 77.204524 
L 63.344923 78.19682 
L 69.572861 79.656965 
L 81.372412 82.747121 
L 126.914252 94.851999 
L 128.800888 95.583931 
L 129.7773 96.209225 
L 130.372142 96.820302 
L 131.842453 99.111427 
L 132.436129 99.769051 
L 133.680523 100.666542 
L 135.346173 101.481433 
L 137.404917 102.222334 
L 141.306217 103.223641 
L 151.408236 105.470161 
L 174.560389 111.271323 
L 177.679806 112.434692 
L 177.679806 112.434692 
" clip-path="url(#pfe301275e4)" style="fill: none; stroke: #000000; stroke-width: 3; stroke-linecap: square"/>
   </g>
  </g>
 </g>
 <defs>
  <clipPath id="pfe301275e4">
   <rect x="0" y="0" width="216" height="216"/>
  </clipPath>
 </defs>
</svg>
