<?xml version="1.0" encoding="utf-8" standalone="no"?>
<!DOCTYPE svg PUBLIC "-//W3C//DTD SVG 1.1//EN"
  "http://www.w3.org/Graphics/SVG/1.1/DTD/svg11.dtd">
<svg xmlns:xlink="http://www.w3.org/1999/xlink" width="216pt" height="216pt" viewBox="0 0 216 216" xmlns="http://www.w3.org/2000/svg" version="1.1">
 <metadata>
  <rdf:RDF xmlns:dc="http://purl.org/dc/elements/1.1/" xmlns:cc="http://creativecommons.org/ns#" xmlns:rdf="http://www.w3.org/1999/02/22-rdf-syntax-ns#">
   <cc:Work>
    <dc:type rdf:resource="http://purl.org/dc/dcmitype/StillImage"/>
    <dc:date>2025-06-30T23:40:48.890505</dc:date>
    <dc:format>image/svg+xml</dc:format>
    <dc:creator>
     <cc:Agent>
      <dc:title>Matplotlib v3.10.0, https://matplotlib.org/</dc:title>
     </cc:Agent>
    </dc:creator>
   </cc:Work>
  </rdf:RDF>
 </metadata>
 <defs>
  <style type="text/css">*{stroke-linejoin: round; stroke-linecap: butt}</style>
 </defs>
 <g id="figure_1">
  <g id="patch_1">
   <path d="M 0 216 
L 216 216 
L 216 0 
L 0 0 
L 0 216 
z
" style="fill: none"/>
  </g>
  <g id="axes_1">
   <g id="line2d_1">
    <path d="M 78.610714 118.168542 
L 81.386604 110.134472 
L 90.180904 84.79609 
L 98.612488 60.779054 
L 100.574844 55.931989 
L 102.471852 52.493231 
L 104.839301 49.501518 
L 106.190449 48.238231 
L 109.027991 46.34794 
L 112.801263 44.923782 
L 115.303554 44.584977 
L 118.194831 44.764161 
L 119.717711 45.116219 
L 121.723476 45.923402 
L 124.279502 47.654073 
L 125.692761 49.15569 
L 126.249814 49.959745 
L 127.383599 52.51831 
L 127.666038 54.099396 
L 127.676347 54.955307 
L 127.538765 56.175168 
L 126.99018 57.782726 
L 126.538276 58.533084 
L 125.200861 59.911441 
L 124.612569 60.272464 
L 123.104362 60.796843 
L 122.253458 60.881171 
L 121.330964 60.830549 
L 120.575746 60.658561 
L 118.978055 59.90408 
L 118.484014 59.547862 
L 115.708708 57.037877 
L 114.155141 56.188207 
L 113.019811 55.893215 
L 112.208669 55.86183 
L 111.202289 56.022111 
L 110.477114 56.294241 
L 109.844053 56.696959 
L 108.909558 57.700063 
L 108.427262 58.66068 
L 108.249622 59.288384 
L 108.132068 60.804324 
L 108.32854 62.081894 
L 109.034075 63.937742 
L 110.086605 65.55894 
L 111.778639 67.312364 
L 113.634083 68.623455 
L 115.224337 69.443874 
L 116.828821 70.078922 
L 119.008655 70.645307 
L 122.021297 70.991767 
L 124.017398 70.996534 
L 126.599361 70.780235 
L 132.153762 69.964305 
L 151.88137 66.693532 
L 157.180891 66.242839 
L 159.332468 66.171654 
L 164.800847 66.414456 
L 166.568741 66.607171 
L 172.245742 67.427754 
L 178.839235 68.825822 
L 191.172245 71.792751 
L 192.74247 72.317091 
L 194.167878 73.118918 
L 194.767123 73.6673 
L 195.656593 75.076453 
L 195.939529 76.357098 
L 195.892478 76.892687 
L 195.540273 78.06163 
L 194.926744 79.060869 
L 193.861016 80.102593 
L 193.424482 80.420633 
L 191.334923 81.540538 
L 189.56425 82.142158 
L 188.612653 82.408784 
L 185.968618 82.938612 
L 183.807175 83.215694 
L 179.430001 83.363073 
L 178.318417 83.331191 
L 173.559695 82.894641 
L 168.150166 82.070836 
L 159.594829 80.778709 
L 156.722789 80.488172 
L 153.581491 80.39431 
L 151.459165 80.502184 
L 145.305962 81.83154 
L 140.549707 84.333466 
L 138.845268 85.650394 
L 136.723182 87.828388 
L 135.523939 89.402627 
L 134.402582 91.292826 
L 133.087717 94.543488 
L 132.590989 96.69779 
L 132.326133 99.993423 
L 132.539357 102.661849 
L 132.869142 104.415218 
L 133.439726 106.342656 
L 135.417071 110.599015 
L 138.543626 115.619373 
L 140.525831 119.595816 
L 141.255554 122.776581 
L 141.331693 126.364427 
L 140.691583 129.257139 
L 140.164021 130.559893 
L 139.180045 132.238544 
L 138.170389 133.493602 
L 137.014479 134.565221 
L 135.663827 135.528067 
L 133.462272 136.575241 
L 131.64926 137.078597 
L 130.548335 137.248248 
L 128.425365 137.302628 
L 124.850957 136.785964 
L 123.113455 136.38299 
L 120.413698 136.045107 
L 118.337429 136.218275 
L 116.472211 136.829265 
L 115.319872 137.513979 
L 114.428213 138.314905 
L 113.872394 138.980088 
L 113.01965 140.620118 
L 112.738887 141.570077 
L 112.612755 143.398902 
L 112.784339 144.660311 
L 113.275252 146.465241 
L 114.162439 148.368288 
L 114.871397 149.483295 
L 116.070034 150.933995 
L 117.700989 152.400066 
L 120.144872 153.70407 
L 123.061976 154.660783 
L 124.485304 154.948191 
L 126.949914 155.239519 
L 131.322228 155.372056 
L 139.323438 155.41973 
L 151.645401 155.761068 
L 163.019486 156.336064 
L 181.063863 157.509785 
L 183.260209 157.396904 
L 185.179565 156.838764 
L 186.632198 155.800611 
L 187.46149 154.605343 
L 187.83665 153.292078 
L 187.896642 152.464129 
L 187.675632 150.516019 
L 187.531016 149.785192 
L 187.396469 147.840156 
L 187.554577 146.615932 
L 188.760318 144.214389 
L 189.512019 143.411033 
L 190.225247 142.83038 
L 191.431081 142.145022 
L 192.516984 141.753311 
L 193.781467 141.495264 
L 195.455957 141.450402 
L 196.680181 141.60851 
L 198.278369 142.062549 
L 199.660149 142.659124 
L 201.360613 143.745726 
L 202.950518 145.220523 
L 204.159169 146.819262 
L 205.132176 148.671888 
L 205.920107 151.218157 
L 206.181818 153.811919 
L 206.108388 155.232669 
L 205.149043 159.298044 
L 204.395851 161.002724 
L 202.938801 163.382602 
L 201.697863 164.912072 
L 200.469222 166.095687 
L 198.663445 167.541419 
L 196.158522 169.028495 
L 193.800202 170.044633 
L 190.932967 170.836429 
L 187.728455 171.303044 
L 180.881167 171.385516 
L 164.827682 171.150855 
L 94.92588 170.198409 
L 66.826777 170.014174 
L 34.50662 169.95486 
L 14.915213 170.182598 
L 12.701913 169.912936 
L 11.891912 169.634604 
L 10.717813 168.854443 
L 10.074297 168.047314 
L 9.892496 167.64618 
L 9.818182 166.943315 
L 9.9808 166.093553 
L 10.277872 165.472641 
L 10.844203 164.655056 
L 11.535617 163.971778 
L 13.64005 162.719996 
L 14.610883 162.342018 
L 17.777271 161.44373 
L 19.567328 161.084694 
L 21.514794 160.810189 
L 26.445505 160.491521 
L 30.482476 160.45936 
L 39.084072 160.808469 
L 47.37779 161.223019 
L 52.464768 161.235828 
L 55.525751 161.153689 
L 57.300934 160.92653 
L 60.798155 159.81848 
L 62.786082 158.119506 
L 63.491081 157.197361 
L 64.594343 155.171567 
L 66.068255 151.458048 
L 73.885557 131.111253 
L 78.610714 118.168542 
L 78.610714 118.168542 
" clip-path="url(#p517075199c)" style="fill: none; stroke: #ffffff; stroke-width: 9; stroke-linecap: square"/>
   </g>
   <g id="line2d_2">
    <path d="M 78.610714 118.168542 
L 81.386604 110.134472 
L 90.180904 84.79609 
L 98.612488 60.779054 
L 100.574844 55.931989 
L 102.471852 52.493231 
L 104.839301 49.501518 
L 106.190449 48.238231 
L 109.027991 46.34794 
L 112.801263 44.923782 
L 115.303554 44.584977 
L 118.194831 44.764161 
L 119.717711 45.116219 
L 121.723476 45.923402 
L 124.279502 47.654073 
L 125.692761 49.15569 
L 126.249814 49.959745 
L 127.383599 52.51831 
L 127.666038 54.099396 
L 127.676347 54.955307 
L 127.538765 56.175168 
L 126.99018 57.782726 
L 126.538276 58.533084 
L 125.200861 59.911441 
L 124.612569 60.272464 
L 123.104362 60.796843 
L 122.253458 60.881171 
L 121.330964 60.830549 
L 120.575746 60.658561 
L 118.978055 59.90408 
L 118.484014 59.547862 
L 115.708708 57.037877 
L 114.155141 56.188207 
L 113.019811 55.893215 
L 112.208669 55.86183 
L 111.202289 56.022111 
L 110.477114 56.294241 
L 109.844053 56.696959 
L 108.909558 57.700063 
L 108.427262 58.66068 
L 108.249622 59.288384 
L 108.132068 60.804324 
L 108.32854 62.081894 
L 109.034075 63.937742 
L 110.086605 65.55894 
L 111.778639 67.312364 
L 113.634083 68.623455 
L 115.224337 69.443874 
L 116.828821 70.078922 
L 119.008655 70.645307 
L 122.021297 70.991767 
L 124.017398 70.996534 
L 126.599361 70.780235 
L 132.153762 69.964305 
L 151.88137 66.693532 
L 157.180891 66.242839 
L 159.332468 66.171654 
L 164.800847 66.414456 
L 166.568741 66.607171 
L 172.245742 67.427754 
L 178.839235 68.825822 
L 191.172245 71.792751 
L 192.74247 72.317091 
L 194.167878 73.118918 
L 194.767123 73.6673 
L 195.656593 75.076453 
L 195.939529 76.357098 
L 195.892478 76.892687 
L 195.540273 78.06163 
L 194.926744 79.060869 
L 193.861016 80.102593 
L 193.424482 80.420633 
L 191.334923 81.540538 
L 189.56425 82.142158 
L 188.612653 82.408784 
L 185.968618 82.938612 
L 183.807175 83.215694 
L 179.430001 83.363073 
L 178.318417 83.331191 
L 173.559695 82.894641 
L 168.150166 82.070836 
L 159.594829 80.778709 
L 156.722789 80.488172 
L 153.581491 80.39431 
L 151.459165 80.502184 
L 145.305962 81.83154 
L 140.549707 84.333466 
L 138.845268 85.650394 
L 136.723182 87.828388 
L 135.523939 89.402627 
L 134.402582 91.292826 
L 133.087717 94.543488 
L 132.590989 96.69779 
L 132.326133 99.993423 
L 132.539357 102.661849 
L 132.869142 104.415218 
L 133.439726 106.342656 
L 135.417071 110.599015 
L 138.543626 115.619373 
L 140.525831 119.595816 
L 141.255554 122.776581 
L 141.331693 126.364427 
L 140.691583 129.257139 
L 140.164021 130.559893 
L 139.180045 132.238544 
L 138.170389 133.493602 
L 137.014479 134.565221 
L 135.663827 135.528067 
L 133.462272 136.575241 
L 131.64926 137.078597 
L 130.548335 137.248248 
L 128.425365 137.302628 
L 124.850957 136.785964 
L 123.113455 136.38299 
L 120.413698 136.045107 
L 118.337429 136.218275 
L 116.472211 136.829265 
L 115.319872 137.513979 
L 114.428213 138.314905 
L 113.872394 138.980088 
L 113.01965 140.620118 
L 112.738887 141.570077 
L 112.612755 143.398902 
L 112.784339 144.660311 
L 113.275252 146.465241 
L 114.162439 148.368288 
L 114.871397 149.483295 
L 116.070034 150.933995 
L 117.700989 152.400066 
L 120.144872 153.70407 
L 123.061976 154.660783 
L 124.485304 154.948191 
L 126.949914 155.239519 
L 131.322228 155.372056 
L 139.323438 155.41973 
L 151.645401 155.761068 
L 163.019486 156.336064 
L 181.063863 157.509785 
L 183.260209 157.396904 
L 185.179565 156.838764 
L 186.632198 155.800611 
L 187.46149 154.605343 
L 187.83665 153.292078 
L 187.896642 152.464129 
L 187.675632 150.516019 
L 187.531016 149.785192 
L 187.396469 147.840156 
L 187.554577 146.615932 
L 188.760318 144.214389 
L 189.512019 143.411033 
L 190.225247 142.83038 
L 191.431081 142.145022 
L 192.516984 141.753311 
L 193.781467 141.495264 
L 195.455957 141.450402 
L 196.680181 141.60851 
L 198.278369 142.062549 
L 199.660149 142.659124 
L 201.360613 143.745726 
L 202.950518 145.220523 
L 204.159169 146.819262 
L 205.132176 148.671888 
L 205.920107 151.218157 
L 206.181818 153.811919 
L 206.108388 155.232669 
L 205.149043 159.298044 
L 204.395851 161.002724 
L 202.938801 163.382602 
L 201.697863 164.912072 
L 200.469222 166.095687 
L 198.663445 167.541419 
L 196.158522 169.028495 
L 193.800202 170.044633 
L 190.932967 170.836429 
L 187.728455 171.303044 
L 180.881167 171.385516 
L 164.827682 171.150855 
L 94.92588 170.198409 
L 66.826777 170.014174 
L 34.50662 169.95486 
L 14.915213 170.182598 
L 12.701913 169.912936 
L 11.891912 169.634604 
L 10.717813 168.854443 
L 10.074297 168.047314 
L 9.892496 167.64618 
L 9.818182 166.943315 
L 9.9808 166.093553 
L 10.277872 165.472641 
L 10.844203 164.655056 
L 11.535617 163.971778 
L 13.64005 162.719996 
L 14.610883 162.342018 
L 17.777271 161.44373 
L 19.567328 161.084694 
L 21.514794 160.810189 
L 26.445505 160.491521 
L 30.482476 160.45936 
L 39.084072 160.808469 
L 47.37779 161.223019 
L 52.464768 161.235828 
L 55.525751 161.153689 
L 57.300934 160.92653 
L 60.798155 159.81848 
L 62.786082 158.119506 
L 63.491081 157.197361 
L 64.594343 155.171567 
L 66.068255 151.458048 
L 73.885557 131.111253 
L 78.610714 118.168542 
L 78.610714 118.168542 
" clip-path="url(#p517075199c)" style="fill: none; stroke: #000000; stroke-width: 3; stroke-linecap: square"/>
   </g>
  </g>
 </g>
 <defs>
  <clipPath id="p517075199c">
   <rect x="0" y="0" width="216" height="216"/>
  </clipPath>
 </defs>
</svg>
