<?xml version="1.0" encoding="utf-8" standalone="no"?>
<!DOCTYPE svg PUBLIC "-//W3C//DTD SVG 1.1//EN"
  "http://www.w3.org/Graphics/SVG/1.1/DTD/svg11.dtd">
<svg xmlns:xlink="http://www.w3.org/1999/xlink" width="216pt" height="216pt" viewBox="0 0 216 216" xmlns="http://www.w3.org/2000/svg" version="1.1">
 <metadata>
  <rdf:RDF xmlns:dc="http://purl.org/dc/elements/1.1/" xmlns:cc="http://creativecommons.org/ns#" xmlns:rdf="http://www.w3.org/1999/02/22-rdf-syntax-ns#">
   <cc:Work>
    <dc:type rdf:resource="http://purl.org/dc/dcmitype/StillImage"/>
    <dc:date>2025-05-31T19:13:59.555559</dc:date>
    <dc:format>image/svg+xml</dc:format>
    <dc:creator>
     <cc:Agent>
      <dc:title>Matplotlib v3.10.0, https://matplotlib.org/</dc:title>
     </cc:Agent>
    </dc:creator>
   </cc:Work>
  </rdf:RDF>
 </metadata>
 <defs>
  <style type="text/css">*{stroke-linejoin: round; stroke-linecap: butt}</style>
 </defs>
 <g id="figure_1">
  <g id="patch_1">
   <path d="M 0 216 
L 216 216 
L 216 0 
L 0 0 
L 0 216 
z
" style="fill: none"/>
  </g>
  <g id="axes_1">
   <g id="line2d_1">
    <path d="M 138.74863 204.166208 
L 119.356096 204.392505 
L 73.318187 204.913715 
L 46.460092 205.835776 
L 34.577277 206.173781 
L 29.557981 206.136454 
L 26.176595 205.912372 
L 17.979711 203.157513 
L 16.191354 200.963327 
L 15.977374 200.456701 
L 15.731162 198.842291 
L 16.097495 196.951417 
L 16.7143 195.642114 
L 18.234877 193.680022 
L 20.141748 191.895228 
L 23.103349 189.700454 
L 26.399263 187.621031 
L 31.241583 185.088543 
L 35.372032 183.311734 
L 38.748596 182.114727 
L 41.841409 181.208599 
L 44.083851 180.672929 
L 49.020004 179.856321 
L 55.047033 179.364755 
L 57.868204 179.267171 
L 65.418864 179.23896 
L 88.915882 179.500911 
L 94.021509 179.043535 
L 96.300444 178.582808 
L 99.224855 177.633246 
L 102.293446 175.691786 
L 104.32901 172.928089 
L 104.859832 171.453411 
L 105.077885 170.109222 
L 105.036033 168.45529 
L 104.806379 167.143683 
L 103.510046 164.246334 
L 102.324452 162.707591 
L 100.945538 161.410237 
L 99.300315 160.204386 
L 97.536715 159.203431 
L 95.30191 158.1756 
L 93.401953 157.421019 
L 87.58869 155.305205 
L 83.938129 153.565155 
L 82.277954 152.530197 
L 80.066997 150.901746 
L 77.65452 148.624257 
L 75.116887 145.316955 
L 72.698141 139.666626 
L 72.185969 137.483641 
L 70.900274 130.856178 
L 70.050013 125.156522 
L 67.37359 111.461901 
L 62.229391 85.29633 
L 61.282644 79.38733 
L 60.987104 76.204435 
L 60.4453 66.81507 
L 60.303747 64.004401 
L 59.326026 58.121392 
L 58.700996 56.244236 
L 57.522155 53.644171 
L 53.980862 49.014945 
L 50.39651 46.190075 
L 49.174609 45.394364 
L 42.133204 41.40603 
L 39.630483 39.996006 
L 34.278618 36.542942 
L 31.085543 33.838405 
L 29.362697 31.879553 
L 27.809138 29.461957 
L 26.402064 25.206003 
L 26.260162 23.055413 
L 26.76462 19.913808 
L 28.127111 17.134276 
L 29.983421 14.943253 
L 33.490099 12.423063 
L 37.866921 10.782611 
L 40.908825 10.130332 
L 43.933821 9.835328 
L 48.986582 9.818182 
L 51.459026 9.934041 
L 60.467992 10.951827 
L 76.755092 13.252124 
L 78.197724 13.493139 
L 81.524289 14.343833 
L 82.934526 14.955118 
L 85.165954 16.51361 
L 85.961155 17.429841 
L 86.375046 18.11181 
L 86.807988 19.068098 
L 88.004298 23.764818 
L 89.177084 26.10605 
L 91.110881 28.442112 
L 93.084548 30.322456 
L 96.058124 32.419433 
L 101.781331 36.220688 
L 106.867423 39.923153 
L 108.470633 40.953127 
L 110.726444 42.068896 
L 115.236808 43.16666 
L 117.297504 43.232146 
L 121.200281 42.253379 
L 125.183683 39.860998 
L 128.933171 37.18985 
L 132.338567 35.335257 
L 134.311672 34.761672 
L 136.81651 34.507261 
L 138.804754 34.580759 
L 141.06839 34.951004 
L 142.988817 35.635625 
L 144.46955 36.425281 
L 145.725452 37.324418 
L 147.590174 39.13783 
L 149.350585 41.487422 
L 150.33983 43.138139 
L 151.869542 46.156356 
L 155.239082 53.568839 
L 156.533809 55.992491 
L 157.61402 57.751618 
L 159.75432 60.679753 
L 161.089801 62.145509 
L 163.921153 65.048002 
L 166.95775 67.408796 
L 169.54147 69.041159 
L 172.525899 70.522027 
L 178.037244 72.152222 
L 184.32206 73.634833 
L 189.669638 75.824707 
L 191.890027 77.18133 
L 194.023549 78.874757 
L 197.941168 83.79521 
L 199.861647 89.071892 
L 200.247082 92.047399 
L 200.268838 95.407243 
L 199.768692 102.108068 
L 198.989992 112.156813 
L 197.446149 134.72372 
L 197.016713 144.716921 
L 196.956475 154.426719 
L 196.464851 159.061864 
L 196.040483 160.631956 
L 195.362265 162.151139 
L 194.460636 163.435523 
L 192.976365 164.654583 
L 191.570415 165.306488 
L 190.512656 165.58705 
L 187.52611 165.770617 
L 185.573824 165.614164 
L 170.408923 162.952841 
L 161.86315 161.889479 
L 157.71826 161.69905 
L 155.785024 161.816917 
L 152.828568 162.476672 
L 151.096852 163.243578 
L 148.822203 164.967495 
L 147.796142 166.197942 
L 146.993491 167.663188 
L 146.433838 169.795451 
L 146.431185 171.301987 
L 147.159292 173.805218 
L 147.729662 174.830931 
L 149.20809 176.467045 
L 151.736801 177.908043 
L 154.814501 178.650863 
L 157.525307 178.830627 
L 160.877139 178.73642 
L 171.536635 177.946984 
L 175.822865 177.834074 
L 179.463085 178.052101 
L 181.638781 178.443352 
L 185.672073 180.073385 
L 187.509196 181.382127 
L 190.193689 184.487024 
L 191.243462 186.43004 
L 192.066635 189.486894 
L 192.162424 191.016393 
L 191.817285 193.813182 
L 191.533185 194.764138 
L 191.004319 196.052435 
L 189.967405 197.89899 
L 188.609175 199.645683 
L 187.257349 200.991131 
L 186.010368 201.958298 
L 183.716133 203.249996 
L 179.984785 204.401613 
L 174.918144 204.905451 
L 169.062894 204.90979 
L 161.021979 204.636806 
L 153.058499 204.298846 
L 145.338901 204.125725 
L 138.74863 204.166208 
L 138.74863 204.166208 
" clip-path="url(#pe7b6462f66)" style="fill: none; stroke: #fb2c36; stroke-width: 9; stroke-linecap: square"/>
   </g>
   <g id="line2d_2">
    <path d="M 138.74863 204.166208 
L 119.356096 204.392505 
L 73.318187 204.913715 
L 46.460092 205.835776 
L 34.577277 206.173781 
L 29.557981 206.136454 
L 26.176595 205.912372 
L 17.979711 203.157513 
L 16.191354 200.963327 
L 15.977374 200.456701 
L 15.731162 198.842291 
L 16.097495 196.951417 
L 16.7143 195.642114 
L 18.234877 193.680022 
L 20.141748 191.895228 
L 23.103349 189.700454 
L 26.399263 187.621031 
L 31.241583 185.088543 
L 35.372032 183.311734 
L 38.748596 182.114727 
L 41.841409 181.208599 
L 44.083851 180.672929 
L 49.020004 179.856321 
L 55.047033 179.364755 
L 57.868204 179.267171 
L 65.418864 179.23896 
L 88.915882 179.500911 
L 94.021509 179.043535 
L 96.300444 178.582808 
L 99.224855 177.633246 
L 102.293446 175.691786 
L 104.32901 172.928089 
L 104.859832 171.453411 
L 105.077885 170.109222 
L 105.036033 168.45529 
L 104.806379 167.143683 
L 103.510046 164.246334 
L 102.324452 162.707591 
L 100.945538 161.410237 
L 99.300315 160.204386 
L 97.536715 159.203431 
L 95.30191 158.1756 
L 93.401953 157.421019 
L 87.58869 155.305205 
L 83.938129 153.565155 
L 82.277954 152.530197 
L 80.066997 150.901746 
L 77.65452 148.624257 
L 75.116887 145.316955 
L 72.698141 139.666626 
L 72.185969 137.483641 
L 70.900274 130.856178 
L 70.050013 125.156522 
L 67.37359 111.461901 
L 62.229391 85.29633 
L 61.282644 79.38733 
L 60.987104 76.204435 
L 60.4453 66.81507 
L 60.303747 64.004401 
L 59.326026 58.121392 
L 58.700996 56.244236 
L 57.522155 53.644171 
L 53.980862 49.014945 
L 50.39651 46.190075 
L 49.174609 45.394364 
L 42.133204 41.40603 
L 39.630483 39.996006 
L 34.278618 36.542942 
L 31.085543 33.838405 
L 29.362697 31.879553 
L 27.809138 29.461957 
L 26.402064 25.206003 
L 26.260162 23.055413 
L 26.76462 19.913808 
L 28.127111 17.134276 
L 29.983421 14.943253 
L 33.490099 12.423063 
L 37.866921 10.782611 
L 40.908825 10.130332 
L 43.933821 9.835328 
L 48.986582 9.818182 
L 51.459026 9.934041 
L 60.467992 10.951827 
L 76.755092 13.252124 
L 78.197724 13.493139 
L 81.524289 14.343833 
L 82.934526 14.955118 
L 85.165954 16.51361 
L 85.961155 17.429841 
L 86.375046 18.11181 
L 86.807988 19.068098 
L 88.004298 23.764818 
L 89.177084 26.10605 
L 91.110881 28.442112 
L 93.084548 30.322456 
L 96.058124 32.419433 
L 101.781331 36.220688 
L 106.867423 39.923153 
L 108.470633 40.953127 
L 110.726444 42.068896 
L 115.236808 43.16666 
L 117.297504 43.232146 
L 121.200281 42.253379 
L 125.183683 39.860998 
L 128.933171 37.18985 
L 132.338567 35.335257 
L 134.311672 34.761672 
L 136.81651 34.507261 
L 138.804754 34.580759 
L 141.06839 34.951004 
L 142.988817 35.635625 
L 144.46955 36.425281 
L 145.725452 37.324418 
L 147.590174 39.13783 
L 149.350585 41.487422 
L 150.33983 43.138139 
L 151.869542 46.156356 
L 155.239082 53.568839 
L 156.533809 55.992491 
L 157.61402 57.751618 
L 159.75432 60.679753 
L 161.089801 62.145509 
L 163.921153 65.048002 
L 166.95775 67.408796 
L 169.54147 69.041159 
L 172.525899 70.522027 
L 178.037244 72.152222 
L 184.32206 73.634833 
L 189.669638 75.824707 
L 191.890027 77.18133 
L 194.023549 78.874757 
L 197.941168 83.79521 
L 199.861647 89.071892 
L 200.247082 92.047399 
L 200.268838 95.407243 
L 199.768692 102.108068 
L 198.989992 112.156813 
L 197.446149 134.72372 
L 197.016713 144.716921 
L 196.956475 154.426719 
L 196.464851 159.061864 
L 196.040483 160.631956 
L 195.362265 162.151139 
L 194.460636 163.435523 
L 192.976365 164.654583 
L 191.570415 165.306488 
L 190.512656 165.58705 
L 187.52611 165.770617 
L 185.573824 165.614164 
L 170.408923 162.952841 
L 161.86315 161.889479 
L 157.71826 161.69905 
L 155.785024 161.816917 
L 152.828568 162.476672 
L 151.096852 163.243578 
L 148.822203 164.967495 
L 147.796142 166.197942 
L 146.993491 167.663188 
L 146.433838 169.795451 
L 146.431185 171.301987 
L 147.159292 173.805218 
L 147.729662 174.830931 
L 149.20809 176.467045 
L 151.736801 177.908043 
L 154.814501 178.650863 
L 157.525307 178.830627 
L 160.877139 178.73642 
L 171.536635 177.946984 
L 175.822865 177.834074 
L 179.463085 178.052101 
L 181.638781 178.443352 
L 185.672073 180.073385 
L 187.509196 181.382127 
L 190.193689 184.487024 
L 191.243462 186.43004 
L 192.066635 189.486894 
L 192.162424 191.016393 
L 191.817285 193.813182 
L 191.533185 194.764138 
L 191.004319 196.052435 
L 189.967405 197.89899 
L 188.609175 199.645683 
L 187.257349 200.991131 
L 186.010368 201.958298 
L 183.716133 203.249996 
L 179.984785 204.401613 
L 174.918144 204.905451 
L 169.062894 204.90979 
L 161.021979 204.636806 
L 153.058499 204.298846 
L 145.338901 204.125725 
L 138.74863 204.166208 
L 138.74863 204.166208 
" clip-path="url(#pe7b6462f66)" style="fill: none; stroke: #000000; stroke-width: 3; stroke-linecap: square"/>
   </g>
  </g>
 </g>
 <defs>
  <clipPath id="pe7b6462f66">
   <rect x="0" y="0" width="216" height="216"/>
  </clipPath>
 </defs>
</svg>
