<?xml version="1.0" encoding="utf-8" standalone="no"?>
<!DOCTYPE svg PUBLIC "-//W3C//DTD SVG 1.1//EN"
  "http://www.w3.org/Graphics/SVG/1.1/DTD/svg11.dtd">
<svg xmlns:xlink="http://www.w3.org/1999/xlink" width="216pt" height="216pt" viewBox="0 0 216 216" xmlns="http://www.w3.org/2000/svg" version="1.1">
 <metadata>
  <rdf:RDF xmlns:dc="http://purl.org/dc/elements/1.1/" xmlns:cc="http://creativecommons.org/ns#" xmlns:rdf="http://www.w3.org/1999/02/22-rdf-syntax-ns#">
   <cc:Work>
    <dc:type rdf:resource="http://purl.org/dc/dcmitype/StillImage"/>
    <dc:date>2025-06-30T23:40:56.978811</dc:date>
    <dc:format>image/svg+xml</dc:format>
    <dc:creator>
     <cc:Agent>
      <dc:title>Matplotlib v3.10.0, https://matplotlib.org/</dc:title>
     </cc:Agent>
    </dc:creator>
   </cc:Work>
  </rdf:RDF>
 </metadata>
 <defs>
  <style type="text/css">*{stroke-linejoin: round; stroke-linecap: butt}</style>
 </defs>
 <g id="figure_1">
  <g id="patch_1">
   <path d="M 0 216 
L 216 216 
L 216 0 
L 0 0 
L 0 216 
z
" style="fill: none"/>
  </g>
  <g id="axes_1">
   <g id="line2d_1">
    <path d="M 152.64979 67.238223 
L 140.188627 67.856401 
L 133.648956 68.06246 
L 130.373698 67.954008 
L 128.041975 67.661187 
L 115.808562 64.863119 
L 110.722151 63.746061 
L 109.138749 63.485776 
L 105.11517 63.106193 
L 103.282327 63.041121 
L 96.352229 63.051967 
L 93.304721 63.182109 
L 85.159957 63.973811 
L 74.032757 65.502987 
L 70.453832 66.207927 
L 61.365534 69.027685 
L 60.519607 69.418114 
L 59.597763 70.22066 
L 58.881978 71.706456 
L 58.187883 74.049024 
L 57.266039 75.654118 
L 56.192362 76.695259 
L 53.860639 78.224436 
L 47.906611 81.770824 
L 46.18222 83.148168 
L 45.260376 84.189309 
L 44.349377 85.653415 
L 42.831045 89.286565 
L 32.072583 117.787815 
L 29.914383 122.917606 
L 28.927468 126.030186 
L 28.970848 129.511503 
L 30.163823 134.793127 
L 30.304811 136.87541 
L 29.936073 138.05754 
L 29.231134 139.03361 
L 27.268148 140.790537 
L 18.613659 148.241206 
L 14.047819 152.731129 
L 11.813703 154.878483 
L 10.609883 156.353434 
L 10.002551 157.578944 
L 9.818182 159.075585 
L 10.078467 160.084191 
L 10.425514 160.669833 
L 11.466656 161.624213 
L 12.3885 162.090558 
L 13.028368 162.274926 
L 15.338401 162.405069 
L 18.147314 162.036332 
L 23.851902 160.897583 
L 30.998905 159.628692 
L 41.562154 158.099515 
L 47.874075 157.416266 
L 52.884569 157.242742 
L 57.51548 157.459647 
L 60.844963 157.817539 
L 69.336774 158.771919 
L 71.52751 158.902062 
L 74.097828 158.641776 
L 76.288563 157.622325 
L 78.012954 155.865399 
L 79.628892 152.893807 
L 81.006236 149.835454 
L 81.689485 147.70979 
L 82.134139 145.150317 
L 82.253437 143.12226 
L 82.166675 141.061667 
L 81.971461 139.174598 
L 81.049617 134.012271 
L 78.219013 121.605334 
L 77.79605 119.241075 
L 77.709288 118.124017 
L 77.915347 116.334555 
L 78.826346 113.861844 
L 80.876093 110.228694 
L 81.646104 109.165862 
L 82.372734 108.385005 
L 83.142745 107.821054 
L 84.021208 107.495697 
L 85.214183 107.452316 
L 87.795347 108.070494 
L 89.910165 108.515148 
L 93.044435 108.710362 
L 106.926323 108.60191 
L 113.997409 108.525993 
L 118.40057 108.244018 
L 129.018045 107.333019 
L 135.384192 106.866674 
L 137.086892 107.094424 
L 137.748451 107.539078 
L 139.787353 109.534599 
L 140.687507 109.935873 
L 141.262304 110.022634 
L 142.119077 109.914182 
L 143.962765 109.35023 
L 145.622084 108.656136 
L 149.168473 106.844984 
L 154.873061 103.916773 
L 160.132995 101.433217 
L 162.779229 99.860659 
L 166.531677 97.225269 
L 169.275519 95.110451 
L 172.171194 92.550978 
L 175.728428 88.852756 
L 185.651808 77.888234 
L 187.777472 75.78426 
L 189.707922 74.276774 
L 191.226253 73.35493 
L 192.516835 72.715062 
L 203.470512 68.214294 
L 204.858701 67.357521 
L 205.585331 66.544129 
L 206.04083 65.524678 
L 206.170973 64.017192 
L 205.748009 62.054206 
L 204.902082 59.603185 
L 204.283904 58.16077 
L 203.492202 56.664129 
L 202.418525 55.25425 
L 201.344848 54.408323 
L 200.379623 53.952823 
L 198.633542 53.594931 
L 197.397186 53.57324 
L 195.86801 53.80099 
L 194.143619 54.397477 
L 179.47003 61.02391 
L 169.969613 64.960726 
L 166.878724 65.980177 
L 165.110953 66.392296 
L 162.291194 66.771879 
L 152.64979 67.238223 
L 152.64979 67.238223 
" clip-path="url(#p61e6e09956)" style="fill: none; stroke: #ffffff; stroke-width: 9; stroke-linecap: square"/>
   </g>
   <g id="line2d_2">
    <path d="M 152.64979 67.238223 
L 140.188627 67.856401 
L 133.648956 68.06246 
L 130.373698 67.954008 
L 128.041975 67.661187 
L 115.808562 64.863119 
L 110.722151 63.746061 
L 109.138749 63.485776 
L 105.11517 63.106193 
L 103.282327 63.041121 
L 96.352229 63.051967 
L 93.304721 63.182109 
L 85.159957 63.973811 
L 74.032757 65.502987 
L 70.453832 66.207927 
L 61.365534 69.027685 
L 60.519607 69.418114 
L 59.597763 70.22066 
L 58.881978 71.706456 
L 58.187883 74.049024 
L 57.266039 75.654118 
L 56.192362 76.695259 
L 53.860639 78.224436 
L 47.906611 81.770824 
L 46.18222 83.148168 
L 45.260376 84.189309 
L 44.349377 85.653415 
L 42.831045 89.286565 
L 32.072583 117.787815 
L 29.914383 122.917606 
L 28.927468 126.030186 
L 28.970848 129.511503 
L 30.163823 134.793127 
L 30.304811 136.87541 
L 29.936073 138.05754 
L 29.231134 139.03361 
L 27.268148 140.790537 
L 18.613659 148.241206 
L 14.047819 152.731129 
L 11.813703 154.878483 
L 10.609883 156.353434 
L 10.002551 157.578944 
L 9.818182 159.075585 
L 10.078467 160.084191 
L 10.425514 160.669833 
L 11.466656 161.624213 
L 12.3885 162.090558 
L 13.028368 162.274926 
L 15.338401 162.405069 
L 18.147314 162.036332 
L 23.851902 160.897583 
L 30.998905 159.628692 
L 41.562154 158.099515 
L 47.874075 157.416266 
L 52.884569 157.242742 
L 57.51548 157.459647 
L 60.844963 157.817539 
L 69.336774 158.771919 
L 71.52751 158.902062 
L 74.097828 158.641776 
L 76.288563 157.622325 
L 78.012954 155.865399 
L 79.628892 152.893807 
L 81.006236 149.835454 
L 81.689485 147.70979 
L 82.134139 145.150317 
L 82.253437 143.12226 
L 82.166675 141.061667 
L 81.971461 139.174598 
L 81.049617 134.012271 
L 78.219013 121.605334 
L 77.79605 119.241075 
L 77.709288 118.124017 
L 77.915347 116.334555 
L 78.826346 113.861844 
L 80.876093 110.228694 
L 81.646104 109.165862 
L 82.372734 108.385005 
L 83.142745 107.821054 
L 84.021208 107.495697 
L 85.214183 107.452316 
L 87.795347 108.070494 
L 89.910165 108.515148 
L 93.044435 108.710362 
L 106.926323 108.60191 
L 113.997409 108.525993 
L 118.40057 108.244018 
L 129.018045 107.333019 
L 135.384192 106.866674 
L 137.086892 107.094424 
L 137.748451 107.539078 
L 139.787353 109.534599 
L 140.687507 109.935873 
L 141.262304 110.022634 
L 142.119077 109.914182 
L 143.962765 109.35023 
L 145.622084 108.656136 
L 149.168473 106.844984 
L 154.873061 103.916773 
L 160.132995 101.433217 
L 162.779229 99.860659 
L 166.531677 97.225269 
L 169.275519 95.110451 
L 172.171194 92.550978 
L 175.728428 88.852756 
L 185.651808 77.888234 
L 187.777472 75.78426 
L 189.707922 74.276774 
L 191.226253 73.35493 
L 192.516835 72.715062 
L 203.470512 68.214294 
L 204.858701 67.357521 
L 205.585331 66.544129 
L 206.04083 65.524678 
L 206.170973 64.017192 
L 205.748009 62.054206 
L 204.902082 59.603185 
L 204.283904 58.16077 
L 203.492202 56.664129 
L 202.418525 55.25425 
L 201.344848 54.408323 
L 200.379623 53.952823 
L 198.633542 53.594931 
L 197.397186 53.57324 
L 195.86801 53.80099 
L 194.143619 54.397477 
L 179.47003 61.02391 
L 169.969613 64.960726 
L 166.878724 65.980177 
L 165.110953 66.392296 
L 162.291194 66.771879 
L 152.64979 67.238223 
L 152.64979 67.238223 
" clip-path="url(#p61e6e09956)" style="fill: none; stroke: #000000; stroke-width: 3; stroke-linecap: square"/>
   </g>
  </g>
 </g>
 <defs>
  <clipPath id="p61e6e09956">
   <rect x="0" y="0" width="216" height="216"/>
  </clipPath>
 </defs>
</svg>
