<?xml version="1.0" encoding="utf-8" standalone="no"?>
<!DOCTYPE svg PUBLIC "-//W3C//DTD SVG 1.1//EN"
  "http://www.w3.org/Graphics/SVG/1.1/DTD/svg11.dtd">
<svg xmlns:xlink="http://www.w3.org/1999/xlink" width="216pt" height="216pt" viewBox="0 0 216 216" xmlns="http://www.w3.org/2000/svg" version="1.1">
 <metadata>
  <rdf:RDF xmlns:dc="http://purl.org/dc/elements/1.1/" xmlns:cc="http://creativecommons.org/ns#" xmlns:rdf="http://www.w3.org/1999/02/22-rdf-syntax-ns#">
   <cc:Work>
    <dc:type rdf:resource="http://purl.org/dc/dcmitype/StillImage"/>
    <dc:date>2025-06-19T13:35:03.887924</dc:date>
    <dc:format>image/svg+xml</dc:format>
    <dc:creator>
     <cc:Agent>
      <dc:title>Matplotlib v3.10.0, https://matplotlib.org/</dc:title>
     </cc:Agent>
    </dc:creator>
   </cc:Work>
  </rdf:RDF>
 </metadata>
 <defs>
  <style type="text/css">*{stroke-linejoin: round; stroke-linecap: butt}</style>
 </defs>
 <g id="figure_1">
  <g id="patch_1">
   <path d="M 0 216 
L 216 216 
L 216 0 
L 0 0 
L 0 216 
z
" style="fill: none"/>
  </g>
  <g id="axes_1">
   <g id="line2d_1">
    <path d="M 62.56311 146.486247 
L 74.839015 146.306255 
L 81.277397 146.328197 
L 84.494657 146.547331 
L 86.777687 146.915376 
L 98.712295 150.0872 
L 103.676059 151.360426 
L 105.224285 151.670776 
L 109.168155 152.182247 
L 110.968392 152.309184 
L 117.784028 152.536513 
L 120.785507 152.513184 
L 128.822497 152.01431 
L 139.817829 150.892604 
L 143.361658 150.322254 
L 152.396195 147.861332 
L 153.241513 147.506424 
L 154.175643 146.748834 
L 154.930592 145.31224 
L 155.693634 143.032326 
L 156.655325 141.485488 
L 157.746966 140.498471 
L 160.092567 139.07471 
L 166.069724 135.791561 
L 167.812842 134.49626 
L 168.755165 133.504028 
L 169.701349 132.09547 
L 171.319291 128.574665 
L 182.878274 100.915163 
L 185.176879 95.944492 
L 186.254334 92.917382 
L 186.331227 89.492262 
L 185.339403 84.257188 
L 185.272261 82.204567 
L 185.675486 81.05469 
L 186.402264 80.119002 
L 188.393059 78.458602 
L 197.160011 71.428608 
L 201.804386 67.169885 
L 204.075226 65.134838 
L 205.309751 63.72567 
L 205.949107 62.541324 
L 206.181818 61.075814 
L 205.960484 60.074983 
L 205.639299 59.487127 
L 204.648185 58.512807 
L 203.757632 58.022531 
L 203.134698 57.819243 
L 200.867413 57.611926 
L 198.092382 57.878089 
L 192.443214 58.80206 
L 185.371064 59.804482 
L 174.930339 60.945556 
L 168.699545 61.400718 
L 163.766119 61.399295 
L 159.219393 61.02695 
L 155.957371 60.560646 
L 147.639049 59.330454 
L 145.489085 59.127234 
L 142.952419 59.294936 
L 140.762975 60.22226 
L 139.006822 61.890854 
L 137.31561 64.75771 
L 135.856059 67.718084 
L 135.111132 69.78506 
L 134.585948 72.286851 
L 134.39898 74.277206 
L 134.413539 76.306633 
L 134.540712 78.169136 
L 135.269995 83.277579 
L 137.627614 95.576136 
L 138.009337 99.017271 
L 137.745239 100.770004 
L 136.764417 103.170456 
L 134.623865 106.67301 
L 133.830114 107.691787 
L 133.088708 108.43475 
L 132.312089 108.962913 
L 131.437009 109.25271 
L 130.262313 109.254403 
L 127.74515 108.557826 
L 125.680645 108.047912 
L 122.605016 107.748296 
L 108.949434 107.378217 
L 101.992911 107.21004 
L 97.653029 107.336129 
L 83.864585 108.018585 
L 80.903533 108.107396 
L 79.236869 107.824946 
L 78.601543 107.364941 
L 76.664957 105.332466 
L 75.7935 104.906929 
L 75.231207 104.801865 
L 74.384907 104.879097 
L 72.552402 105.370387 
L 70.896742 105.995996 
L 67.34692 107.655346 
L 61.636299 110.339127 
L 56.378234 112.600892 
L 53.721844 114.056515 
L 49.941071 116.519368 
L 47.170069 118.504913 
L 44.234479 120.922531 
L 40.609185 124.437308 
L 30.473695 134.879353 
L 28.311 136.875463 
L 26.360768 138.291674 
L 24.835938 139.1461 
L 23.544767 139.731044 
L 12.618032 143.78106 
L 11.223423 144.575962 
L 10.4809 145.350921 
L 9.997938 146.337837 
L 9.818182 147.815874 
L 10.166724 149.760858 
L 10.914461 152.200315 
L 11.472859 153.640057 
L 12.200044 155.139087 
L 13.207512 156.562476 
L 14.234347 157.431259 
L 15.167935 157.912358 
L 16.872792 158.324284 
L 18.087915 158.388074 
L 19.599574 158.216614 
L 21.315875 157.68923 
L 35.973882 151.676523 
L 45.45207 148.131206 
L 48.526752 147.234795 
L 50.279384 146.890214 
L 53.065453 146.613758 
L 62.56311 146.486247 
L 62.56311 146.486247 
" clip-path="url(#p139d3bd5d4)" style="fill: none; stroke: #ffffff; stroke-width: 9; stroke-linecap: square"/>
   </g>
   <g id="line2d_2">
    <path d="M 62.56311 146.486247 
L 74.839015 146.306255 
L 81.277397 146.328197 
L 84.494657 146.547331 
L 86.777687 146.915376 
L 98.712295 150.0872 
L 103.676059 151.360426 
L 105.224285 151.670776 
L 109.168155 152.182247 
L 110.968392 152.309184 
L 117.784028 152.536513 
L 120.785507 152.513184 
L 128.822497 152.01431 
L 139.817829 150.892604 
L 143.361658 150.322254 
L 152.396195 147.861332 
L 153.241513 147.506424 
L 154.175643 146.748834 
L 154.930592 145.31224 
L 155.693634 143.032326 
L 156.655325 141.485488 
L 157.746966 140.498471 
L 160.092567 139.07471 
L 166.069724 135.791561 
L 167.812842 134.49626 
L 168.755165 133.504028 
L 169.701349 132.09547 
L 171.319291 128.574665 
L 182.878274 100.915163 
L 185.176879 95.944492 
L 186.254334 92.917382 
L 186.331227 89.492262 
L 185.339403 84.257188 
L 185.272261 82.204567 
L 185.675486 81.05469 
L 186.402264 80.119002 
L 188.393059 78.458602 
L 197.160011 71.428608 
L 201.804386 67.169885 
L 204.075226 65.134838 
L 205.309751 63.72567 
L 205.949107 62.541324 
L 206.181818 61.075814 
L 205.960484 60.074983 
L 205.639299 59.487127 
L 204.648185 58.512807 
L 203.757632 58.022531 
L 203.134698 57.819243 
L 200.867413 57.611926 
L 198.092382 57.878089 
L 192.443214 58.80206 
L 185.371064 59.804482 
L 174.930339 60.945556 
L 168.699545 61.400718 
L 163.766119 61.399295 
L 159.219393 61.02695 
L 155.957371 60.560646 
L 147.639049 59.330454 
L 145.489085 59.127234 
L 142.952419 59.294936 
L 140.762975 60.22226 
L 139.006822 61.890854 
L 137.31561 64.75771 
L 135.856059 67.718084 
L 135.111132 69.78506 
L 134.585948 72.286851 
L 134.39898 74.277206 
L 134.413539 76.306633 
L 134.540712 78.169136 
L 135.269995 83.277579 
L 137.627614 95.576136 
L 138.009337 99.017271 
L 137.745239 100.770004 
L 136.764417 103.170456 
L 134.623865 106.67301 
L 133.830114 107.691787 
L 133.088708 108.43475 
L 132.312089 108.962913 
L 131.437009 109.25271 
L 130.262313 109.254403 
L 127.74515 108.557826 
L 125.680645 108.047912 
L 122.605016 107.748296 
L 108.949434 107.378217 
L 101.992911 107.21004 
L 97.653029 107.336129 
L 83.864585 108.018585 
L 80.903533 108.107396 
L 79.236869 107.824946 
L 78.601543 107.364941 
L 76.664957 105.332466 
L 75.7935 104.906929 
L 75.231207 104.801865 
L 74.384907 104.879097 
L 72.552402 105.370387 
L 70.896742 105.995996 
L 67.34692 107.655346 
L 61.636299 110.339127 
L 56.378234 112.600892 
L 53.721844 114.056515 
L 49.941071 116.519368 
L 47.170069 118.504913 
L 44.234479 120.922531 
L 40.609185 124.437308 
L 30.473695 134.879353 
L 28.311 136.875463 
L 26.360768 138.291674 
L 24.835938 139.1461 
L 23.544767 139.731044 
L 12.618032 143.78106 
L 11.223423 144.575962 
L 10.4809 145.350921 
L 9.997938 146.337837 
L 9.818182 147.815874 
L 10.166724 149.760858 
L 10.914461 152.200315 
L 11.472859 153.640057 
L 12.200044 155.139087 
L 13.207512 156.562476 
L 14.234347 157.431259 
L 15.167935 157.912358 
L 16.872792 158.324284 
L 18.087915 158.388074 
L 19.599574 158.216614 
L 21.315875 157.68923 
L 35.973882 151.676523 
L 45.45207 148.131206 
L 48.526752 147.234795 
L 50.279384 146.890214 
L 53.065453 146.613758 
L 62.56311 146.486247 
L 62.56311 146.486247 
" clip-path="url(#p139d3bd5d4)" style="fill: none; stroke: #000000; stroke-width: 3; stroke-linecap: square"/>
   </g>
  </g>
 </g>
 <defs>
  <clipPath id="p139d3bd5d4">
   <rect x="0" y="0" width="216" height="216"/>
  </clipPath>
 </defs>
</svg>
