<?xml version="1.0" encoding="utf-8" standalone="no"?>
<!DOCTYPE svg PUBLIC "-//W3C//DTD SVG 1.1//EN"
  "http://www.w3.org/Graphics/SVG/1.1/DTD/svg11.dtd">
<svg xmlns:xlink="http://www.w3.org/1999/xlink" width="216pt" height="216pt" viewBox="0 0 216 216" xmlns="http://www.w3.org/2000/svg" version="1.1">
 <metadata>
  <rdf:RDF xmlns:dc="http://purl.org/dc/elements/1.1/" xmlns:cc="http://creativecommons.org/ns#" xmlns:rdf="http://www.w3.org/1999/02/22-rdf-syntax-ns#">
   <cc:Work>
    <dc:type rdf:resource="http://purl.org/dc/dcmitype/StillImage"/>
    <dc:date>2025-06-18T12:18:30.311100</dc:date>
    <dc:format>image/svg+xml</dc:format>
    <dc:creator>
     <cc:Agent>
      <dc:title>Matplotlib v3.10.0, https://matplotlib.org/</dc:title>
     </cc:Agent>
    </dc:creator>
   </cc:Work>
  </rdf:RDF>
 </metadata>
 <defs>
  <style type="text/css">*{stroke-linejoin: round; stroke-linecap: butt}</style>
 </defs>
 <g id="figure_1">
  <g id="patch_1">
   <path d="M 0 216 
L 216 216 
L 216 0 
L 0 0 
L 0 216 
z
" style="fill: none"/>
  </g>
  <g id="axes_1">
   <g id="line2d_1">
    <path d="M 161.058184 156.716472 
L 111.077514 156.766703 
L 86.508044 156.741846 
L 85.135657 156.388454 
L 84.198223 155.795351 
L 83.802544 155.181153 
L 83.35086 153.826595 
L 82.958661 153.352377 
L 82.446274 153.107869 
L 81.473159 153.008882 
L 80.209639 153.198336 
L 78.599375 153.733765 
L 73.262496 155.568454 
L 70.440158 156.280068 
L 68.017533 156.649841 
L 64.041859 157.006435 
L 60.754994 157.118643 
L 58.095702 157.088267 
L 55.4946 156.921285 
L 52.715562 156.524372 
L 50.326121 155.970625 
L 48.342589 155.346294 
L 45.613483 154.217288 
L 43.230466 152.935253 
L 41.433907 151.742195 
L 39.848788 150.460496 
L 37.236946 147.86578 
L 35.913082 146.26312 
L 34.825345 144.753783 
L 33.697368 142.984933 
L 32.207543 140.18684 
L 31.482538 138.514251 
L 30.61941 136.064646 
L 29.673306 132.666615 
L 28.76582 128.607621 
L 27.12989 119.228947 
L 26.162936 112.886768 
L 24.476033 100.119426 
L 24.125063 98.913876 
L 23.470969 97.550723 
L 22.799791 96.79404 
L 21.937729 96.36093 
L 20.835406 95.887466 
L 19.679033 94.796219 
L 18.860705 93.359756 
L 17.988336 90.604089 
L 17.587664 89.131086 
L 16.428705 86.005942 
L 15.272569 83.213726 
L 10.711858 73.275534 
L 10.065057 71.394445 
L 9.818182 69.574811 
L 9.954592 67.826858 
L 10.207589 66.910411 
L 11.413703 64.761999 
L 12.577605 63.634342 
L 13.933473 62.796762 
L 15.985868 62.003456 
L 18.891846 61.345899 
L 30.752531 59.317465 
L 34.133807 58.881357 
L 35.60365 58.945654 
L 36.885219 59.263152 
L 37.969051 59.825912 
L 39.172302 60.851683 
L 40.487898 62.56028 
L 47.809254 73.887752 
L 57.25639 87.265024 
L 61.67892 92.016017 
L 69.13432 99.263516 
L 96.89736 125.969869 
L 97.885586 126.742652 
L 99.335735 127.48379 
L 100.54726 127.702203 
L 101.746933 127.684923 
L 105.519869 127.416208 
L 107.377565 127.604392 
L 109.275934 128.157263 
L 109.886318 128.419501 
L 111.456867 129.334228 
L 114.899127 131.900131 
L 116.846765 132.61528 
L 118.866845 132.955844 
L 121.717996 133.074647 
L 192.752536 133.453294 
L 195.965765 133.601794 
L 199.244576 133.998821 
L 201.54211 134.604448 
L 203.277982 135.504711 
L 204.177674 136.267705 
L 205.111622 137.422251 
L 205.594852 138.33566 
L 206.050776 139.8389 
L 206.181818 141.537151 
L 206.017241 142.963161 
L 205.754128 144.064616 
L 205.400523 145.033704 
L 204.853316 146.195085 
L 204.240199 147.204413 
L 203.455342 148.25507 
L 202.213998 149.599929 
L 200.999739 150.653082 
L 199.770255 151.532212 
L 198.119742 152.509551 
L 195.498177 153.712131 
L 192.70281 154.631812 
L 189.24148 155.355493 
L 183.623241 155.978541 
L 176.795761 156.409281 
L 169.293617 156.64478 
L 161.058184 156.716472 
L 161.058184 156.716472 
" clip-path="url(#p15c671d5d4)" style="fill: none; stroke: #ffffff; stroke-width: 9; stroke-linecap: square"/>
   </g>
   <g id="line2d_2">
    <path d="M 161.058184 156.716472 
L 111.077514 156.766703 
L 86.508044 156.741846 
L 85.135657 156.388454 
L 84.198223 155.795351 
L 83.802544 155.181153 
L 83.35086 153.826595 
L 82.958661 153.352377 
L 82.446274 153.107869 
L 81.473159 153.008882 
L 80.209639 153.198336 
L 78.599375 153.733765 
L 73.262496 155.568454 
L 70.440158 156.280068 
L 68.017533 156.649841 
L 64.041859 157.006435 
L 60.754994 157.118643 
L 58.095702 157.088267 
L 55.4946 156.921285 
L 52.715562 156.524372 
L 50.326121 155.970625 
L 48.342589 155.346294 
L 45.613483 154.217288 
L 43.230466 152.935253 
L 41.433907 151.742195 
L 39.848788 150.460496 
L 37.236946 147.86578 
L 35.913082 146.26312 
L 34.825345 144.753783 
L 33.697368 142.984933 
L 32.207543 140.18684 
L 31.482538 138.514251 
L 30.61941 136.064646 
L 29.673306 132.666615 
L 28.76582 128.607621 
L 27.12989 119.228947 
L 26.162936 112.886768 
L 24.476033 100.119426 
L 24.125063 98.913876 
L 23.470969 97.550723 
L 22.799791 96.79404 
L 21.937729 96.36093 
L 20.835406 95.887466 
L 19.679033 94.796219 
L 18.860705 93.359756 
L 17.988336 90.604089 
L 17.587664 89.131086 
L 16.428705 86.005942 
L 15.272569 83.213726 
L 10.711858 73.275534 
L 10.065057 71.394445 
L 9.818182 69.574811 
L 9.954592 67.826858 
L 10.207589 66.910411 
L 11.413703 64.761999 
L 12.577605 63.634342 
L 13.933473 62.796762 
L 15.985868 62.003456 
L 18.891846 61.345899 
L 30.752531 59.317465 
L 34.133807 58.881357 
L 35.60365 58.945654 
L 36.885219 59.263152 
L 37.969051 59.825912 
L 39.172302 60.851683 
L 40.487898 62.56028 
L 47.809254 73.887752 
L 57.25639 87.265024 
L 61.67892 92.016017 
L 69.13432 99.263516 
L 96.89736 125.969869 
L 97.885586 126.742652 
L 99.335735 127.48379 
L 100.54726 127.702203 
L 101.746933 127.684923 
L 105.519869 127.416208 
L 107.377565 127.604392 
L 109.275934 128.157263 
L 109.886318 128.419501 
L 111.456867 129.334228 
L 114.899127 131.900131 
L 116.846765 132.61528 
L 118.866845 132.955844 
L 121.717996 133.074647 
L 192.752536 133.453294 
L 195.965765 133.601794 
L 199.244576 133.998821 
L 201.54211 134.604448 
L 203.277982 135.504711 
L 204.177674 136.267705 
L 205.111622 137.422251 
L 205.594852 138.33566 
L 206.050776 139.8389 
L 206.181818 141.537151 
L 206.017241 142.963161 
L 205.754128 144.064616 
L 205.400523 145.033704 
L 204.853316 146.195085 
L 204.240199 147.204413 
L 203.455342 148.25507 
L 202.213998 149.599929 
L 200.999739 150.653082 
L 199.770255 151.532212 
L 198.119742 152.509551 
L 195.498177 153.712131 
L 192.70281 154.631812 
L 189.24148 155.355493 
L 183.623241 155.978541 
L 176.795761 156.409281 
L 169.293617 156.64478 
L 161.058184 156.716472 
L 161.058184 156.716472 
" clip-path="url(#p15c671d5d4)" style="fill: none; stroke: #000000; stroke-opacity: 0.5; stroke-width: 3; stroke-linecap: square"/>
   </g>
  </g>
 </g>
 <defs>
  <clipPath id="p15c671d5d4">
   <rect x="0" y="0" width="216" height="216"/>
  </clipPath>
 </defs>
</svg>
