<?xml version="1.0" encoding="utf-8" standalone="no"?>
<!DOCTYPE svg PUBLIC "-//W3C//DTD SVG 1.1//EN"
  "http://www.w3.org/Graphics/SVG/1.1/DTD/svg11.dtd">
<svg xmlns:xlink="http://www.w3.org/1999/xlink" width="216pt" height="216pt" viewBox="0 0 216 216" xmlns="http://www.w3.org/2000/svg" version="1.1">
 <metadata>
  <rdf:RDF xmlns:dc="http://purl.org/dc/elements/1.1/" xmlns:cc="http://creativecommons.org/ns#" xmlns:rdf="http://www.w3.org/1999/02/22-rdf-syntax-ns#">
   <cc:Work>
    <dc:type rdf:resource="http://purl.org/dc/dcmitype/StillImage"/>
    <dc:date>2025-05-31T19:14:09.997613</dc:date>
    <dc:format>image/svg+xml</dc:format>
    <dc:creator>
     <cc:Agent>
      <dc:title>Matplotlib v3.10.0, https://matplotlib.org/</dc:title>
     </cc:Agent>
    </dc:creator>
   </cc:Work>
  </rdf:RDF>
 </metadata>
 <defs>
  <style type="text/css">*{stroke-linejoin: round; stroke-linecap: butt}</style>
 </defs>
 <g id="figure_1">
  <g id="patch_1">
   <path d="M 0 216 
L 216 216 
L 216 0 
L 0 0 
L 0 216 
z
" style="fill: none"/>
  </g>
  <g id="axes_1">
   <g id="line2d_1">
    <path d="M 136.454919 59.618636 
L 192.188077 60.160869 
L 197.089796 60.402615 
L 200.680833 61.703235 
L 202.134213 62.784537 
L 203.097063 63.816639 
L 204.866306 66.330165 
L 205.893072 68.27631 
L 206.181818 69.320758 
L 206.125785 71.405246 
L 205.428771 73.179675 
L 204.835968 74.056139 
L 203.263505 75.550823 
L 202.609109 75.944505 
L 200.951472 76.519674 
L 199.631301 76.646781 
L 198.556202 76.596708 
L 194.572981 75.95673 
L 188.844675 74.840355 
L 184.746205 74.54244 
L 182.863692 74.687995 
L 181.671406 74.952287 
L 179.204805 76.098948 
L 177.600432 77.43582 
L 176.073391 78.982995 
L 174.470617 80.243212 
L 172.174031 81.13444 
L 171.031332 81.311763 
L 168.685939 81.106972 
L 165.257848 79.648832 
L 161.963406 78.111762 
L 160.652486 77.67459 
L 158.022072 77.573231 
L 157.402734 77.672206 
L 155.542833 78.240644 
L 153.943546 79.152696 
L 152.877935 80.034388 
L 150.981857 81.976166 
L 148.902835 83.888985 
L 147.978573 84.503332 
L 147.023369 84.973715 
L 144.848811 85.619823 
L 143.122512 85.810122 
L 141.248328 85.676757 
L 139.376325 85.077026 
L 138.204817 84.34481 
L 137.503549 83.670171 
L 136.911768 82.869583 
L 132.880436 75.371961 
L 131.873133 74.301216 
L 130.498053 73.444067 
L 128.607697 72.880411 
L 127.138043 72.76051 
L 125.570525 72.932747 
L 123.774397 73.517601 
L 120.631802 74.948118 
L 118.465378 76.108581 
L 116.424612 77.573386 
L 114.788038 78.947302 
L 113.77269 79.950731 
L 111.977768 82.045479 
L 110.859761 83.57101 
L 109.84102 85.521022 
L 108.951181 87.921277 
L 108.001389 92.051414 
L 107.835484 93.858289 
L 107.837611 95.082823 
L 108.253898 98.150213 
L 109.745562 105.053041 
L 110.713675 110.83738 
L 110.774199 112.698006 
L 110.485785 113.748021 
L 108.872303 116.546799 
L 105.564766 121.788151 
L 104.417753 123.197417 
L 102.913229 124.569057 
L 101.620513 125.188293 
L 100.330607 125.250659 
L 99.114402 124.973866 
L 97.842753 124.401738 
L 94.227073 122.052119 
L 76.691346 112.193564 
L 75.651889 111.459073 
L 74.388523 110.308816 
L 73.279725 108.980749 
L 71.641518 106.151889 
L 69.525715 101.568111 
L 68.681067 100.534702 
L 68.052628 100.105473 
L 67.610715 99.955456 
L 66.793277 99.90824 
L 65.797156 100.291025 
L 65.234908 100.907891 
L 64.878847 101.886093 
L 64.875454 102.832676 
L 65.322107 104.443632 
L 67.076235 109.129244 
L 68.721987 114.852281 
L 69.365962 117.792414 
L 69.567638 120.178969 
L 69.415772 123.181711 
L 68.944604 125.399605 
L 68.225363 127.154713 
L 67.456781 128.502725 
L 64.781562 132.238592 
L 61.856626 135.289119 
L 60.363676 136.52774 
L 58.53578 137.852408 
L 55.011315 139.991555 
L 50.860733 142.132733 
L 47.962872 143.281717 
L 46.748699 143.63104 
L 43.160562 144.362079 
L 40.305703 144.533876 
L 38.876967 144.501573 
L 35.40137 144.055726 
L 30.933964 142.760721 
L 23.997058 140.58072 
L 20.920472 139.870385 
L 17.528355 139.82229 
L 16.055261 140.349762 
L 15.060785 140.955102 
L 13.35661 142.556414 
L 12.230856 143.971152 
L 11.141224 145.703452 
L 10.558781 146.927113 
L 10.078464 148.317593 
L 9.879247 149.250036 
L 9.818182 150.068442 
L 10.11477 151.822101 
L 10.707906 153.0401 
L 11.630516 154.193309 
L 12.92284 155.160622 
L 15.144993 156.090748 
L 16.802771 156.413206 
L 19.038631 156.444737 
L 21.6152 156.174106 
L 25.430395 155.406315 
L 30.616269 154.139088 
L 35.089058 152.824307 
L 40.197552 151.047567 
L 45.081217 149.140422 
L 49.570327 147.163449 
L 53.996584 144.884701 
L 59.4701 141.760335 
L 95.075554 120.851606 
L 97.304059 119.185795 
L 98.267836 117.942427 
L 99.432721 115.495106 
L 100.602305 112.219403 
L 100.953815 110.977099 
L 101.664102 107.601303 
L 102.106028 103.7711 
L 102.196687 100.689136 
L 101.849807 92.5442 
L 101.259555 83.108098 
L 101.504004 81.031311 
L 101.767333 80.219636 
L 102.244502 79.281674 
L 102.978702 78.437073 
L 103.61281 78.051769 
L 104.131329 77.904176 
L 105.302695 77.738765 
L 106.297218 77.432635 
L 106.670468 77.197782 
L 107.213733 76.707495 
L 107.705428 75.97727 
L 108.00677 75.211647 
L 108.144442 74.09563 
L 108.052881 71.492623 
L 108.266774 69.675434 
L 109.200144 67.599181 
L 109.993567 66.506894 
L 111.396935 64.982284 
L 113.48598 63.312308 
L 115.026965 62.362582 
L 117.360547 61.204347 
L 119.686138 60.429385 
L 122.208231 59.877268 
L 125.382249 59.592693 
L 128.266113 59.537161 
L 136.454919 59.618636 
L 136.454919 59.618636 
" clip-path="url(#pa79663dcaa)" style="fill: none; stroke: #fb2c36; stroke-width: 9; stroke-linecap: square"/>
   </g>
   <g id="line2d_2">
    <path d="M 136.454919 59.618636 
L 192.188077 60.160869 
L 197.089796 60.402615 
L 200.680833 61.703235 
L 202.134213 62.784537 
L 203.097063 63.816639 
L 204.866306 66.330165 
L 205.893072 68.27631 
L 206.181818 69.320758 
L 206.125785 71.405246 
L 205.428771 73.179675 
L 204.835968 74.056139 
L 203.263505 75.550823 
L 202.609109 75.944505 
L 200.951472 76.519674 
L 199.631301 76.646781 
L 198.556202 76.596708 
L 194.572981 75.95673 
L 188.844675 74.840355 
L 184.746205 74.54244 
L 182.863692 74.687995 
L 181.671406 74.952287 
L 179.204805 76.098948 
L 177.600432 77.43582 
L 176.073391 78.982995 
L 174.470617 80.243212 
L 172.174031 81.13444 
L 171.031332 81.311763 
L 168.685939 81.106972 
L 165.257848 79.648832 
L 161.963406 78.111762 
L 160.652486 77.67459 
L 158.022072 77.573231 
L 157.402734 77.672206 
L 155.542833 78.240644 
L 153.943546 79.152696 
L 152.877935 80.034388 
L 150.981857 81.976166 
L 148.902835 83.888985 
L 147.978573 84.503332 
L 147.023369 84.973715 
L 144.848811 85.619823 
L 143.122512 85.810122 
L 141.248328 85.676757 
L 139.376325 85.077026 
L 138.204817 84.34481 
L 137.503549 83.670171 
L 136.911768 82.869583 
L 132.880436 75.371961 
L 131.873133 74.301216 
L 130.498053 73.444067 
L 128.607697 72.880411 
L 127.138043 72.76051 
L 125.570525 72.932747 
L 123.774397 73.517601 
L 120.631802 74.948118 
L 118.465378 76.108581 
L 116.424612 77.573386 
L 114.788038 78.947302 
L 113.77269 79.950731 
L 111.977768 82.045479 
L 110.859761 83.57101 
L 109.84102 85.521022 
L 108.951181 87.921277 
L 108.001389 92.051414 
L 107.835484 93.858289 
L 107.837611 95.082823 
L 108.253898 98.150213 
L 109.745562 105.053041 
L 110.713675 110.83738 
L 110.774199 112.698006 
L 110.485785 113.748021 
L 108.872303 116.546799 
L 105.564766 121.788151 
L 104.417753 123.197417 
L 102.913229 124.569057 
L 101.620513 125.188293 
L 100.330607 125.250659 
L 99.114402 124.973866 
L 97.842753 124.401738 
L 94.227073 122.052119 
L 76.691346 112.193564 
L 75.651889 111.459073 
L 74.388523 110.308816 
L 73.279725 108.980749 
L 71.641518 106.151889 
L 69.525715 101.568111 
L 68.681067 100.534702 
L 68.052628 100.105473 
L 67.610715 99.955456 
L 66.793277 99.90824 
L 65.797156 100.291025 
L 65.234908 100.907891 
L 64.878847 101.886093 
L 64.875454 102.832676 
L 65.322107 104.443632 
L 67.076235 109.129244 
L 68.721987 114.852281 
L 69.365962 117.792414 
L 69.567638 120.178969 
L 69.415772 123.181711 
L 68.944604 125.399605 
L 68.225363 127.154713 
L 67.456781 128.502725 
L 64.781562 132.238592 
L 61.856626 135.289119 
L 60.363676 136.52774 
L 58.53578 137.852408 
L 55.011315 139.991555 
L 50.860733 142.132733 
L 47.962872 143.281717 
L 46.748699 143.63104 
L 43.160562 144.362079 
L 40.305703 144.533876 
L 38.876967 144.501573 
L 35.40137 144.055726 
L 30.933964 142.760721 
L 23.997058 140.58072 
L 20.920472 139.870385 
L 17.528355 139.82229 
L 16.055261 140.349762 
L 15.060785 140.955102 
L 13.35661 142.556414 
L 12.230856 143.971152 
L 11.141224 145.703452 
L 10.558781 146.927113 
L 10.078464 148.317593 
L 9.879247 149.250036 
L 9.818182 150.068442 
L 10.11477 151.822101 
L 10.707906 153.0401 
L 11.630516 154.193309 
L 12.92284 155.160622 
L 15.144993 156.090748 
L 16.802771 156.413206 
L 19.038631 156.444737 
L 21.6152 156.174106 
L 25.430395 155.406315 
L 30.616269 154.139088 
L 35.089058 152.824307 
L 40.197552 151.047567 
L 45.081217 149.140422 
L 49.570327 147.163449 
L 53.996584 144.884701 
L 59.4701 141.760335 
L 95.075554 120.851606 
L 97.304059 119.185795 
L 98.267836 117.942427 
L 99.432721 115.495106 
L 100.602305 112.219403 
L 100.953815 110.977099 
L 101.664102 107.601303 
L 102.106028 103.7711 
L 102.196687 100.689136 
L 101.849807 92.5442 
L 101.259555 83.108098 
L 101.504004 81.031311 
L 101.767333 80.219636 
L 102.244502 79.281674 
L 102.978702 78.437073 
L 103.61281 78.051769 
L 104.131329 77.904176 
L 105.302695 77.738765 
L 106.297218 77.432635 
L 106.670468 77.197782 
L 107.213733 76.707495 
L 107.705428 75.97727 
L 108.00677 75.211647 
L 108.144442 74.09563 
L 108.052881 71.492623 
L 108.266774 69.675434 
L 109.200144 67.599181 
L 109.993567 66.506894 
L 111.396935 64.982284 
L 113.48598 63.312308 
L 115.026965 62.362582 
L 117.360547 61.204347 
L 119.686138 60.429385 
L 122.208231 59.877268 
L 125.382249 59.592693 
L 128.266113 59.537161 
L 136.454919 59.618636 
L 136.454919 59.618636 
" clip-path="url(#pa79663dcaa)" style="fill: none; stroke: #000000; stroke-width: 3; stroke-linecap: square"/>
   </g>
  </g>
 </g>
 <defs>
  <clipPath id="pa79663dcaa">
   <rect x="0" y="0" width="216" height="216"/>
  </clipPath>
 </defs>
</svg>
