<?xml version="1.0" encoding="utf-8" standalone="no"?>
<!DOCTYPE svg PUBLIC "-//W3C//DTD SVG 1.1//EN"
  "http://www.w3.org/Graphics/SVG/1.1/DTD/svg11.dtd">
<svg xmlns:xlink="http://www.w3.org/1999/xlink" width="216pt" height="216pt" viewBox="0 0 216 216" xmlns="http://www.w3.org/2000/svg" version="1.1">
 <metadata>
  <rdf:RDF xmlns:dc="http://purl.org/dc/elements/1.1/" xmlns:cc="http://creativecommons.org/ns#" xmlns:rdf="http://www.w3.org/1999/02/22-rdf-syntax-ns#">
   <cc:Work>
    <dc:type rdf:resource="http://purl.org/dc/dcmitype/StillImage"/>
    <dc:date>2025-05-31T19:14:15.987162</dc:date>
    <dc:format>image/svg+xml</dc:format>
    <dc:creator>
     <cc:Agent>
      <dc:title>Matplotlib v3.10.0, https://matplotlib.org/</dc:title>
     </cc:Agent>
    </dc:creator>
   </cc:Work>
  </rdf:RDF>
 </metadata>
 <defs>
  <style type="text/css">*{stroke-linejoin: round; stroke-linecap: butt}</style>
 </defs>
 <g id="figure_1">
  <g id="patch_1">
   <path d="M 0 216 
L 216 216 
L 216 0 
L 0 0 
L 0 216 
z
" style="fill: none"/>
  </g>
  <g id="axes_1">
   <g id="line2d_1">
    <path d="M 193.438782 66.345886 
L 186.840609 60.452862 
L 176.404416 51.205346 
L 175.266105 50.631154 
L 174.057279 50.379316 
L 172.828307 50.459904 
L 171.851173 50.812478 
L 170.994921 51.336303 
L 170.13867 52.142186 
L 169.37308 53.371159 
L 168.949991 54.650499 
L 168.798888 55.607486 
L 168.829109 57.330063 
L 169.191756 58.901536 
L 170.158817 60.946466 
L 170.904259 62.064629 
L 172.193673 63.68647 
L 175.880591 67.60508 
L 177.039049 70.204055 
L 177.170005 72.379941 
L 176.605886 74.847959 
L 176.273459 75.724358 
L 175.538091 77.185022 
L 174.832942 78.262892 
L 173.32191 79.9351 
L 171.921688 80.992823 
L 169.252198 82.252016 
L 167.761313 82.624737 
L 163.882998 83.08812 
L 155.501807 83.662312 
L 146.757969 84.045107 
L 119.096011 85.052462 
L 87.203164 86.140405 
L 85.510808 85.938934 
L 83.929261 85.525918 
L 83.193892 85.223712 
L 82.388009 84.770402 
L 81.703008 84.135769 
L 81.289992 83.470915 
L 81.02808 82.453487 
L 80.967639 80.41863 
L 80.937418 72.480676 
L 80.796388 65.59037 
L 80.635212 64.542722 
L 80.101314 62.548159 
L 79.577489 61.15801 
L 78.519767 59.032492 
L 77.824692 57.894181 
L 76.364028 55.859325 
L 75.467482 54.872117 
L 73.412479 53.0891 
L 72.05255 52.122039 
L 69.997547 50.983728 
L 68.55703 50.369242 
L 66.018496 49.664094 
L 64.396655 49.512991 
L 63.419521 49.603653 
L 62.291284 49.9663 
L 61.414886 50.399463 
L 60.65937 51.094537 
L 60.236281 51.940715 
L 59.561353 53.784174 
L 58.725249 54.721014 
L 58.292086 55.003073 
L 57.50635 55.285133 
L 56.670245 55.375795 
L 55.390905 55.123956 
L 53.90002 54.418808 
L 50.837662 52.736525 
L 49.165453 52.222775 
L 48.631555 52.172407 
L 47.724936 52.202628 
L 46.506037 52.535055 
L 45.800889 52.968217 
L 45.458388 53.320791 
L 44.974858 54.378513 
L 44.904343 56.624914 
L 45.095741 65.046399 
L 45.216623 79.894806 
L 45.166255 85.223712 
L 45.045373 87.067171 
L 44.471181 90.653353 
L 43.715665 93.574682 
L 42.426251 96.848584 
L 41.882279 97.946601 
L 40.129482 100.626164 
L 38.981098 101.935725 
L 37.772273 103.084109 
L 35.636681 104.716024 
L 33.037706 106.257277 
L 27.789388 108.695075 
L 23.47791 110.719857 
L 21.946731 111.535815 
L 20.486067 112.462581 
L 19.236948 113.409494 
L 17.433783 115.061556 
L 16.134295 116.491999 
L 14.844881 118.133987 
L 13.897968 119.584578 
L 12.70929 121.881347 
L 11.480317 125.376867 
L 11.067302 126.998708 
L 9.89877 133.052909 
L 9.818182 134.372544 
L 9.888697 134.825854 
L 10.462889 135.893649 
L 11.248625 136.588724 
L 12.155245 137.052107 
L 13.8476 137.465123 
L 15.217603 137.837844 
L 17.333047 138.73439 
L 25.774679 142.824249 
L 42.516913 152.011323 
L 45.639712 153.643238 
L 51.814796 156.423537 
L 55.280096 157.773392 
L 59.359882 159.072879 
L 69.624826 161.963987 
L 75.255938 163.303769 
L 82.146244 164.573036 
L 88.079562 165.348699 
L 91.434053 165.671052 
L 97.387519 166.013553 
L 102.454513 166.104215 
L 121.825942 165.993406 
L 132.816181 165.953111 
L 171.619481 166.225097 
L 196.138493 166.426568 
L 197.75026 166.174729 
L 199.382174 165.530022 
L 200.389529 164.845021 
L 200.943574 164.240609 
L 201.296148 163.666416 
L 201.628575 162.507959 
L 201.860267 160.986853 
L 202.454606 159.677292 
L 205.436376 155.567285 
L 205.909832 154.0764 
L 206.060936 152.615736 
L 206.181818 146.551461 
L 205.426302 115.837219 
L 205.47667 98.077557 
L 205.234905 88.870336 
L 204.872257 83.25937 
L 204.459242 80.861866 
L 203.371299 77.598038 
L 201.618502 74.485312 
L 200.570853 72.984353 
L 199.150483 71.342365 
L 197.730113 70.012657 
L 193.438782 66.345886 
L 193.438782 66.345886 
" clip-path="url(#p4c11c824ac)" style="fill: none; stroke: #fb2c36; stroke-width: 9; stroke-linecap: square"/>
   </g>
   <g id="line2d_2">
    <path d="M 193.438782 66.345886 
L 186.840609 60.452862 
L 176.404416 51.205346 
L 175.266105 50.631154 
L 174.057279 50.379316 
L 172.828307 50.459904 
L 171.851173 50.812478 
L 170.994921 51.336303 
L 170.13867 52.142186 
L 169.37308 53.371159 
L 168.949991 54.650499 
L 168.798888 55.607486 
L 168.829109 57.330063 
L 169.191756 58.901536 
L 170.158817 60.946466 
L 170.904259 62.064629 
L 172.193673 63.68647 
L 175.880591 67.60508 
L 177.039049 70.204055 
L 177.170005 72.379941 
L 176.605886 74.847959 
L 176.273459 75.724358 
L 175.538091 77.185022 
L 174.832942 78.262892 
L 173.32191 79.9351 
L 171.921688 80.992823 
L 169.252198 82.252016 
L 167.761313 82.624737 
L 163.882998 83.08812 
L 155.501807 83.662312 
L 146.757969 84.045107 
L 119.096011 85.052462 
L 87.203164 86.140405 
L 85.510808 85.938934 
L 83.929261 85.525918 
L 83.193892 85.223712 
L 82.388009 84.770402 
L 81.703008 84.135769 
L 81.289992 83.470915 
L 81.02808 82.453487 
L 80.967639 80.41863 
L 80.937418 72.480676 
L 80.796388 65.59037 
L 80.635212 64.542722 
L 80.101314 62.548159 
L 79.577489 61.15801 
L 78.519767 59.032492 
L 77.824692 57.894181 
L 76.364028 55.859325 
L 75.467482 54.872117 
L 73.412479 53.0891 
L 72.05255 52.122039 
L 69.997547 50.983728 
L 68.55703 50.369242 
L 66.018496 49.664094 
L 64.396655 49.512991 
L 63.419521 49.603653 
L 62.291284 49.9663 
L 61.414886 50.399463 
L 60.65937 51.094537 
L 60.236281 51.940715 
L 59.561353 53.784174 
L 58.725249 54.721014 
L 58.292086 55.003073 
L 57.50635 55.285133 
L 56.670245 55.375795 
L 55.390905 55.123956 
L 53.90002 54.418808 
L 50.837662 52.736525 
L 49.165453 52.222775 
L 48.631555 52.172407 
L 47.724936 52.202628 
L 46.506037 52.535055 
L 45.800889 52.968217 
L 45.458388 53.320791 
L 44.974858 54.378513 
L 44.904343 56.624914 
L 45.095741 65.046399 
L 45.216623 79.894806 
L 45.166255 85.223712 
L 45.045373 87.067171 
L 44.471181 90.653353 
L 43.715665 93.574682 
L 42.426251 96.848584 
L 41.882279 97.946601 
L 40.129482 100.626164 
L 38.981098 101.935725 
L 37.772273 103.084109 
L 35.636681 104.716024 
L 33.037706 106.257277 
L 27.789388 108.695075 
L 23.47791 110.719857 
L 21.946731 111.535815 
L 20.486067 112.462581 
L 19.236948 113.409494 
L 17.433783 115.061556 
L 16.134295 116.491999 
L 14.844881 118.133987 
L 13.897968 119.584578 
L 12.70929 121.881347 
L 11.480317 125.376867 
L 11.067302 126.998708 
L 9.89877 133.052909 
L 9.818182 134.372544 
L 9.888697 134.825854 
L 10.462889 135.893649 
L 11.248625 136.588724 
L 12.155245 137.052107 
L 13.8476 137.465123 
L 15.217603 137.837844 
L 17.333047 138.73439 
L 25.774679 142.824249 
L 42.516913 152.011323 
L 45.639712 153.643238 
L 51.814796 156.423537 
L 55.280096 157.773392 
L 59.359882 159.072879 
L 69.624826 161.963987 
L 75.255938 163.303769 
L 82.146244 164.573036 
L 88.079562 165.348699 
L 91.434053 165.671052 
L 97.387519 166.013553 
L 102.454513 166.104215 
L 121.825942 165.993406 
L 132.816181 165.953111 
L 171.619481 166.225097 
L 196.138493 166.426568 
L 197.75026 166.174729 
L 199.382174 165.530022 
L 200.389529 164.845021 
L 200.943574 164.240609 
L 201.296148 163.666416 
L 201.628575 162.507959 
L 201.860267 160.986853 
L 202.454606 159.677292 
L 205.436376 155.567285 
L 205.909832 154.0764 
L 206.060936 152.615736 
L 206.181818 146.551461 
L 205.426302 115.837219 
L 205.47667 98.077557 
L 205.234905 88.870336 
L 204.872257 83.25937 
L 204.459242 80.861866 
L 203.371299 77.598038 
L 201.618502 74.485312 
L 200.570853 72.984353 
L 199.150483 71.342365 
L 197.730113 70.012657 
L 193.438782 66.345886 
L 193.438782 66.345886 
" clip-path="url(#p4c11c824ac)" style="fill: none; stroke: #000000; stroke-width: 3; stroke-linecap: square"/>
   </g>
  </g>
 </g>
 <defs>
  <clipPath id="p4c11c824ac">
   <rect x="0" y="0" width="216" height="216"/>
  </clipPath>
 </defs>
</svg>
