<?xml version="1.0" encoding="utf-8" standalone="no"?>
<!DOCTYPE svg PUBLIC "-//W3C//DTD SVG 1.1//EN"
  "http://www.w3.org/Graphics/SVG/1.1/DTD/svg11.dtd">
<svg xmlns:xlink="http://www.w3.org/1999/xlink" width="216pt" height="216pt" viewBox="0 0 216 216" xmlns="http://www.w3.org/2000/svg" version="1.1">
 <metadata>
  <rdf:RDF xmlns:dc="http://purl.org/dc/elements/1.1/" xmlns:cc="http://creativecommons.org/ns#" xmlns:rdf="http://www.w3.org/1999/02/22-rdf-syntax-ns#">
   <cc:Work>
    <dc:type rdf:resource="http://purl.org/dc/dcmitype/StillImage"/>
    <dc:date>2025-06-19T13:35:15.059878</dc:date>
    <dc:format>image/svg+xml</dc:format>
    <dc:creator>
     <cc:Agent>
      <dc:title>Matplotlib v3.10.0, https://matplotlib.org/</dc:title>
     </cc:Agent>
    </dc:creator>
   </cc:Work>
  </rdf:RDF>
 </metadata>
 <defs>
  <style type="text/css">*{stroke-linejoin: round; stroke-linecap: butt}</style>
 </defs>
 <g id="figure_1">
  <g id="patch_1">
   <path d="M 0 216 
L 216 216 
L 216 0 
L 0 0 
L 0 216 
z
" style="fill: none"/>
  </g>
  <g id="axes_1">
   <g id="line2d_1">
    <path d="M 30.154129 121.246957 
L 43.862653 114.356718 
L 53.848063 109.247303 
L 78.821549 96.169472 
L 97.555702 85.611396 
L 119.883439 73.18507 
L 161.085402 50.82504 
L 164.629698 49.388675 
L 167.07604 49.030575 
L 167.818127 49.052525 
L 169.245251 49.33591 
L 170.279643 49.805614 
L 171.205007 50.420543 
L 172.005648 51.159096 
L 173.010155 52.541682 
L 173.997694 54.514207 
L 174.973591 56.198134 
L 175.954729 57.18512 
L 176.60829 57.584948 
L 177.500409 57.926974 
L 178.195323 58.065713 
L 180.380403 58.029456 
L 181.963729 58.050826 
L 183.354482 58.443153 
L 184.406423 59.164156 
L 185.249169 60.119665 
L 185.886774 61.042683 
L 186.377126 61.99017 
L 187.646835 65.077939 
L 188.798482 68.730076 
L 189.615543 72.0807 
L 190.393772 76.581751 
L 190.824675 80.741037 
L 191.259083 87.835336 
L 191.560428 94.01962 
L 192.412678 103.84692 
L 193.6091 116.510254 
L 194.351975 127.209171 
L 194.647589 139.223231 
L 194.750481 143.703346 
L 195.215495 146.319558 
L 195.500793 147.052956 
L 195.965662 147.919939 
L 196.894733 148.994264 
L 197.942793 149.619069 
L 198.445307 149.765568 
L 199.915725 149.835965 
L 202.946099 149.532132 
L 204.32023 149.788007 
L 204.781478 150.013998 
L 205.635112 150.780061 
L 206.134239 151.853199 
L 206.181818 152.940845 
L 206.07447 153.678964 
L 205.325348 156.055083 
L 203.939347 160.098652 
L 202.958154 163.336513 
L 202.343051 164.625072 
L 201.420787 165.740722 
L 200.219885 166.563718 
L 199.446234 166.861758 
L 198.79832 166.969425 
L 197.564522 166.793128 
L 196.194531 166.088659 
L 195.319294 165.338291 
L 194.794424 164.729443 
L 193.822321 163.323314 
L 192.219793 160.345326 
L 182.81562 140.54177 
L 180.337449 135.608979 
L 179.34771 134.133147 
L 177.311011 131.784164 
L 174.835159 130.216333 
L 173.32863 129.710084 
L 170.870821 129.41639 
L 166.52319 129.588058 
L 164.860373 129.525422 
L 162.669559 129.235782 
L 160.647688 128.72438 
L 159.080318 128.179819 
L 155.928029 126.839398 
L 154.631535 126.395091 
L 153.10433 126.019386 
L 150.090925 125.73328 
L 146.143615 126.274224 
L 144.39902 126.848614 
L 142.721088 127.605615 
L 139.623185 129.542813 
L 135.934068 132.074585 
L 133.159368 133.479906 
L 131.498232 134.010163 
L 129.769506 134.24296 
L 128.704476 134.208095 
L 127.143854 133.922683 
L 124.543018 133.023267 
L 123.601872 132.568332 
L 118.337013 129.478655 
L 115.679303 128.45553 
L 114.552505 128.267504 
L 111.745169 128.128738 
L 110.012563 128.265335 
L 105.575393 128.881629 
L 103.76515 129.206659 
L 99.732268 130.106831 
L 97.098247 130.865339 
L 91.354855 132.909251 
L 87.12914 134.725172 
L 82.033402 137.20621 
L 77.34111 139.674679 
L 65.59101 146.330268 
L 54.075587 152.831856 
L 51.345193 153.957439 
L 49.252259 154.256812 
L 47.723954 154.129454 
L 46.848456 153.923879 
L 45.677613 153.470798 
L 44.762037 152.914769 
L 44.041813 152.332331 
L 42.934099 151.23927 
L 41.524377 149.457957 
L 39.853914 146.908901 
L 37.124095 142.72005 
L 36.250045 141.539738 
L 34.954999 140.120694 
L 33.852091 139.238681 
L 33.364346 138.998936 
L 32.069705 138.784326 
L 31.432593 138.884146 
L 30.293633 139.497108 
L 29.634571 140.339014 
L 29.184357 141.672806 
L 28.411605 144.198118 
L 27.915491 145.037157 
L 27.352715 145.693585 
L 26.046666 146.758008 
L 24.608219 147.572056 
L 20.815403 149.370516 
L 16.689681 151.460355 
L 15.428198 151.700247 
L 14.793113 151.666568 
L 13.478983 151.152559 
L 12.552693 150.42278 
L 12.029763 149.862032 
L 11.090064 148.432359 
L 10.872355 147.99642 
L 10.401752 146.80354 
L 10.065661 145.545938 
L 9.818182 143.72886 
L 9.972644 140.943126 
L 10.671899 138.157653 
L 11.315613 136.567753 
L 11.931643 135.394042 
L 12.746993 134.108523 
L 15.184761 131.149154 
L 16.382883 129.981611 
L 17.67619 128.876936 
L 21.1189 126.392164 
L 23.461716 124.937556 
L 30.154129 121.246957 
L 30.154129 121.246957 
" clip-path="url(#p34ffae9757)" style="fill: none; stroke: #ffffff; stroke-width: 9; stroke-linecap: square"/>
   </g>
   <g id="line2d_2">
    <path d="M 30.154129 121.246957 
L 43.862653 114.356718 
L 53.848063 109.247303 
L 78.821549 96.169472 
L 97.555702 85.611396 
L 119.883439 73.18507 
L 161.085402 50.82504 
L 164.629698 49.388675 
L 167.07604 49.030575 
L 167.818127 49.052525 
L 169.245251 49.33591 
L 170.279643 49.805614 
L 171.205007 50.420543 
L 172.005648 51.159096 
L 173.010155 52.541682 
L 173.997694 54.514207 
L 174.973591 56.198134 
L 175.954729 57.18512 
L 176.60829 57.584948 
L 177.500409 57.926974 
L 178.195323 58.065713 
L 180.380403 58.029456 
L 181.963729 58.050826 
L 183.354482 58.443153 
L 184.406423 59.164156 
L 185.249169 60.119665 
L 185.886774 61.042683 
L 186.377126 61.99017 
L 187.646835 65.077939 
L 188.798482 68.730076 
L 189.615543 72.0807 
L 190.393772 76.581751 
L 190.824675 80.741037 
L 191.259083 87.835336 
L 191.560428 94.01962 
L 192.412678 103.84692 
L 193.6091 116.510254 
L 194.351975 127.209171 
L 194.647589 139.223231 
L 194.750481 143.703346 
L 195.215495 146.319558 
L 195.500793 147.052956 
L 195.965662 147.919939 
L 196.894733 148.994264 
L 197.942793 149.619069 
L 198.445307 149.765568 
L 199.915725 149.835965 
L 202.946099 149.532132 
L 204.32023 149.788007 
L 204.781478 150.013998 
L 205.635112 150.780061 
L 206.134239 151.853199 
L 206.181818 152.940845 
L 206.07447 153.678964 
L 205.325348 156.055083 
L 203.939347 160.098652 
L 202.958154 163.336513 
L 202.343051 164.625072 
L 201.420787 165.740722 
L 200.219885 166.563718 
L 199.446234 166.861758 
L 198.79832 166.969425 
L 197.564522 166.793128 
L 196.194531 166.088659 
L 195.319294 165.338291 
L 194.794424 164.729443 
L 193.822321 163.323314 
L 192.219793 160.345326 
L 182.81562 140.54177 
L 180.337449 135.608979 
L 179.34771 134.133147 
L 177.311011 131.784164 
L 174.835159 130.216333 
L 173.32863 129.710084 
L 170.870821 129.41639 
L 166.52319 129.588058 
L 164.860373 129.525422 
L 162.669559 129.235782 
L 160.647688 128.72438 
L 159.080318 128.179819 
L 155.928029 126.839398 
L 154.631535 126.395091 
L 153.10433 126.019386 
L 150.090925 125.73328 
L 146.143615 126.274224 
L 144.39902 126.848614 
L 142.721088 127.605615 
L 139.623185 129.542813 
L 135.934068 132.074585 
L 133.159368 133.479906 
L 131.498232 134.010163 
L 129.769506 134.24296 
L 128.704476 134.208095 
L 127.143854 133.922683 
L 124.543018 133.023267 
L 123.601872 132.568332 
L 118.337013 129.478655 
L 115.679303 128.45553 
L 114.552505 128.267504 
L 111.745169 128.128738 
L 110.012563 128.265335 
L 105.575393 128.881629 
L 103.76515 129.206659 
L 99.732268 130.106831 
L 97.098247 130.865339 
L 91.354855 132.909251 
L 87.12914 134.725172 
L 82.033402 137.20621 
L 77.34111 139.674679 
L 65.59101 146.330268 
L 54.075587 152.831856 
L 51.345193 153.957439 
L 49.252259 154.256812 
L 47.723954 154.129454 
L 46.848456 153.923879 
L 45.677613 153.470798 
L 44.762037 152.914769 
L 44.041813 152.332331 
L 42.934099 151.23927 
L 41.524377 149.457957 
L 39.853914 146.908901 
L 37.124095 142.72005 
L 36.250045 141.539738 
L 34.954999 140.120694 
L 33.852091 139.238681 
L 33.364346 138.998936 
L 32.069705 138.784326 
L 31.432593 138.884146 
L 30.293633 139.497108 
L 29.634571 140.339014 
L 29.184357 141.672806 
L 28.411605 144.198118 
L 27.915491 145.037157 
L 27.352715 145.693585 
L 26.046666 146.758008 
L 24.608219 147.572056 
L 20.815403 149.370516 
L 16.689681 151.460355 
L 15.428198 151.700247 
L 14.793113 151.666568 
L 13.478983 151.152559 
L 12.552693 150.42278 
L 12.029763 149.862032 
L 11.090064 148.432359 
L 10.872355 147.99642 
L 10.401752 146.80354 
L 10.065661 145.545938 
L 9.818182 143.72886 
L 9.972644 140.943126 
L 10.671899 138.157653 
L 11.315613 136.567753 
L 11.931643 135.394042 
L 12.746993 134.108523 
L 15.184761 131.149154 
L 16.382883 129.981611 
L 17.67619 128.876936 
L 21.1189 126.392164 
L 23.461716 124.937556 
L 30.154129 121.246957 
L 30.154129 121.246957 
" clip-path="url(#p34ffae9757)" style="fill: none; stroke: #000000; stroke-width: 3; stroke-linecap: square"/>
   </g>
  </g>
 </g>
 <defs>
  <clipPath id="p34ffae9757">
   <rect x="0" y="0" width="216" height="216"/>
  </clipPath>
 </defs>
</svg>
