<?xml version="1.0" encoding="utf-8" standalone="no"?>
<!DOCTYPE svg PUBLIC "-//W3C//DTD SVG 1.1//EN"
  "http://www.w3.org/Graphics/SVG/1.1/DTD/svg11.dtd">
<svg xmlns:xlink="http://www.w3.org/1999/xlink" width="216pt" height="216pt" viewBox="0 0 216 216" xmlns="http://www.w3.org/2000/svg" version="1.1">
 <metadata>
  <rdf:RDF xmlns:dc="http://purl.org/dc/elements/1.1/" xmlns:cc="http://creativecommons.org/ns#" xmlns:rdf="http://www.w3.org/1999/02/22-rdf-syntax-ns#">
   <cc:Work>
    <dc:type rdf:resource="http://purl.org/dc/dcmitype/StillImage"/>
    <dc:date>2025-06-18T12:18:42.308917</dc:date>
    <dc:format>image/svg+xml</dc:format>
    <dc:creator>
     <cc:Agent>
      <dc:title>Matplotlib v3.10.0, https://matplotlib.org/</dc:title>
     </cc:Agent>
    </dc:creator>
   </cc:Work>
  </rdf:RDF>
 </metadata>
 <defs>
  <style type="text/css">*{stroke-linejoin: round; stroke-linecap: butt}</style>
 </defs>
 <g id="figure_1">
  <g id="patch_1">
   <path d="M 0 216 
L 216 216 
L 216 0 
L 0 0 
L 0 216 
z
" style="fill: none"/>
  </g>
  <g id="axes_1">
   <g id="line2d_1">
    <path d="M 92.640784 82.518997 
L 111.156591 93.13711 
L 117.440173 96.470091 
L 127.996736 101.529105 
L 131.042597 103.284784 
L 132.225584 104.260333 
L 133.124381 105.417485 
L 133.471338 106.276963 
L 133.590843 107.051943 
L 133.513881 107.873401 
L 133.250419 108.648548 
L 132.324111 110.107141 
L 130.251079 112.384931 
L 128.901313 113.818694 
L 127.852152 115.162723 
L 126.712838 117.328671 
L 126.195292 119.525731 
L 126.104555 125.247088 
L 125.273257 128.670054 
L 124.833887 129.702258 
L 124.050827 131.103024 
L 122.069663 133.364401 
L 120.566057 134.552622 
L 118.47213 135.853899 
L 116.07023 137.033872 
L 114.036558 137.7916 
L 111.85273 138.409306 
L 109.87165 138.782224 
L 107.622166 139.032456 
L 105.313474 139.099871 
L 102.201413 138.851985 
L 99.875218 138.418185 
L 97.004385 137.514782 
L 94.752096 136.550161 
L 90.728173 134.39284 
L 72.90561 123.961813 
L 67.974181 121.532445 
L 65.976644 120.677782 
L 62.324384 119.709226 
L 57.939812 119.703867 
L 55.592639 120.182011 
L 52.369908 121.681179 
L 48.68817 124.028352 
L 47.559534 124.60921 
L 46.269395 125.103266 
L 43.290489 125.643089 
L 41.611227 125.582877 
L 39.481498 125.102597 
L 37.281047 124.109754 
L 34.632726 122.393017 
L 32.769977 120.860142 
L 30.602019 119.285102 
L 29.311378 118.630255 
L 27.2275 117.950285 
L 24.680301 117.616644 
L 20.854939 118.119996 
L 18.570659 118.886475 
L 15.728132 120.306336 
L 13.862118 121.705303 
L 12.435056 123.194588 
L 11.478223 124.535394 
L 10.392591 126.725879 
L 10.109657 127.699796 
L 9.818182 129.941785 
L 9.891543 131.286233 
L 10.056605 132.231299 
L 10.4706 133.497822 
L 11.214804 134.76602 
L 12.713134 136.073912 
L 13.693038 136.528315 
L 15.317866 136.920578 
L 16.827041 137.026348 
L 25.081318 137.04184 
L 28.871131 137.411324 
L 34.78975 138.234707 
L 40.635218 139.232323 
L 44.379013 139.41853 
L 46.107349 139.371381 
L 54.536906 138.733659 
L 62.746379 138.222477 
L 76.894529 137.596353 
L 79.457974 137.638895 
L 81.3788 137.809526 
L 85.208349 138.560596 
L 90.480078 140.146104 
L 96.673424 142.029578 
L 104.602477 144.076941 
L 108.576655 144.809755 
L 113.534547 145.349744 
L 115.822387 145.441529 
L 118.819717 145.429301 
L 122.273166 145.242674 
L 129.019775 144.439221 
L 131.552989 143.994197 
L 135.208097 143.153435 
L 137.247756 142.567176 
L 144.163322 140.173104 
L 160.936511 133.789947 
L 164.711375 132.218675 
L 170.196444 129.70288 
L 178.618505 125.446981 
L 184.361217 122.367538 
L 187.777483 120.359785 
L 191.532833 117.851569 
L 193.657411 115.915334 
L 194.739233 114.372074 
L 195.059601 113.713794 
L 195.373185 112.10492 
L 195.203224 111.397732 
L 194.864097 110.762482 
L 193.873431 109.621745 
L 191.713136 107.887965 
L 190.273092 106.736508 
L 188.999451 105.433975 
L 188.231171 104.232648 
L 187.914739 103.490957 
L 187.621588 101.903271 
L 187.932702 99.84548 
L 188.507948 98.544412 
L 189.099316 97.70499 
L 190.250019 96.621535 
L 190.831589 96.25787 
L 191.832932 95.813517 
L 193.576133 95.4357 
L 198.740584 95.083676 
L 199.918462 94.778424 
L 202.110246 93.632201 
L 204.238801 91.431708 
L 205.298221 89.625111 
L 205.937408 87.886013 
L 206.181818 86.187112 
L 206.1206 85.568569 
L 205.229173 84.622456 
L 204.490832 84.278472 
L 203.854786 83.838474 
L 203.624402 83.291868 
L 203.616697 82.314895 
L 204.239888 79.361405 
L 205.196343 76.118953 
L 205.584168 74.745194 
L 205.501134 73.123758 
L 205.221676 72.684514 
L 204.838541 72.301714 
L 204.283477 71.911712 
L 202.847285 71.248742 
L 201.061876 70.796056 
L 199.444418 70.614832 
L 197.27667 70.558471 
L 180.138224 70.641926 
L 163.66388 70.834249 
L 136.877174 71.069745 
L 86.842631 71.153036 
L 58.518234 71.600701 
L 52.824178 71.535422 
L 37.264961 70.70534 
L 34.555673 71.024452 
L 33.131332 71.457165 
L 32.34287 71.946908 
L 31.96007 72.330043 
L 31.646443 72.803204 
L 31.466098 73.311329 
L 31.394035 73.894909 
L 31.519527 74.841357 
L 31.95023 75.829971 
L 32.394876 76.461536 
L 33.406394 77.443074 
L 35.111618 78.624888 
L 38.717902 80.54588 
L 40.376186 81.518038 
L 42.835997 82.752737 
L 44.730149 83.294067 
L 47.32412 83.454397 
L 49.995974 82.819649 
L 51.975504 82.024193 
L 60.212906 77.774743 
L 63.994218 76.388129 
L 65.65828 76.013075 
L 68.312966 75.643046 
L 71.211058 75.436195 
L 74.8866 75.558756 
L 77.823675 76.090078 
L 79.997119 76.687684 
L 83.108133 77.661935 
L 85.961798 78.830057 
L 89.674063 80.760555 
L 92.640784 82.518997 
L 92.640784 82.518997 
" clip-path="url(#p5cb2724327)" style="fill: none; stroke: #ffffff; stroke-width: 9; stroke-linecap: square"/>
   </g>
   <g id="line2d_2">
    <path d="M 92.640784 82.518997 
L 111.156591 93.13711 
L 117.440173 96.470091 
L 127.996736 101.529105 
L 131.042597 103.284784 
L 132.225584 104.260333 
L 133.124381 105.417485 
L 133.471338 106.276963 
L 133.590843 107.051943 
L 133.513881 107.873401 
L 133.250419 108.648548 
L 132.324111 110.107141 
L 130.251079 112.384931 
L 128.901313 113.818694 
L 127.852152 115.162723 
L 126.712838 117.328671 
L 126.195292 119.525731 
L 126.104555 125.247088 
L 125.273257 128.670054 
L 124.833887 129.702258 
L 124.050827 131.103024 
L 122.069663 133.364401 
L 120.566057 134.552622 
L 118.47213 135.853899 
L 116.07023 137.033872 
L 114.036558 137.7916 
L 111.85273 138.409306 
L 109.87165 138.782224 
L 107.622166 139.032456 
L 105.313474 139.099871 
L 102.201413 138.851985 
L 99.875218 138.418185 
L 97.004385 137.514782 
L 94.752096 136.550161 
L 90.728173 134.39284 
L 72.90561 123.961813 
L 67.974181 121.532445 
L 65.976644 120.677782 
L 62.324384 119.709226 
L 57.939812 119.703867 
L 55.592639 120.182011 
L 52.369908 121.681179 
L 48.68817 124.028352 
L 47.559534 124.60921 
L 46.269395 125.103266 
L 43.290489 125.643089 
L 41.611227 125.582877 
L 39.481498 125.102597 
L 37.281047 124.109754 
L 34.632726 122.393017 
L 32.769977 120.860142 
L 30.602019 119.285102 
L 29.311378 118.630255 
L 27.2275 117.950285 
L 24.680301 117.616644 
L 20.854939 118.119996 
L 18.570659 118.886475 
L 15.728132 120.306336 
L 13.862118 121.705303 
L 12.435056 123.194588 
L 11.478223 124.535394 
L 10.392591 126.725879 
L 10.109657 127.699796 
L 9.818182 129.941785 
L 9.891543 131.286233 
L 10.056605 132.231299 
L 10.4706 133.497822 
L 11.214804 134.76602 
L 12.713134 136.073912 
L 13.693038 136.528315 
L 15.317866 136.920578 
L 16.827041 137.026348 
L 25.081318 137.04184 
L 28.871131 137.411324 
L 34.78975 138.234707 
L 40.635218 139.232323 
L 44.379013 139.41853 
L 46.107349 139.371381 
L 54.536906 138.733659 
L 62.746379 138.222477 
L 76.894529 137.596353 
L 79.457974 137.638895 
L 81.3788 137.809526 
L 85.208349 138.560596 
L 90.480078 140.146104 
L 96.673424 142.029578 
L 104.602477 144.076941 
L 108.576655 144.809755 
L 113.534547 145.349744 
L 115.822387 145.441529 
L 118.819717 145.429301 
L 122.273166 145.242674 
L 129.019775 144.439221 
L 131.552989 143.994197 
L 135.208097 143.153435 
L 137.247756 142.567176 
L 144.163322 140.173104 
L 160.936511 133.789947 
L 164.711375 132.218675 
L 170.196444 129.70288 
L 178.618505 125.446981 
L 184.361217 122.367538 
L 187.777483 120.359785 
L 191.532833 117.851569 
L 193.657411 115.915334 
L 194.739233 114.372074 
L 195.059601 113.713794 
L 195.373185 112.10492 
L 195.203224 111.397732 
L 194.864097 110.762482 
L 193.873431 109.621745 
L 191.713136 107.887965 
L 190.273092 106.736508 
L 188.999451 105.433975 
L 188.231171 104.232648 
L 187.914739 103.490957 
L 187.621588 101.903271 
L 187.932702 99.84548 
L 188.507948 98.544412 
L 189.099316 97.70499 
L 190.250019 96.621535 
L 190.831589 96.25787 
L 191.832932 95.813517 
L 193.576133 95.4357 
L 198.740584 95.083676 
L 199.918462 94.778424 
L 202.110246 93.632201 
L 204.238801 91.431708 
L 205.298221 89.625111 
L 205.937408 87.886013 
L 206.181818 86.187112 
L 206.1206 85.568569 
L 205.229173 84.622456 
L 204.490832 84.278472 
L 203.854786 83.838474 
L 203.624402 83.291868 
L 203.616697 82.314895 
L 204.239888 79.361405 
L 205.196343 76.118953 
L 205.584168 74.745194 
L 205.501134 73.123758 
L 205.221676 72.684514 
L 204.838541 72.301714 
L 204.283477 71.911712 
L 202.847285 71.248742 
L 201.061876 70.796056 
L 199.444418 70.614832 
L 197.27667 70.558471 
L 180.138224 70.641926 
L 163.66388 70.834249 
L 136.877174 71.069745 
L 86.842631 71.153036 
L 58.518234 71.600701 
L 52.824178 71.535422 
L 37.264961 70.70534 
L 34.555673 71.024452 
L 33.131332 71.457165 
L 32.34287 71.946908 
L 31.96007 72.330043 
L 31.646443 72.803204 
L 31.466098 73.311329 
L 31.394035 73.894909 
L 31.519527 74.841357 
L 31.95023 75.829971 
L 32.394876 76.461536 
L 33.406394 77.443074 
L 35.111618 78.624888 
L 38.717902 80.54588 
L 40.376186 81.518038 
L 42.835997 82.752737 
L 44.730149 83.294067 
L 47.32412 83.454397 
L 49.995974 82.819649 
L 51.975504 82.024193 
L 60.212906 77.774743 
L 63.994218 76.388129 
L 65.65828 76.013075 
L 68.312966 75.643046 
L 71.211058 75.436195 
L 74.8866 75.558756 
L 77.823675 76.090078 
L 79.997119 76.687684 
L 83.108133 77.661935 
L 85.961798 78.830057 
L 89.674063 80.760555 
L 92.640784 82.518997 
L 92.640784 82.518997 
" clip-path="url(#p5cb2724327)" style="fill: none; stroke: #000000; stroke-opacity: 0.5; stroke-width: 3; stroke-linecap: square"/>
   </g>
  </g>
 </g>
 <defs>
  <clipPath id="p5cb2724327">
   <rect x="0" y="0" width="216" height="216"/>
  </clipPath>
 </defs>
</svg>
