<?xml version="1.0" encoding="utf-8" standalone="no"?>
<!DOCTYPE svg PUBLIC "-//W3C//DTD SVG 1.1//EN"
  "http://www.w3.org/Graphics/SVG/1.1/DTD/svg11.dtd">
<svg xmlns:xlink="http://www.w3.org/1999/xlink" width="216pt" height="216pt" viewBox="0 0 216 216" xmlns="http://www.w3.org/2000/svg" version="1.1">
 <metadata>
  <rdf:RDF xmlns:dc="http://purl.org/dc/elements/1.1/" xmlns:cc="http://creativecommons.org/ns#" xmlns:rdf="http://www.w3.org/1999/02/22-rdf-syntax-ns#">
   <cc:Work>
    <dc:type rdf:resource="http://purl.org/dc/dcmitype/StillImage"/>
    <dc:date>2025-06-19T13:35:20.945682</dc:date>
    <dc:format>image/svg+xml</dc:format>
    <dc:creator>
     <cc:Agent>
      <dc:title>Matplotlib v3.10.0, https://matplotlib.org/</dc:title>
     </cc:Agent>
    </dc:creator>
   </cc:Work>
  </rdf:RDF>
 </metadata>
 <defs>
  <style type="text/css">*{stroke-linejoin: round; stroke-linecap: butt}</style>
 </defs>
 <g id="figure_1">
  <g id="patch_1">
   <path d="M 0 216 
L 216 216 
L 216 0 
L 0 0 
L 0 216 
z
" style="fill: none"/>
  </g>
  <g id="axes_1">
   <g id="line2d_1">
    <path d="M 38.658937 86.042818 
L 40.1133 84.415904 
L 44.168261 80.706046 
L 45.844475 79.251683 
L 50.663593 75.517175 
L 52.684911 74.136763 
L 58.058658 70.882934 
L 60.351129 69.699724 
L 61.398763 69.243695 
L 62.71755 68.836966 
L 64.800493 68.997193 
L 65.872777 69.477872 
L 67.684569 70.648757 
L 71.936731 74.136763 
L 74.808482 76.466209 
L 78.296487 78.943556 
L 85.469701 83.331294 
L 96.019994 89.740351 
L 98.472691 91.601442 
L 100.309132 93.166731 
L 102.761829 95.101773 
L 105.880081 96.864264 
L 109.220186 98.1091 
L 113.829777 99.637414 
L 115.703193 100.40157 
L 118.020314 101.48618 
L 120.904389 103.162395 
L 123.899391 105.269988 
L 129.026636 109.263324 
L 134.227832 112.319951 
L 135.854746 112.886906 
L 138.529295 113.416885 
L 141.277794 113.429211 
L 142.917034 113.145733 
L 144.482323 112.591103 
L 146.614566 111.321617 
L 148.598909 109.485176 
L 149.720494 108.043138 
L 150.780453 106.145071 
L 151.482985 104.382581 
L 152.234816 101.288978 
L 153.270125 93.819962 
L 154.046607 92.205373 
L 155.180517 90.972862 
L 157.201835 89.740351 
L 160.480314 88.680392 
L 162.144204 88.372264 
L 166.630543 88.002511 
L 171.005957 87.719033 
L 174.789766 87.115103 
L 180.064912 86.153744 
L 184.699153 85.586789 
L 187.312076 85.389588 
L 189.912674 85.377262 
L 190.664506 85.488188 
L 191.453313 85.783991 
L 192.26677 86.523498 
L 192.79675 87.571132 
L 193.018602 88.705042 
L 192.833725 90.097779 
L 192.118869 91.626093 
L 190.442654 94.510168 
L 189.764773 95.828955 
L 188.766439 98.183051 
L 187.891356 101.054801 
L 187.632529 102.521489 
L 187.607879 103.532148 
L 187.718805 104.259329 
L 188.150184 105.356264 
L 188.828065 105.960194 
L 189.407345 106.04647 
L 190.085226 105.738343 
L 190.615206 105.183713 
L 191.10821 104.345605 
L 191.514938 103.051469 
L 191.675165 101.53548 
L 191.773766 98.429553 
L 191.983293 97.184717 
L 192.500947 96.075457 
L 193.289754 95.262 
L 194.140187 94.805971 
L 195.06457 94.596444 
L 195.717801 94.584119 
L 197.406341 94.842946 
L 201.2641 96.260334 
L 202.299409 96.753338 
L 203.950973 97.690046 
L 204.789081 98.306302 
L 205.417661 98.910232 
L 206.181818 100.660398 
L 206.058567 101.695707 
L 205.82439 102.373588 
L 205.257435 103.507498 
L 204.296077 104.88791 
L 202.582886 106.724351 
L 200.031589 108.979846 
L 187.484628 118.913884 
L 183.898021 121.046128 
L 179.387031 123.289298 
L 173.483304 125.815945 
L 169.58857 127.270308 
L 166.396366 128.194691 
L 160.529614 128.884897 
L 156.203501 128.478169 
L 153.664529 127.861913 
L 151.643211 127.221007 
L 143.373063 124.324607 
L 134.153881 121.24333 
L 128.274804 118.889234 
L 122.075274 115.770981 
L 119.462351 114.168717 
L 116.602926 112.147399 
L 111.007327 107.68571 
L 108.961359 106.108096 
L 107.938374 105.454865 
L 106.829115 105.085112 
L 105.276151 105.282313 
L 103.525985 105.750668 
L 102.774154 105.762993 
L 102.022322 105.578116 
L 100.703535 104.703033 
L 99.236848 102.792641 
L 98.485016 101.523155 
L 97.671559 100.438546 
L 94.898409 98.0598 
L 87.749846 92.686052 
L 79.159245 85.845617 
L 75.116609 82.394586 
L 72.97204 80.496519 
L 70.10029 78.610778 
L 68.263849 78.130098 
L 65.922078 78.080798 
L 62.729875 78.561477 
L 60.597631 79.165408 
L 58.477712 80.028165 
L 55.002031 82.000183 
L 51.871454 84.317303 
L 48.02602 87.891585 
L 46.152603 90.504508 
L 45.487047 95.040148 
L 43.53968 99.871591 
L 42.257869 102.213361 
L 35.663935 111.66672 
L 34.283523 113.268984 
L 32.82916 114.747997 
L 31.005044 115.955858 
L 27.68959 116.313286 
L 25.791523 118.112752 
L 24.472736 120.023144 
L 23.73323 121.280305 
L 22.426768 124.06578 
L 21.761212 125.889896 
L 21.169607 128.009814 
L 20.614977 131.49782 
L 20.528702 133.630064 
L 20.651953 135.355579 
L 21.071006 137.228996 
L 22.537694 142.417867 
L 22.636295 144.168032 
L 22.451419 144.895214 
L 22.106315 145.536119 
L 21.280533 146.337252 
L 20.738228 146.707005 
L 19.579668 147.126058 
L 18.778536 147.163034 
L 17.5337 146.805606 
L 16.030037 145.893548 
L 12.97341 143.231324 
L 11.901125 142.134389 
L 10.570013 140.384224 
L 10.003058 139.299614 
L 9.818182 138.325931 
L 9.879807 137.549449 
L 10.20026 136.58809 
L 13.108986 131.584096 
L 13.737566 129.575103 
L 14.945427 123.437199 
L 15.758884 120.848926 
L 17.669276 116.498163 
L 20.775204 110.631411 
L 25.692922 102.164061 
L 27.18426 99.859266 
L 31.214571 94.547144 
L 38.658937 86.042818 
L 38.658937 86.042818 
" clip-path="url(#p0e6dcf5b60)" style="fill: none; stroke: #ffffff; stroke-width: 9; stroke-linecap: square"/>
   </g>
   <g id="line2d_2">
    <path d="M 38.658937 86.042818 
L 40.1133 84.415904 
L 44.168261 80.706046 
L 45.844475 79.251683 
L 50.663593 75.517175 
L 52.684911 74.136763 
L 58.058658 70.882934 
L 60.351129 69.699724 
L 61.398763 69.243695 
L 62.71755 68.836966 
L 64.800493 68.997193 
L 65.872777 69.477872 
L 67.684569 70.648757 
L 71.936731 74.136763 
L 74.808482 76.466209 
L 78.296487 78.943556 
L 85.469701 83.331294 
L 96.019994 89.740351 
L 98.472691 91.601442 
L 100.309132 93.166731 
L 102.761829 95.101773 
L 105.880081 96.864264 
L 109.220186 98.1091 
L 113.829777 99.637414 
L 115.703193 100.40157 
L 118.020314 101.48618 
L 120.904389 103.162395 
L 123.899391 105.269988 
L 129.026636 109.263324 
L 134.227832 112.319951 
L 135.854746 112.886906 
L 138.529295 113.416885 
L 141.277794 113.429211 
L 142.917034 113.145733 
L 144.482323 112.591103 
L 146.614566 111.321617 
L 148.598909 109.485176 
L 149.720494 108.043138 
L 150.780453 106.145071 
L 151.482985 104.382581 
L 152.234816 101.288978 
L 153.270125 93.819962 
L 154.046607 92.205373 
L 155.180517 90.972862 
L 157.201835 89.740351 
L 160.480314 88.680392 
L 162.144204 88.372264 
L 166.630543 88.002511 
L 171.005957 87.719033 
L 174.789766 87.115103 
L 180.064912 86.153744 
L 184.699153 85.586789 
L 187.312076 85.389588 
L 189.912674 85.377262 
L 190.664506 85.488188 
L 191.453313 85.783991 
L 192.26677 86.523498 
L 192.79675 87.571132 
L 193.018602 88.705042 
L 192.833725 90.097779 
L 192.118869 91.626093 
L 190.442654 94.510168 
L 189.764773 95.828955 
L 188.766439 98.183051 
L 187.891356 101.054801 
L 187.632529 102.521489 
L 187.607879 103.532148 
L 187.718805 104.259329 
L 188.150184 105.356264 
L 188.828065 105.960194 
L 189.407345 106.04647 
L 190.085226 105.738343 
L 190.615206 105.183713 
L 191.10821 104.345605 
L 191.514938 103.051469 
L 191.675165 101.53548 
L 191.773766 98.429553 
L 191.983293 97.184717 
L 192.500947 96.075457 
L 193.289754 95.262 
L 194.140187 94.805971 
L 195.06457 94.596444 
L 195.717801 94.584119 
L 197.406341 94.842946 
L 201.2641 96.260334 
L 202.299409 96.753338 
L 203.950973 97.690046 
L 204.789081 98.306302 
L 205.417661 98.910232 
L 206.181818 100.660398 
L 206.058567 101.695707 
L 205.82439 102.373588 
L 205.257435 103.507498 
L 204.296077 104.88791 
L 202.582886 106.724351 
L 200.031589 108.979846 
L 187.484628 118.913884 
L 183.898021 121.046128 
L 179.387031 123.289298 
L 173.483304 125.815945 
L 169.58857 127.270308 
L 166.396366 128.194691 
L 160.529614 128.884897 
L 156.203501 128.478169 
L 153.664529 127.861913 
L 151.643211 127.221007 
L 143.373063 124.324607 
L 134.153881 121.24333 
L 128.274804 118.889234 
L 122.075274 115.770981 
L 119.462351 114.168717 
L 116.602926 112.147399 
L 111.007327 107.68571 
L 108.961359 106.108096 
L 107.938374 105.454865 
L 106.829115 105.085112 
L 105.276151 105.282313 
L 103.525985 105.750668 
L 102.774154 105.762993 
L 102.022322 105.578116 
L 100.703535 104.703033 
L 99.236848 102.792641 
L 98.485016 101.523155 
L 97.671559 100.438546 
L 94.898409 98.0598 
L 87.749846 92.686052 
L 79.159245 85.845617 
L 75.116609 82.394586 
L 72.97204 80.496519 
L 70.10029 78.610778 
L 68.263849 78.130098 
L 65.922078 78.080798 
L 62.729875 78.561477 
L 60.597631 79.165408 
L 58.477712 80.028165 
L 55.002031 82.000183 
L 51.871454 84.317303 
L 48.02602 87.891585 
L 46.152603 90.504508 
L 45.487047 95.040148 
L 43.53968 99.871591 
L 42.257869 102.213361 
L 35.663935 111.66672 
L 34.283523 113.268984 
L 32.82916 114.747997 
L 31.005044 115.955858 
L 27.68959 116.313286 
L 25.791523 118.112752 
L 24.472736 120.023144 
L 23.73323 121.280305 
L 22.426768 124.06578 
L 21.761212 125.889896 
L 21.169607 128.009814 
L 20.614977 131.49782 
L 20.528702 133.630064 
L 20.651953 135.355579 
L 21.071006 137.228996 
L 22.537694 142.417867 
L 22.636295 144.168032 
L 22.451419 144.895214 
L 22.106315 145.536119 
L 21.280533 146.337252 
L 20.738228 146.707005 
L 19.579668 147.126058 
L 18.778536 147.163034 
L 17.5337 146.805606 
L 16.030037 145.893548 
L 12.97341 143.231324 
L 11.901125 142.134389 
L 10.570013 140.384224 
L 10.003058 139.299614 
L 9.818182 138.325931 
L 9.879807 137.549449 
L 10.20026 136.58809 
L 13.108986 131.584096 
L 13.737566 129.575103 
L 14.945427 123.437199 
L 15.758884 120.848926 
L 17.669276 116.498163 
L 20.775204 110.631411 
L 25.692922 102.164061 
L 27.18426 99.859266 
L 31.214571 94.547144 
L 38.658937 86.042818 
L 38.658937 86.042818 
" clip-path="url(#p0e6dcf5b60)" style="fill: none; stroke: #000000; stroke-width: 3; stroke-linecap: square"/>
   </g>
  </g>
 </g>
 <defs>
  <clipPath id="p0e6dcf5b60">
   <rect x="0" y="0" width="216" height="216"/>
  </clipPath>
 </defs>
</svg>
