<?xml version="1.0" encoding="utf-8" standalone="no"?>
<!DOCTYPE svg PUBLIC "-//W3C//DTD SVG 1.1//EN"
  "http://www.w3.org/Graphics/SVG/1.1/DTD/svg11.dtd">
<svg xmlns:xlink="http://www.w3.org/1999/xlink" width="216pt" height="216pt" viewBox="0 0 216 216" xmlns="http://www.w3.org/2000/svg" version="1.1">
 <metadata>
  <rdf:RDF xmlns:dc="http://purl.org/dc/elements/1.1/" xmlns:cc="http://creativecommons.org/ns#" xmlns:rdf="http://www.w3.org/1999/02/22-rdf-syntax-ns#">
   <cc:Work>
    <dc:type rdf:resource="http://purl.org/dc/dcmitype/StillImage"/>
    <dc:date>2025-05-31T19:14:34.000577</dc:date>
    <dc:format>image/svg+xml</dc:format>
    <dc:creator>
     <cc:Agent>
      <dc:title>Matplotlib v3.10.0, https://matplotlib.org/</dc:title>
     </cc:Agent>
    </dc:creator>
   </cc:Work>
  </rdf:RDF>
 </metadata>
 <defs>
  <style type="text/css">*{stroke-linejoin: round; stroke-linecap: butt}</style>
 </defs>
 <g id="figure_1">
  <g id="patch_1">
   <path d="M 0 216 
L 216 216 
L 216 0 
L 0 0 
L 0 216 
z
" style="fill: none"/>
  </g>
  <g id="axes_1">
   <g id="line2d_1">
    <path d="M 43.8726 75.03694 
L 53.573562 51.208952 
L 54.68513 48.096561 
L 59.616453 31.564505 
L 60.525918 29.563681 
L 61.637486 27.785172 
L 62.890527 26.350238 
L 64.386092 25.218459 
L 65.861447 24.511097 
L 68.509001 24.026049 
L 70.307721 24.207942 
L 72.874434 25.178038 
L 74.289158 26.451289 
L 74.895468 27.219282 
L 75.865564 28.91695 
L 76.613346 31.645346 
L 76.694188 33.605749 
L 76.22935 36.798982 
L 75.562409 39.224222 
L 73.21801 45.792582 
L 71.156555 50.562222 
L 68.246267 57.191212 
L 66.467757 62.870317 
L 66.06355 66.306074 
L 66.04334 67.943112 
L 66.710281 77.44197 
L 66.265654 81.160672 
L 65.962499 82.049927 
L 64.386092 84.677271 
L 61.698117 87.00146 
L 58.161308 88.80018 
L 48.66245 92.518882 
L 46.075527 94.155919 
L 44.559751 95.833377 
L 43.791759 97.308732 
L 43.306711 99.895655 
L 43.387552 101.249747 
L 43.710917 102.522999 
L 44.276807 103.79625 
L 47.106254 106.261911 
L 48.945395 106.969273 
L 50.784535 107.252218 
L 53.128934 107.050114 
L 57.514578 105.857704 
L 61.334331 104.685505 
L 70.550245 101.310378 
L 74.167896 100.178599 
L 76.673977 99.511658 
L 79.80658 98.864928 
L 84.960216 98.238407 
L 90.5989 98.117145 
L 96.399266 98.581983 
L 100.542386 99.248924 
L 109.535986 100.946592 
L 115.659718 101.755006 
L 118.468955 101.856057 
L 123.764063 101.43164 
L 128.37202 100.279651 
L 131.059995 99.269134 
L 134.556383 97.611887 
L 137.931509 95.691905 
L 144.277555 91.83173 
L 147.672892 90.0128 
L 151.209701 88.517235 
L 154.584827 87.506718 
L 157.434485 86.940829 
L 161.153187 86.516412 
L 166.852502 86.233467 
L 173.34002 86.172836 
L 181.444365 86.314308 
L 185.668326 86.556832 
L 188.578614 86.900408 
L 191.367641 87.466297 
L 193.73225 88.23429 
L 197.026535 89.911748 
L 199.957034 92.195516 
L 203.392792 96.459897 
L 204.969198 99.713762 
L 205.797822 102.522999 
L 206.181818 107.878738 
L 205.757401 111.274075 
L 203.594895 117.296755 
L 202.543957 119.135896 
L 193.408885 133.869232 
L 191.529324 137.36562 
L 188.33609 144.378607 
L 186.173584 149.148247 
L 184.758861 151.75538 
L 182.374041 154.7263 
L 178.897863 156.868595 
L 174.51222 157.939743 
L 173.117707 158.081216 
L 169.318163 158.162057 
L 164.508103 157.778061 
L 162.365807 157.454695 
L 158.909839 156.686702 
L 155.736816 155.716606 
L 153.149893 154.685879 
L 151.229911 153.756203 
L 148.541936 152.159587 
L 146.98574 150.987387 
L 144.58071 148.76425 
L 143.267038 147.147423 
L 142.579887 146.056065 
L 141.710842 143.691456 
L 141.690632 142.034208 
L 141.953367 141.124743 
L 143.064935 139.14413 
L 144.459448 137.507092 
L 145.914593 136.213631 
L 147.288896 135.182904 
L 150.704443 133.242711 
L 153.53389 132.110932 
L 155.95913 131.40357 
L 158.788577 130.77705 
L 165.457989 129.806954 
L 168.974587 129.099592 
L 172.248662 128.190127 
L 173.744227 127.664658 
L 175.623788 126.856245 
L 178.15008 125.259628 
L 179.443542 123.925746 
L 180.413638 122.066395 
L 180.858266 120.61125 
L 181.019948 119.39863 
L 180.999738 118.307272 
L 180.332797 115.295932 
L 179.686066 113.962049 
L 177.947977 111.658071 
L 177.099143 110.910289 
L 173.92612 109.151989 
L 171.884876 108.545679 
L 166.630188 107.616004 
L 158.566264 106.585276 
L 153.291366 106.18107 
L 148.360043 106.140649 
L 140.174857 106.686328 
L 135.526479 107.272428 
L 129.362326 108.424417 
L 126.512669 109.091358 
L 120.712302 110.647554 
L 111.880385 113.578053 
L 103.351622 116.670235 
L 94.539915 119.418841 
L 90.821213 120.692092 
L 83.848647 123.521539 
L 80.594783 125.017104 
L 75.299674 127.583817 
L 73.197799 128.230548 
L 71.41929 128.149706 
L 69.741832 127.260451 
L 66.690071 124.612897 
L 65.133875 123.784273 
L 62.344848 123.218384 
L 60.020659 123.440698 
L 58.747408 123.865115 
L 57.979415 124.249111 
L 56.787006 125.097945 
L 55.938171 126.047831 
L 55.352072 126.977507 
L 54.927654 128.068865 
L 54.66492 129.645271 
L 54.725551 131.565253 
L 55.614806 137.183727 
L 60.869494 167.216288 
L 62.284217 175.563157 
L 62.607583 178.170291 
L 62.324638 183.404768 
L 60.808863 186.921367 
L 59.737715 188.33609 
L 58.969722 189.124294 
L 57.150792 190.437965 
L 54.179872 191.610165 
L 52.017366 191.91332 
L 49.511284 191.973951 
L 38.840226 191.387851 
L 35.182155 190.923014 
L 33.322804 190.559228 
L 31.200719 190.013548 
L 27.482017 188.740297 
L 25.359931 187.871253 
L 21.802912 185.951271 
L 19.418092 184.253602 
L 16.144017 181.201841 
L 13.213518 177.341667 
L 12.425315 176.027995 
L 11.010592 172.976234 
L 10.262809 170.652045 
L 9.818182 165.094203 
L 10.121337 162.52749 
L 10.505333 160.647928 
L 11.455219 157.596168 
L 14.830345 149.613084 
L 19.963771 136.314682 
L 39.870953 84.798533 
L 43.8726 75.03694 
L 43.8726 75.03694 
" clip-path="url(#pa219a58cc4)" style="fill: none; stroke: #fb2c36; stroke-width: 9; stroke-linecap: square"/>
   </g>
   <g id="line2d_2">
    <path d="M 43.8726 75.03694 
L 53.573562 51.208952 
L 54.68513 48.096561 
L 59.616453 31.564505 
L 60.525918 29.563681 
L 61.637486 27.785172 
L 62.890527 26.350238 
L 64.386092 25.218459 
L 65.861447 24.511097 
L 68.509001 24.026049 
L 70.307721 24.207942 
L 72.874434 25.178038 
L 74.289158 26.451289 
L 74.895468 27.219282 
L 75.865564 28.91695 
L 76.613346 31.645346 
L 76.694188 33.605749 
L 76.22935 36.798982 
L 75.562409 39.224222 
L 73.21801 45.792582 
L 71.156555 50.562222 
L 68.246267 57.191212 
L 66.467757 62.870317 
L 66.06355 66.306074 
L 66.04334 67.943112 
L 66.710281 77.44197 
L 66.265654 81.160672 
L 65.962499 82.049927 
L 64.386092 84.677271 
L 61.698117 87.00146 
L 58.161308 88.80018 
L 48.66245 92.518882 
L 46.075527 94.155919 
L 44.559751 95.833377 
L 43.791759 97.308732 
L 43.306711 99.895655 
L 43.387552 101.249747 
L 43.710917 102.522999 
L 44.276807 103.79625 
L 47.106254 106.261911 
L 48.945395 106.969273 
L 50.784535 107.252218 
L 53.128934 107.050114 
L 57.514578 105.857704 
L 61.334331 104.685505 
L 70.550245 101.310378 
L 74.167896 100.178599 
L 76.673977 99.511658 
L 79.80658 98.864928 
L 84.960216 98.238407 
L 90.5989 98.117145 
L 96.399266 98.581983 
L 100.542386 99.248924 
L 109.535986 100.946592 
L 115.659718 101.755006 
L 118.468955 101.856057 
L 123.764063 101.43164 
L 128.37202 100.279651 
L 131.059995 99.269134 
L 134.556383 97.611887 
L 137.931509 95.691905 
L 144.277555 91.83173 
L 147.672892 90.0128 
L 151.209701 88.517235 
L 154.584827 87.506718 
L 157.434485 86.940829 
L 161.153187 86.516412 
L 166.852502 86.233467 
L 173.34002 86.172836 
L 181.444365 86.314308 
L 185.668326 86.556832 
L 188.578614 86.900408 
L 191.367641 87.466297 
L 193.73225 88.23429 
L 197.026535 89.911748 
L 199.957034 92.195516 
L 203.392792 96.459897 
L 204.969198 99.713762 
L 205.797822 102.522999 
L 206.181818 107.878738 
L 205.757401 111.274075 
L 203.594895 117.296755 
L 202.543957 119.135896 
L 193.408885 133.869232 
L 191.529324 137.36562 
L 188.33609 144.378607 
L 186.173584 149.148247 
L 184.758861 151.75538 
L 182.374041 154.7263 
L 178.897863 156.868595 
L 174.51222 157.939743 
L 173.117707 158.081216 
L 169.318163 158.162057 
L 164.508103 157.778061 
L 162.365807 157.454695 
L 158.909839 156.686702 
L 155.736816 155.716606 
L 153.149893 154.685879 
L 151.229911 153.756203 
L 148.541936 152.159587 
L 146.98574 150.987387 
L 144.58071 148.76425 
L 143.267038 147.147423 
L 142.579887 146.056065 
L 141.710842 143.691456 
L 141.690632 142.034208 
L 141.953367 141.124743 
L 143.064935 139.14413 
L 144.459448 137.507092 
L 145.914593 136.213631 
L 147.288896 135.182904 
L 150.704443 133.242711 
L 153.53389 132.110932 
L 155.95913 131.40357 
L 158.788577 130.77705 
L 165.457989 129.806954 
L 168.974587 129.099592 
L 172.248662 128.190127 
L 173.744227 127.664658 
L 175.623788 126.856245 
L 178.15008 125.259628 
L 179.443542 123.925746 
L 180.413638 122.066395 
L 180.858266 120.61125 
L 181.019948 119.39863 
L 180.999738 118.307272 
L 180.332797 115.295932 
L 179.686066 113.962049 
L 177.947977 111.658071 
L 177.099143 110.910289 
L 173.92612 109.151989 
L 171.884876 108.545679 
L 166.630188 107.616004 
L 158.566264 106.585276 
L 153.291366 106.18107 
L 148.360043 106.140649 
L 140.174857 106.686328 
L 135.526479 107.272428 
L 129.362326 108.424417 
L 126.512669 109.091358 
L 120.712302 110.647554 
L 111.880385 113.578053 
L 103.351622 116.670235 
L 94.539915 119.418841 
L 90.821213 120.692092 
L 83.848647 123.521539 
L 80.594783 125.017104 
L 75.299674 127.583817 
L 73.197799 128.230548 
L 71.41929 128.149706 
L 69.741832 127.260451 
L 66.690071 124.612897 
L 65.133875 123.784273 
L 62.344848 123.218384 
L 60.020659 123.440698 
L 58.747408 123.865115 
L 57.979415 124.249111 
L 56.787006 125.097945 
L 55.938171 126.047831 
L 55.352072 126.977507 
L 54.927654 128.068865 
L 54.66492 129.645271 
L 54.725551 131.565253 
L 55.614806 137.183727 
L 60.869494 167.216288 
L 62.284217 175.563157 
L 62.607583 178.170291 
L 62.324638 183.404768 
L 60.808863 186.921367 
L 59.737715 188.33609 
L 58.969722 189.124294 
L 57.150792 190.437965 
L 54.179872 191.610165 
L 52.017366 191.91332 
L 49.511284 191.973951 
L 38.840226 191.387851 
L 35.182155 190.923014 
L 33.322804 190.559228 
L 31.200719 190.013548 
L 27.482017 188.740297 
L 25.359931 187.871253 
L 21.802912 185.951271 
L 19.418092 184.253602 
L 16.144017 181.201841 
L 13.213518 177.341667 
L 12.425315 176.027995 
L 11.010592 172.976234 
L 10.262809 170.652045 
L 9.818182 165.094203 
L 10.121337 162.52749 
L 10.505333 160.647928 
L 11.455219 157.596168 
L 14.830345 149.613084 
L 19.963771 136.314682 
L 39.870953 84.798533 
L 43.8726 75.03694 
L 43.8726 75.03694 
" clip-path="url(#pa219a58cc4)" style="fill: none; stroke: #000000; stroke-width: 3; stroke-linecap: square"/>
   </g>
  </g>
 </g>
 <defs>
  <clipPath id="pa219a58cc4">
   <rect x="0" y="0" width="216" height="216"/>
  </clipPath>
 </defs>
</svg>
