<?xml version="1.0" encoding="utf-8" standalone="no"?>
<!DOCTYPE svg PUBLIC "-//W3C//DTD SVG 1.1//EN"
  "http://www.w3.org/Graphics/SVG/1.1/DTD/svg11.dtd">
<svg xmlns:xlink="http://www.w3.org/1999/xlink" width="216pt" height="216pt" viewBox="0 0 216 216" xmlns="http://www.w3.org/2000/svg" version="1.1">
 <metadata>
  <rdf:RDF xmlns:dc="http://purl.org/dc/elements/1.1/" xmlns:cc="http://creativecommons.org/ns#" xmlns:rdf="http://www.w3.org/1999/02/22-rdf-syntax-ns#">
   <cc:Work>
    <dc:type rdf:resource="http://purl.org/dc/dcmitype/StillImage"/>
    <dc:date>2025-06-30T23:41:14.875616</dc:date>
    <dc:format>image/svg+xml</dc:format>
    <dc:creator>
     <cc:Agent>
      <dc:title>Matplotlib v3.10.0, https://matplotlib.org/</dc:title>
     </cc:Agent>
    </dc:creator>
   </cc:Work>
  </rdf:RDF>
 </metadata>
 <defs>
  <style type="text/css">*{stroke-linejoin: round; stroke-linecap: butt}</style>
 </defs>
 <g id="figure_1">
  <g id="patch_1">
   <path d="M 0 216 
L 216 216 
L 216 0 
L 0 0 
L 0 216 
z
" style="fill: none"/>
  </g>
  <g id="axes_1">
   <g id="line2d_1">
    <path d="M 139.333515 178.214453 
L 90.285341 178.278971 
L 77.344281 178.411281 
L 55.187403 178.718267 
L 46.66485 178.96338 
L 44.220886 178.968672 
L 37.567025 178.610639 
L 35.610166 178.397731 
L 33.225048 177.982308 
L 31.660481 177.533516 
L 29.205029 176.364232 
L 27.789476 175.300603 
L 26.91178 174.430498 
L 25.913446 172.865828 
L 25.033954 170.111647 
L 24.903127 168.051432 
L 25.061684 166.570087 
L 25.578464 164.851411 
L 26.66817 162.822618 
L 28.495501 160.784236 
L 29.682517 159.838104 
L 32.367812 158.170683 
L 50.689713 148.362534 
L 53.204365 146.373857 
L 54.472108 144.652984 
L 55.020508 143.474912 
L 55.448569 141.916289 
L 55.60363 139.875057 
L 55.079464 136.951681 
L 53.574845 134.12996 
L 51.905424 132.454841 
L 49.568115 130.915146 
L 43.518855 127.736345 
L 35.046613 123.266772 
L 32.578973 121.742013 
L 31.099628 120.573281 
L 28.611658 117.921353 
L 27.140258 115.763176 
L 25.555313 112.583083 
L 23.801873 108.228564 
L 21.691164 102.002158 
L 10.417178 68.709752 
L 9.929427 66.695794 
L 9.818182 64.977716 
L 10.130399 63.09334 
L 10.6785 61.601256 
L 11.644119 59.922144 
L 13.21978 58.023234 
L 15.556844 56.197657 
L 17.260837 55.293987 
L 22.031574 53.544594 
L 23.552333 53.097306 
L 26.454829 52.422078 
L 27.827723 52.241545 
L 30.182818 52.239301 
L 33.985937 53.179196 
L 35.704913 54.009989 
L 37.010717 54.925603 
L 39.692707 59.114824 
L 41.489853 65.812549 
L 43.63323 73.678605 
L 45.282014 78.567934 
L 46.600952 82.385193 
L 47.476947 84.579487 
L 48.582582 86.831328 
L 50.37294 89.515026 
L 51.040129 90.198701 
L 52.215452 90.972245 
L 53.002232 91.251441 
L 53.885124 91.357245 
L 55.055054 91.133951 
L 56.181624 90.485596 
L 57.113923 89.590067 
L 58.057362 87.950968 
L 58.764768 85.762571 
L 59.35818 82.08124 
L 60.491756 73.24188 
L 60.868717 69.353388 
L 61.660959 58.267382 
L 62.65896 48.603126 
L 63.013789 46.35878 
L 63.438653 44.554281 
L 64.612133 41.839617 
L 65.416848 40.73388 
L 66.671702 39.476632 
L 68.079366 38.478447 
L 70.368323 37.46313 
L 71.809205 37.128488 
L 72.734858 37.031328 
L 74.915263 37.124047 
L 76.905042 37.686485 
L 78.705643 38.684574 
L 80.066546 39.909706 
L 80.90148 40.982775 
L 81.62102 42.201111 
L 82.446711 44.454701 
L 83.148914 47.685995 
L 84.442924 51.768412 
L 85.955535 55.20482 
L 87.130757 57.42549 
L 89.299667 60.999024 
L 90.219274 62.328259 
L 93.084347 65.904092 
L 98.804454 71.847113 
L 99.4096 72.705628 
L 101.016874 76.002714 
L 101.431692 77.644962 
L 101.368594 81.376148 
L 100.28303 86.196985 
L 98.884753 90.827047 
L 96.298508 98.512462 
L 95.520964 101.708137 
L 95.576261 103.778792 
L 96.130401 105.515704 
L 96.91678 106.928013 
L 98.002235 108.209692 
L 99.220768 109.251291 
L 100.413776 109.930021 
L 101.646497 110.316919 
L 103.886198 110.459942 
L 107.37091 109.898211 
L 110.87011 108.995792 
L 113.567893 107.997859 
L 117.309173 106.218342 
L 119.454312 105.053561 
L 124.053508 102.040874 
L 126.794604 99.86387 
L 128.532066 98.333623 
L 131.692829 95.116421 
L 134.168019 92.129458 
L 135.323264 90.485713 
L 137.229575 87.392646 
L 140.034366 82.112481 
L 141.403118 79.139903 
L 146.248802 67.441264 
L 149.35637 59.696105 
L 150.793811 55.750317 
L 152.070797 52.848924 
L 153.858815 49.969261 
L 156.319518 47.322986 
L 158.292565 45.871017 
L 160.695318 44.587495 
L 163.474577 43.599853 
L 165.879527 43.067294 
L 168.095151 42.813379 
L 170.811516 42.662671 
L 177.20007 42.83877 
L 179.383522 43.020357 
L 182.460456 43.540286 
L 184.479957 44.206379 
L 186.172258 45.022385 
L 189.469037 47.756488 
L 191.394072 50.323043 
L 193.589808 54.068369 
L 199.529006 66.095924 
L 200.259585 68.017816 
L 200.640232 71.105742 
L 200.344549 73.243385 
L 199.325178 76.026038 
L 196.43047 80.210205 
L 194.357713 82.722803 
L 183.165984 95.3325 
L 180.23501 98.764256 
L 175.796813 104.411832 
L 174.533716 106.344512 
L 173.182396 110.512396 
L 173.153469 112.797905 
L 173.787384 115.869296 
L 174.679615 118.002845 
L 177.068323 122.186421 
L 178.312832 124.061907 
L 186.480392 135.214915 
L 188.022828 137.307852 
L 194.286534 146.35938 
L 200.885881 156.346702 
L 203.797959 161.064489 
L 205.414076 164.314169 
L 206.085958 166.813783 
L 206.181818 167.930511 
L 205.893828 170.36883 
L 205.509828 171.533414 
L 204.844584 172.890821 
L 203.489571 174.737679 
L 202.216884 175.932734 
L 199.26788 177.541158 
L 197.877451 177.97351 
L 196.233605 178.26539 
L 193.474329 178.462056 
L 188.746305 178.404352 
L 180.027882 178.279354 
L 139.333515 178.214453 
L 139.333515 178.214453 
" clip-path="url(#paa5c277134)" style="fill: none; stroke: #ffffff; stroke-width: 9; stroke-linecap: square"/>
   </g>
   <g id="line2d_2">
    <path d="M 139.333515 178.214453 
L 90.285341 178.278971 
L 77.344281 178.411281 
L 55.187403 178.718267 
L 46.66485 178.96338 
L 44.220886 178.968672 
L 37.567025 178.610639 
L 35.610166 178.397731 
L 33.225048 177.982308 
L 31.660481 177.533516 
L 29.205029 176.364232 
L 27.789476 175.300603 
L 26.91178 174.430498 
L 25.913446 172.865828 
L 25.033954 170.111647 
L 24.903127 168.051432 
L 25.061684 166.570087 
L 25.578464 164.851411 
L 26.66817 162.822618 
L 28.495501 160.784236 
L 29.682517 159.838104 
L 32.367812 158.170683 
L 50.689713 148.362534 
L 53.204365 146.373857 
L 54.472108 144.652984 
L 55.020508 143.474912 
L 55.448569 141.916289 
L 55.60363 139.875057 
L 55.079464 136.951681 
L 53.574845 134.12996 
L 51.905424 132.454841 
L 49.568115 130.915146 
L 43.518855 127.736345 
L 35.046613 123.266772 
L 32.578973 121.742013 
L 31.099628 120.573281 
L 28.611658 117.921353 
L 27.140258 115.763176 
L 25.555313 112.583083 
L 23.801873 108.228564 
L 21.691164 102.002158 
L 10.417178 68.709752 
L 9.929427 66.695794 
L 9.818182 64.977716 
L 10.130399 63.09334 
L 10.6785 61.601256 
L 11.644119 59.922144 
L 13.21978 58.023234 
L 15.556844 56.197657 
L 17.260837 55.293987 
L 22.031574 53.544594 
L 23.552333 53.097306 
L 26.454829 52.422078 
L 27.827723 52.241545 
L 30.182818 52.239301 
L 33.985937 53.179196 
L 35.704913 54.009989 
L 37.010717 54.925603 
L 39.692707 59.114824 
L 41.489853 65.812549 
L 43.63323 73.678605 
L 45.282014 78.567934 
L 46.600952 82.385193 
L 47.476947 84.579487 
L 48.582582 86.831328 
L 50.37294 89.515026 
L 51.040129 90.198701 
L 52.215452 90.972245 
L 53.002232 91.251441 
L 53.885124 91.357245 
L 55.055054 91.133951 
L 56.181624 90.485596 
L 57.113923 89.590067 
L 58.057362 87.950968 
L 58.764768 85.762571 
L 59.35818 82.08124 
L 60.491756 73.24188 
L 60.868717 69.353388 
L 61.660959 58.267382 
L 62.65896 48.603126 
L 63.013789 46.35878 
L 63.438653 44.554281 
L 64.612133 41.839617 
L 65.416848 40.73388 
L 66.671702 39.476632 
L 68.079366 38.478447 
L 70.368323 37.46313 
L 71.809205 37.128488 
L 72.734858 37.031328 
L 74.915263 37.124047 
L 76.905042 37.686485 
L 78.705643 38.684574 
L 80.066546 39.909706 
L 80.90148 40.982775 
L 81.62102 42.201111 
L 82.446711 44.454701 
L 83.148914 47.685995 
L 84.442924 51.768412 
L 85.955535 55.20482 
L 87.130757 57.42549 
L 89.299667 60.999024 
L 90.219274 62.328259 
L 93.084347 65.904092 
L 98.804454 71.847113 
L 99.4096 72.705628 
L 101.016874 76.002714 
L 101.431692 77.644962 
L 101.368594 81.376148 
L 100.28303 86.196985 
L 98.884753 90.827047 
L 96.298508 98.512462 
L 95.520964 101.708137 
L 95.576261 103.778792 
L 96.130401 105.515704 
L 96.91678 106.928013 
L 98.002235 108.209692 
L 99.220768 109.251291 
L 100.413776 109.930021 
L 101.646497 110.316919 
L 103.886198 110.459942 
L 107.37091 109.898211 
L 110.87011 108.995792 
L 113.567893 107.997859 
L 117.309173 106.218342 
L 119.454312 105.053561 
L 124.053508 102.040874 
L 126.794604 99.86387 
L 128.532066 98.333623 
L 131.692829 95.116421 
L 134.168019 92.129458 
L 135.323264 90.485713 
L 137.229575 87.392646 
L 140.034366 82.112481 
L 141.403118 79.139903 
L 146.248802 67.441264 
L 149.35637 59.696105 
L 150.793811 55.750317 
L 152.070797 52.848924 
L 153.858815 49.969261 
L 156.319518 47.322986 
L 158.292565 45.871017 
L 160.695318 44.587495 
L 163.474577 43.599853 
L 165.879527 43.067294 
L 168.095151 42.813379 
L 170.811516 42.662671 
L 177.20007 42.83877 
L 179.383522 43.020357 
L 182.460456 43.540286 
L 184.479957 44.206379 
L 186.172258 45.022385 
L 189.469037 47.756488 
L 191.394072 50.323043 
L 193.589808 54.068369 
L 199.529006 66.095924 
L 200.259585 68.017816 
L 200.640232 71.105742 
L 200.344549 73.243385 
L 199.325178 76.026038 
L 196.43047 80.210205 
L 194.357713 82.722803 
L 183.165984 95.3325 
L 180.23501 98.764256 
L 175.796813 104.411832 
L 174.533716 106.344512 
L 173.182396 110.512396 
L 173.153469 112.797905 
L 173.787384 115.869296 
L 174.679615 118.002845 
L 177.068323 122.186421 
L 178.312832 124.061907 
L 186.480392 135.214915 
L 188.022828 137.307852 
L 194.286534 146.35938 
L 200.885881 156.346702 
L 203.797959 161.064489 
L 205.414076 164.314169 
L 206.085958 166.813783 
L 206.181818 167.930511 
L 205.893828 170.36883 
L 205.509828 171.533414 
L 204.844584 172.890821 
L 203.489571 174.737679 
L 202.216884 175.932734 
L 199.26788 177.541158 
L 197.877451 177.97351 
L 196.233605 178.26539 
L 193.474329 178.462056 
L 188.746305 178.404352 
L 180.027882 178.279354 
L 139.333515 178.214453 
L 139.333515 178.214453 
" clip-path="url(#paa5c277134)" style="fill: none; stroke: #000000; stroke-width: 3; stroke-linecap: square"/>
   </g>
  </g>
 </g>
 <defs>
  <clipPath id="paa5c277134">
   <rect x="0" y="0" width="216" height="216"/>
  </clipPath>
 </defs>
</svg>
