<?xml version="1.0" encoding="utf-8" standalone="no"?>
<!DOCTYPE svg PUBLIC "-//W3C//DTD SVG 1.1//EN"
  "http://www.w3.org/Graphics/SVG/1.1/DTD/svg11.dtd">
<svg xmlns:xlink="http://www.w3.org/1999/xlink" width="216pt" height="216pt" viewBox="0 0 216 216" xmlns="http://www.w3.org/2000/svg" version="1.1">
 <metadata>
  <rdf:RDF xmlns:dc="http://purl.org/dc/elements/1.1/" xmlns:cc="http://creativecommons.org/ns#" xmlns:rdf="http://www.w3.org/1999/02/22-rdf-syntax-ns#">
   <cc:Work>
    <dc:type rdf:resource="http://purl.org/dc/dcmitype/StillImage"/>
    <dc:date>2025-06-30T23:41:17.296770</dc:date>
    <dc:format>image/svg+xml</dc:format>
    <dc:creator>
     <cc:Agent>
      <dc:title>Matplotlib v3.10.0, https://matplotlib.org/</dc:title>
     </cc:Agent>
    </dc:creator>
   </cc:Work>
  </rdf:RDF>
 </metadata>
 <defs>
  <style type="text/css">*{stroke-linejoin: round; stroke-linecap: butt}</style>
 </defs>
 <g id="figure_1">
  <g id="patch_1">
   <path d="M 0 216 
L 216 216 
L 216 0 
L 0 0 
L 0 216 
z
" style="fill: none"/>
  </g>
  <g id="axes_1">
   <g id="line2d_1">
    <path d="M 163.73703 86.015588 
L 148.319051 96.465998 
L 143.579241 99.151697 
L 135.83277 103.579164 
L 134.492379 104.645642 
L 133.84326 105.54764 
L 133.744881 105.816262 
L 133.690523 106.798316 
L 134.471306 108.66663 
L 134.550504 109.426408 
L 134.461347 109.763597 
L 133.981001 110.426666 
L 133.146872 110.870857 
L 132.229509 111.07596 
L 130.174377 111.32852 
L 125.226725 111.569986 
L 122.543263 112.081568 
L 120.050435 112.947194 
L 104.818806 118.80785 
L 103.091382 119.490513 
L 102.446178 120.060828 
L 102.132619 120.69806 
L 101.879755 122.05244 
L 101.664036 123.271575 
L 101.333583 124.251601 
L 100.706583 125.33706 
L 100.027871 126.151949 
L 98.420468 127.505472 
L 96.750361 128.386442 
L 95.986746 128.67132 
L 93.712796 129.183162 
L 92.910407 129.249362 
L 91.22796 129.133412 
L 88.191392 128.355086 
L 86.399596 128.274274 
L 84.98746 128.516123 
L 82.893094 129.274527 
L 80.817033 130.39057 
L 78.985505 131.603124 
L 78.410677 132.234632 
L 77.833542 133.583248 
L 77.447201 135.0339 
L 76.868497 135.93409 
L 76.099079 136.60624 
L 74.968364 137.218867 
L 73.276197 137.821873 
L 69.945882 138.581348 
L 68.27993 138.752623 
L 66.777207 138.662728 
L 64.980165 138.087163 
L 63.194691 136.800054 
L 60.437322 134.046611 
L 59.618577 133.60508 
L 58.597769 133.300543 
L 56.742991 133.18819 
L 53.861461 133.379078 
L 50.653932 133.367784 
L 47.700338 133.238059 
L 44.342598 133.413823 
L 38.992528 134.157196 
L 35.971797 134.705625 
L 34.53923 135.023434 
L 27.550335 136.994307 
L 18.509666 139.768083 
L 15.653494 140.881779 
L 13.610901 141.81625 
L 11.894388 142.8269 
L 10.971062 143.671283 
L 10.177216 144.877081 
L 9.969329 145.432848 
L 9.818182 147.100449 
L 9.954937 147.680523 
L 10.323228 148.399719 
L 10.719463 148.883602 
L 11.602899 149.584593 
L 12.390183 149.963102 
L 13.255374 150.211951 
L 14.600573 150.333247 
L 16.702032 150.077009 
L 18.955691 149.420621 
L 20.08261 148.950673 
L 22.027143 147.78081 
L 22.933754 146.995713 
L 25.690934 144.190168 
L 26.438094 143.555063 
L 27.515168 142.790457 
L 29.808079 141.596725 
L 31.209285 141.058389 
L 33.66129 140.281682 
L 35.505277 139.877042 
L 38.11262 139.597036 
L 40.039721 139.620491 
L 43.108029 140.020826 
L 46.646844 140.666054 
L 48.344077 140.84131 
L 51.699909 140.752636 
L 53.838355 140.613161 
L 54.581359 140.68775 
L 55.713305 141.059066 
L 56.176378 141.337308 
L 56.963383 142.15683 
L 57.883047 144.171619 
L 58.505194 144.898387 
L 59.857427 145.616352 
L 61.10059 145.928441 
L 62.94243 145.988902 
L 65.698076 145.608928 
L 68.448336 144.954707 
L 71.817744 143.909896 
L 73.899231 143.005097 
L 75.222708 142.312914 
L 78.190575 140.38397 
L 83.639048 136.403474 
L 86.565973 134.752453 
L 88.254543 133.977116 
L 91.351612 132.850601 
L 95.556838 131.621018 
L 99.245191 130.213221 
L 101.740106 128.976998 
L 102.77447 128.356899 
L 104.149998 127.39977 
L 106.569471 125.324092 
L 109.600998 122.355657 
L 111.310337 120.968844 
L 113.623839 119.447145 
L 116.600708 117.933277 
L 119.829446 116.640075 
L 122.622476 115.746845 
L 125.428325 115.094512 
L 128.980874 114.531595 
L 133.980598 113.993683 
L 134.575499 113.853232 
L 135.431788 113.529499 
L 136.32721 112.857428 
L 136.750019 112.342562 
L 138.807642 108.152387 
L 139.664429 107.041131 
L 140.419001 106.404178 
L 141.334735 105.845152 
L 143.138179 105.088418 
L 145.067547 104.457766 
L 146.757726 104.067853 
L 148.512655 103.842898 
L 150.915967 103.881478 
L 153.539506 104.361211 
L 161.734194 106.121182 
L 164.0688 106.38949 
L 167.71921 106.376975 
L 170.769533 105.915656 
L 173.280764 105.250166 
L 177.089616 103.757207 
L 180.683725 101.939838 
L 185.836823 99.143221 
L 188.990019 97.168069 
L 191.680102 94.977676 
L 193.252447 93.3888 
L 195.134676 91.116364 
L 197.256492 87.973172 
L 200.762644 81.665938 
L 201.922279 79.274454 
L 205.964171 69.68405 
L 206.162897 68.965213 
L 206.111682 67.90712 
L 205.702748 66.993334 
L 204.991663 66.257245 
L 203.828316 65.728405 
L 202.838849 65.675895 
L 201.656461 65.95495 
L 198.353413 67.550143 
L 173.980703 79.666291 
L 171.685864 80.978614 
L 165.683491 84.727134 
L 163.73703 86.015588 
L 163.73703 86.015588 
" clip-path="url(#pb44b5b1da3)" style="fill: none; stroke: #ffffff; stroke-width: 9; stroke-linecap: square"/>
   </g>
   <g id="line2d_2">
    <path d="M 163.73703 86.015588 
L 148.319051 96.465998 
L 143.579241 99.151697 
L 135.83277 103.579164 
L 134.492379 104.645642 
L 133.84326 105.54764 
L 133.744881 105.816262 
L 133.690523 106.798316 
L 134.471306 108.66663 
L 134.550504 109.426408 
L 134.461347 109.763597 
L 133.981001 110.426666 
L 133.146872 110.870857 
L 132.229509 111.07596 
L 130.174377 111.32852 
L 125.226725 111.569986 
L 122.543263 112.081568 
L 120.050435 112.947194 
L 104.818806 118.80785 
L 103.091382 119.490513 
L 102.446178 120.060828 
L 102.132619 120.69806 
L 101.879755 122.05244 
L 101.664036 123.271575 
L 101.333583 124.251601 
L 100.706583 125.33706 
L 100.027871 126.151949 
L 98.420468 127.505472 
L 96.750361 128.386442 
L 95.986746 128.67132 
L 93.712796 129.183162 
L 92.910407 129.249362 
L 91.22796 129.133412 
L 88.191392 128.355086 
L 86.399596 128.274274 
L 84.98746 128.516123 
L 82.893094 129.274527 
L 80.817033 130.39057 
L 78.985505 131.603124 
L 78.410677 132.234632 
L 77.833542 133.583248 
L 77.447201 135.0339 
L 76.868497 135.93409 
L 76.099079 136.60624 
L 74.968364 137.218867 
L 73.276197 137.821873 
L 69.945882 138.581348 
L 68.27993 138.752623 
L 66.777207 138.662728 
L 64.980165 138.087163 
L 63.194691 136.800054 
L 60.437322 134.046611 
L 59.618577 133.60508 
L 58.597769 133.300543 
L 56.742991 133.18819 
L 53.861461 133.379078 
L 50.653932 133.367784 
L 47.700338 133.238059 
L 44.342598 133.413823 
L 38.992528 134.157196 
L 35.971797 134.705625 
L 34.53923 135.023434 
L 27.550335 136.994307 
L 18.509666 139.768083 
L 15.653494 140.881779 
L 13.610901 141.81625 
L 11.894388 142.8269 
L 10.971062 143.671283 
L 10.177216 144.877081 
L 9.969329 145.432848 
L 9.818182 147.100449 
L 9.954937 147.680523 
L 10.323228 148.399719 
L 10.719463 148.883602 
L 11.602899 149.584593 
L 12.390183 149.963102 
L 13.255374 150.211951 
L 14.600573 150.333247 
L 16.702032 150.077009 
L 18.955691 149.420621 
L 20.08261 148.950673 
L 22.027143 147.78081 
L 22.933754 146.995713 
L 25.690934 144.190168 
L 26.438094 143.555063 
L 27.515168 142.790457 
L 29.808079 141.596725 
L 31.209285 141.058389 
L 33.66129 140.281682 
L 35.505277 139.877042 
L 38.11262 139.597036 
L 40.039721 139.620491 
L 43.108029 140.020826 
L 46.646844 140.666054 
L 48.344077 140.84131 
L 51.699909 140.752636 
L 53.838355 140.613161 
L 54.581359 140.68775 
L 55.713305 141.059066 
L 56.176378 141.337308 
L 56.963383 142.15683 
L 57.883047 144.171619 
L 58.505194 144.898387 
L 59.857427 145.616352 
L 61.10059 145.928441 
L 62.94243 145.988902 
L 65.698076 145.608928 
L 68.448336 144.954707 
L 71.817744 143.909896 
L 73.899231 143.005097 
L 75.222708 142.312914 
L 78.190575 140.38397 
L 83.639048 136.403474 
L 86.565973 134.752453 
L 88.254543 133.977116 
L 91.351612 132.850601 
L 95.556838 131.621018 
L 99.245191 130.213221 
L 101.740106 128.976998 
L 102.77447 128.356899 
L 104.149998 127.39977 
L 106.569471 125.324092 
L 109.600998 122.355657 
L 111.310337 120.968844 
L 113.623839 119.447145 
L 116.600708 117.933277 
L 119.829446 116.640075 
L 122.622476 115.746845 
L 125.428325 115.094512 
L 128.980874 114.531595 
L 133.980598 113.993683 
L 134.575499 113.853232 
L 135.431788 113.529499 
L 136.32721 112.857428 
L 136.750019 112.342562 
L 138.807642 108.152387 
L 139.664429 107.041131 
L 140.419001 106.404178 
L 141.334735 105.845152 
L 143.138179 105.088418 
L 145.067547 104.457766 
L 146.757726 104.067853 
L 148.512655 103.842898 
L 150.915967 103.881478 
L 153.539506 104.361211 
L 161.734194 106.121182 
L 164.0688 106.38949 
L 167.71921 106.376975 
L 170.769533 105.915656 
L 173.280764 105.250166 
L 177.089616 103.757207 
L 180.683725 101.939838 
L 185.836823 99.143221 
L 188.990019 97.168069 
L 191.680102 94.977676 
L 193.252447 93.3888 
L 195.134676 91.116364 
L 197.256492 87.973172 
L 200.762644 81.665938 
L 201.922279 79.274454 
L 205.964171 69.68405 
L 206.162897 68.965213 
L 206.111682 67.90712 
L 205.702748 66.993334 
L 204.991663 66.257245 
L 203.828316 65.728405 
L 202.838849 65.675895 
L 201.656461 65.95495 
L 198.353413 67.550143 
L 173.980703 79.666291 
L 171.685864 80.978614 
L 165.683491 84.727134 
L 163.73703 86.015588 
L 163.73703 86.015588 
" clip-path="url(#pb44b5b1da3)" style="fill: none; stroke: #000000; stroke-width: 3; stroke-linecap: square"/>
   </g>
  </g>
 </g>
 <defs>
  <clipPath id="pb44b5b1da3">
   <rect x="0" y="0" width="216" height="216"/>
  </clipPath>
 </defs>
</svg>
