<?xml version="1.0" encoding="utf-8" standalone="no"?>
<!DOCTYPE svg PUBLIC "-//W3C//DTD SVG 1.1//EN"
  "http://www.w3.org/Graphics/SVG/1.1/DTD/svg11.dtd">
<svg xmlns:xlink="http://www.w3.org/1999/xlink" width="216pt" height="216pt" viewBox="0 0 216 216" xmlns="http://www.w3.org/2000/svg" version="1.1">
 <metadata>
  <rdf:RDF xmlns:dc="http://purl.org/dc/elements/1.1/" xmlns:cc="http://creativecommons.org/ns#" xmlns:rdf="http://www.w3.org/1999/02/22-rdf-syntax-ns#">
   <cc:Work>
    <dc:type rdf:resource="http://purl.org/dc/dcmitype/StillImage"/>
    <dc:date>2025-06-18T12:18:56.205121</dc:date>
    <dc:format>image/svg+xml</dc:format>
    <dc:creator>
     <cc:Agent>
      <dc:title>Matplotlib v3.10.0, https://matplotlib.org/</dc:title>
     </cc:Agent>
    </dc:creator>
   </cc:Work>
  </rdf:RDF>
 </metadata>
 <defs>
  <style type="text/css">*{stroke-linejoin: round; stroke-linecap: butt}</style>
 </defs>
 <g id="figure_1">
  <g id="patch_1">
   <path d="M 0 216 
L 216 216 
L 216 0 
L 0 0 
L 0 216 
z
" style="fill: none"/>
  </g>
  <g id="axes_1">
   <g id="line2d_1">
    <path d="M 193.313783 136.965857 
L 197.417461 123.212602 
L 201.941479 109.125771 
L 204.654216 101.005352 
L 205.920579 96.270615 
L 206.181818 94.480049 
L 206.041054 92.384342 
L 205.00219 90.164056 
L 204.087741 89.222769 
L 199.865418 85.753382 
L 199.019332 84.476207 
L 196.761918 79.79003 
L 196.15919 78.905837 
L 195.400259 78.198886 
L 194.637387 77.78431 
L 193.934183 77.588796 
L 192.568973 77.614167 
L 191.559062 77.981745 
L 190.679689 78.542589 
L 189.389747 79.79462 
L 188.003334 81.663644 
L 186.407826 84.612017 
L 186.000578 85.643098 
L 185.094563 88.721748 
L 184.809092 90.280355 
L 184.534401 92.888443 
L 184.247789 98.771446 
L 183.957171 104.726134 
L 183.665707 107.811852 
L 183.275883 110.572202 
L 182.440934 114.287128 
L 181.311851 117.497131 
L 180.213123 119.85336 
L 179.069124 121.644186 
L 178.240592 122.537661 
L 176.45286 123.689964 
L 175.347098 124.042266 
L 174.294423 124.154533 
L 172.222003 124.056075 
L 168.891298 123.312027 
L 165.04007 121.854515 
L 162.930325 120.826592 
L 159.919907 119.14331 
L 150.774206 113.834143 
L 129.690763 101.88444 
L 125.408285 99.269641 
L 123.95579 98.283408 
L 121.671864 96.556417 
L 120.168528 95.237553 
L 118.143855 93.175424 
L 116.27457 90.906251 
L 113.099027 86.453922 
L 105.839614 75.522243 
L 98.296327 63.369605 
L 96.757426 61.622258 
L 95.729407 60.672145 
L 94.63296 59.837229 
L 93.711377 59.289803 
L 91.621923 58.786215 
L 89.105875 59.260554 
L 87.189983 60.088304 
L 84.282027 61.718562 
L 82.000641 63.140832 
L 78.447096 66.029375 
L 73.418418 70.377806 
L 71.552552 71.508385 
L 69.994141 71.884984 
L 69.503614 71.832775 
L 68.395149 71.212915 
L 68.000343 70.734601 
L 67.304076 69.483156 
L 66.658389 67.681582 
L 66.349599 66.640242 
L 65.115678 61.210344 
L 64.018385 57.506459 
L 63.196205 55.357793 
L 62.229156 53.582893 
L 61.435474 52.477261 
L 60.293821 51.297631 
L 58.457854 50.029608 
L 57.12795 49.600701 
L 55.176362 49.558589 
L 54.24934 49.685316 
L 53.337658 49.936881 
L 51.569142 50.700958 
L 48.904415 52.282818 
L 44.799991 55.311669 
L 40.243114 59.026886 
L 35.812573 62.344986 
L 19.610488 73.619449 
L 14.22231 77.035289 
L 12.234928 78.521102 
L 10.919321 80.143642 
L 10.519271 81.001551 
L 9.963344 83.140153 
L 9.818182 85.249637 
L 9.884493 86.148486 
L 10.23699 87.916319 
L 10.761715 89.220168 
L 11.798006 90.909671 
L 13.564925 92.925161 
L 14.814514 94.1257 
L 16.109308 95.670954 
L 16.519649 96.936175 
L 16.524175 98.63001 
L 15.932194 101.413778 
L 14.706086 106.093733 
L 14.618507 106.817848 
L 14.766339 108.299004 
L 15.265334 109.752672 
L 16.765184 112.908741 
L 18.510021 116.517394 
L 19.940694 119.979549 
L 20.596217 122.359425 
L 21.274928 126.897867 
L 21.818315 128.666448 
L 22.118897 129.189089 
L 22.917335 130.032147 
L 23.68177 130.285634 
L 24.526651 130.208868 
L 25.520408 129.686652 
L 26.585719 128.727061 
L 27.630805 127.463826 
L 29.279662 125.158177 
L 35.539137 115.646527 
L 42.783476 105.505539 
L 46.472479 100.370591 
L 51.126055 94.081971 
L 54.225877 90.305164 
L 59.163263 85.016814 
L 64.636252 79.684008 
L 66.49961 78.243335 
L 67.849349 77.651746 
L 68.783634 77.572538 
L 69.575428 77.735808 
L 70.452683 78.189011 
L 71.192268 78.842808 
L 72.007674 79.870307 
L 73.117344 81.844108 
L 74.834008 85.513176 
L 76.013181 88.28434 
L 77.326213 91.588665 
L 80.280024 97.967667 
L 81.322894 100.116268 
L 82.427743 102.131953 
L 84.119916 104.686303 
L 85.667709 106.54077 
L 88.632497 109.173677 
L 91.958772 111.283749 
L 123.329113 128.177418 
L 131.498255 132.236833 
L 136.353401 134.85388 
L 138.457576 136.114575 
L 139.579004 136.990561 
L 140.57973 138.251581 
L 140.854778 139.586111 
L 140.256314 144.970639 
L 140.320996 145.809886 
L 140.651705 147.435162 
L 140.935449 148.214743 
L 141.746165 149.725505 
L 143.100561 151.26913 
L 145.440083 153.066178 
L 147.851973 154.455652 
L 160.205984 160.613609 
L 166.122076 163.857779 
L 170.055574 165.70671 
L 172.447923 166.380962 
L 174.662086 166.42783 
L 176.392854 166.028628 
L 179.231632 164.704456 
L 182.467203 162.403172 
L 184.053461 160.862707 
L 184.948793 159.794432 
L 185.868226 158.516737 
L 186.950995 156.667938 
L 188.314544 153.743796 
L 189.269023 151.129064 
L 191.188044 144.521491 
L 193.313783 136.965857 
L 193.313783 136.965857 
" clip-path="url(#pf832ea3387)" style="fill: none; stroke: #ffffff; stroke-width: 9; stroke-linecap: square"/>
   </g>
   <g id="line2d_2">
    <path d="M 193.313783 136.965857 
L 197.417461 123.212602 
L 201.941479 109.125771 
L 204.654216 101.005352 
L 205.920579 96.270615 
L 206.181818 94.480049 
L 206.041054 92.384342 
L 205.00219 90.164056 
L 204.087741 89.222769 
L 199.865418 85.753382 
L 199.019332 84.476207 
L 196.761918 79.79003 
L 196.15919 78.905837 
L 195.400259 78.198886 
L 194.637387 77.78431 
L 193.934183 77.588796 
L 192.568973 77.614167 
L 191.559062 77.981745 
L 190.679689 78.542589 
L 189.389747 79.79462 
L 188.003334 81.663644 
L 186.407826 84.612017 
L 186.000578 85.643098 
L 185.094563 88.721748 
L 184.809092 90.280355 
L 184.534401 92.888443 
L 184.247789 98.771446 
L 183.957171 104.726134 
L 183.665707 107.811852 
L 183.275883 110.572202 
L 182.440934 114.287128 
L 181.311851 117.497131 
L 180.213123 119.85336 
L 179.069124 121.644186 
L 178.240592 122.537661 
L 176.45286 123.689964 
L 175.347098 124.042266 
L 174.294423 124.154533 
L 172.222003 124.056075 
L 168.891298 123.312027 
L 165.04007 121.854515 
L 162.930325 120.826592 
L 159.919907 119.14331 
L 150.774206 113.834143 
L 129.690763 101.88444 
L 125.408285 99.269641 
L 123.95579 98.283408 
L 121.671864 96.556417 
L 120.168528 95.237553 
L 118.143855 93.175424 
L 116.27457 90.906251 
L 113.099027 86.453922 
L 105.839614 75.522243 
L 98.296327 63.369605 
L 96.757426 61.622258 
L 95.729407 60.672145 
L 94.63296 59.837229 
L 93.711377 59.289803 
L 91.621923 58.786215 
L 89.105875 59.260554 
L 87.189983 60.088304 
L 84.282027 61.718562 
L 82.000641 63.140832 
L 78.447096 66.029375 
L 73.418418 70.377806 
L 71.552552 71.508385 
L 69.994141 71.884984 
L 69.503614 71.832775 
L 68.395149 71.212915 
L 68.000343 70.734601 
L 67.304076 69.483156 
L 66.658389 67.681582 
L 66.349599 66.640242 
L 65.115678 61.210344 
L 64.018385 57.506459 
L 63.196205 55.357793 
L 62.229156 53.582893 
L 61.435474 52.477261 
L 60.293821 51.297631 
L 58.457854 50.029608 
L 57.12795 49.600701 
L 55.176362 49.558589 
L 54.24934 49.685316 
L 53.337658 49.936881 
L 51.569142 50.700958 
L 48.904415 52.282818 
L 44.799991 55.311669 
L 40.243114 59.026886 
L 35.812573 62.344986 
L 19.610488 73.619449 
L 14.22231 77.035289 
L 12.234928 78.521102 
L 10.919321 80.143642 
L 10.519271 81.001551 
L 9.963344 83.140153 
L 9.818182 85.249637 
L 9.884493 86.148486 
L 10.23699 87.916319 
L 10.761715 89.220168 
L 11.798006 90.909671 
L 13.564925 92.925161 
L 14.814514 94.1257 
L 16.109308 95.670954 
L 16.519649 96.936175 
L 16.524175 98.63001 
L 15.932194 101.413778 
L 14.706086 106.093733 
L 14.618507 106.817848 
L 14.766339 108.299004 
L 15.265334 109.752672 
L 16.765184 112.908741 
L 18.510021 116.517394 
L 19.940694 119.979549 
L 20.596217 122.359425 
L 21.274928 126.897867 
L 21.818315 128.666448 
L 22.118897 129.189089 
L 22.917335 130.032147 
L 23.68177 130.285634 
L 24.526651 130.208868 
L 25.520408 129.686652 
L 26.585719 128.727061 
L 27.630805 127.463826 
L 29.279662 125.158177 
L 35.539137 115.646527 
L 42.783476 105.505539 
L 46.472479 100.370591 
L 51.126055 94.081971 
L 54.225877 90.305164 
L 59.163263 85.016814 
L 64.636252 79.684008 
L 66.49961 78.243335 
L 67.849349 77.651746 
L 68.783634 77.572538 
L 69.575428 77.735808 
L 70.452683 78.189011 
L 71.192268 78.842808 
L 72.007674 79.870307 
L 73.117344 81.844108 
L 74.834008 85.513176 
L 76.013181 88.28434 
L 77.326213 91.588665 
L 80.280024 97.967667 
L 81.322894 100.116268 
L 82.427743 102.131953 
L 84.119916 104.686303 
L 85.667709 106.54077 
L 88.632497 109.173677 
L 91.958772 111.283749 
L 123.329113 128.177418 
L 131.498255 132.236833 
L 136.353401 134.85388 
L 138.457576 136.114575 
L 139.579004 136.990561 
L 140.57973 138.251581 
L 140.854778 139.586111 
L 140.256314 144.970639 
L 140.320996 145.809886 
L 140.651705 147.435162 
L 140.935449 148.214743 
L 141.746165 149.725505 
L 143.100561 151.26913 
L 145.440083 153.066178 
L 147.851973 154.455652 
L 160.205984 160.613609 
L 166.122076 163.857779 
L 170.055574 165.70671 
L 172.447923 166.380962 
L 174.662086 166.42783 
L 176.392854 166.028628 
L 179.231632 164.704456 
L 182.467203 162.403172 
L 184.053461 160.862707 
L 184.948793 159.794432 
L 185.868226 158.516737 
L 186.950995 156.667938 
L 188.314544 153.743796 
L 189.269023 151.129064 
L 191.188044 144.521491 
L 193.313783 136.965857 
L 193.313783 136.965857 
" clip-path="url(#pf832ea3387)" style="fill: none; stroke: #000000; stroke-opacity: 0.5; stroke-width: 3; stroke-linecap: square"/>
   </g>
  </g>
 </g>
 <defs>
  <clipPath id="pf832ea3387">
   <rect x="0" y="0" width="216" height="216"/>
  </clipPath>
 </defs>
</svg>
