<?xml version="1.0" encoding="utf-8" standalone="no"?>
<!DOCTYPE svg PUBLIC "-//W3C//DTD SVG 1.1//EN"
  "http://www.w3.org/Graphics/SVG/1.1/DTD/svg11.dtd">
<svg xmlns:xlink="http://www.w3.org/1999/xlink" width="216pt" height="216pt" viewBox="0 0 216 216" xmlns="http://www.w3.org/2000/svg" version="1.1">
 <metadata>
  <rdf:RDF xmlns:dc="http://purl.org/dc/elements/1.1/" xmlns:cc="http://creativecommons.org/ns#" xmlns:rdf="http://www.w3.org/1999/02/22-rdf-syntax-ns#">
   <cc:Work>
    <dc:type rdf:resource="http://purl.org/dc/dcmitype/StillImage"/>
    <dc:date>2025-06-18T12:18:59.134761</dc:date>
    <dc:format>image/svg+xml</dc:format>
    <dc:creator>
     <cc:Agent>
      <dc:title>Matplotlib v3.10.0, https://matplotlib.org/</dc:title>
     </cc:Agent>
    </dc:creator>
   </cc:Work>
  </rdf:RDF>
 </metadata>
 <defs>
  <style type="text/css">*{stroke-linejoin: round; stroke-linecap: butt}</style>
 </defs>
 <g id="figure_1">
  <g id="patch_1">
   <path d="M 0 216 
L 216 216 
L 216 0 
L 0 0 
L 0 216 
z
" style="fill: none"/>
  </g>
  <g id="axes_1">
   <g id="line2d_1">
    <path d="M 150.614394 136.497882 
L 109.082074 136.813426 
L 70.170293 136.429143 
L 63.628043 136.756226 
L 51.430273 137.525557 
L 46.596756 137.451266 
L 42.452212 136.894999 
L 38.783585 135.528683 
L 37.624448 134.674828 
L 35.980623 132.356373 
L 35.327997 130.154341 
L 34.575055 125.270674 
L 33.762095 123.034561 
L 32.785995 121.664508 
L 30.912901 120.030477 
L 28.96976 118.873819 
L 19.108296 114.515388 
L 16.197287 112.639794 
L 14.58285 111.217847 
L 12.595312 108.742544 
L 10.845077 105.249367 
L 10.391952 103.83337 
L 9.818182 100.42268 
L 9.847751 97.967654 
L 10.256229 95.750271 
L 11.960398 91.724037 
L 14.357853 88.525954 
L 16.053124 86.906772 
L 17.736729 85.588846 
L 20.061817 84.061641 
L 23.911631 82.062528 
L 27.752152 80.501333 
L 29.830302 79.790954 
L 35.224937 78.65436 
L 39.064882 78.475567 
L 50.253981 78.706782 
L 58.318296 78.462329 
L 62.990849 78.554775 
L 67.72164 78.816706 
L 69.342027 79.07734 
L 71.872673 79.835193 
L 73.955478 81.073905 
L 75.459298 82.671339 
L 76.285327 84.156126 
L 76.749973 85.616466 
L 76.970828 87.63246 
L 76.719199 89.506129 
L 76.1043 91.512056 
L 75.431936 92.950665 
L 73.572267 95.540375 
L 72.90508 96.215506 
L 70.698356 97.924975 
L 67.949388 99.278292 
L 66.271589 99.780506 
L 63.790858 100.216788 
L 61.386808 100.292316 
L 53.237724 99.900805 
L 43.510709 99.39384 
L 39.966017 99.415444 
L 37.583752 99.684129 
L 34.853227 100.50721 
L 33.971098 101.010969 
L 33.081563 101.795944 
L 32.558929 102.480853 
L 32.030004 103.688109 
L 31.861831 104.972045 
L 31.971387 105.885593 
L 32.363272 107.047679 
L 33.618555 108.927442 
L 34.257863 109.566067 
L 35.670767 110.704283 
L 38.072354 112.16786 
L 42.607866 114.629647 
L 45.317342 116.22151 
L 53.216018 121.388156 
L 54.921174 122.284755 
L 57.635683 123.458741 
L 60.121356 124.28035 
L 61.912342 124.723877 
L 64.546972 125.189622 
L 66.605907 125.407315 
L 72.980272 125.672967 
L 75.2221 125.720062 
L 77.895215 125.65983 
L 79.538933 125.317951 
L 80.402764 124.998828 
L 81.4902 124.465392 
L 83.759423 122.905365 
L 84.776614 121.864736 
L 85.952972 119.286888 
L 86.182043 117.617897 
L 86.423644 113.574047 
L 86.875835 111.397378 
L 87.927683 108.814012 
L 90.915591 103.971384 
L 99.174903 90.540137 
L 102.406027 86.524257 
L 103.352056 85.71987 
L 105.482729 84.318919 
L 109.5912 82.53189 
L 111.848468 81.964321 
L 113.523121 81.72328 
L 118.011523 82.090794 
L 119.787212 82.803386 
L 122.607161 84.565361 
L 126.719763 87.439992 
L 136.424432 93.472303 
L 146.972603 99.872432 
L 170.454551 113.127398 
L 178.399314 118.471419 
L 179.522142 119.003346 
L 180.815083 119.424801 
L 182.159774 119.553519 
L 183.04113 119.447594 
L 184.158871 119.067231 
L 185.078082 118.487564 
L 186.605756 116.769916 
L 187.479312 114.976073 
L 187.824859 113.64605 
L 187.944284 112.739278 
L 187.902888 111.50506 
L 187.521555 109.800586 
L 186.869899 108.185286 
L 186.343096 107.214469 
L 185.158202 105.496299 
L 183.92456 104.155292 
L 181.304544 102.142551 
L 178.572509 100.755367 
L 173.874631 98.761804 
L 172.597616 98.019051 
L 170.753569 96.642562 
L 169.102823 94.898687 
L 168.569243 94.156851 
L 167.498741 91.949786 
L 167.210984 90.149992 
L 167.291583 89.130231 
L 167.948938 87.269486 
L 169.426895 85.34227 
L 170.643875 84.396476 
L 172.503453 83.482533 
L 173.536138 83.157406 
L 175.649968 82.82119 
L 178.907298 82.968926 
L 180.194235 83.221525 
L 184.982203 84.741975 
L 189.737978 86.266056 
L 195.190958 87.95928 
L 196.627194 88.494982 
L 200.458869 90.671006 
L 202.969868 93.393732 
L 204.333592 95.945913 
L 205.473908 99.696973 
L 205.818645 101.77072 
L 206.116772 106.37966 
L 206.16368 119.167505 
L 205.982007 122.239568 
L 205.656843 124.212817 
L 205.183495 126.144096 
L 204.613713 127.740666 
L 203.574305 129.62494 
L 200.768122 132.725672 
L 196.655733 135.171709 
L 192.005163 136.256986 
L 187.803206 136.463568 
L 156.542465 136.448724 
L 150.614394 136.497882 
L 150.614394 136.497882 
" clip-path="url(#pf340294f11)" style="fill: none; stroke: #ffffff; stroke-width: 9; stroke-linecap: square"/>
   </g>
   <g id="line2d_2">
    <path d="M 150.614394 136.497882 
L 109.082074 136.813426 
L 70.170293 136.429143 
L 63.628043 136.756226 
L 51.430273 137.525557 
L 46.596756 137.451266 
L 42.452212 136.894999 
L 38.783585 135.528683 
L 37.624448 134.674828 
L 35.980623 132.356373 
L 35.327997 130.154341 
L 34.575055 125.270674 
L 33.762095 123.034561 
L 32.785995 121.664508 
L 30.912901 120.030477 
L 28.96976 118.873819 
L 19.108296 114.515388 
L 16.197287 112.639794 
L 14.58285 111.217847 
L 12.595312 108.742544 
L 10.845077 105.249367 
L 10.391952 103.83337 
L 9.818182 100.42268 
L 9.847751 97.967654 
L 10.256229 95.750271 
L 11.960398 91.724037 
L 14.357853 88.525954 
L 16.053124 86.906772 
L 17.736729 85.588846 
L 20.061817 84.061641 
L 23.911631 82.062528 
L 27.752152 80.501333 
L 29.830302 79.790954 
L 35.224937 78.65436 
L 39.064882 78.475567 
L 50.253981 78.706782 
L 58.318296 78.462329 
L 62.990849 78.554775 
L 67.72164 78.816706 
L 69.342027 79.07734 
L 71.872673 79.835193 
L 73.955478 81.073905 
L 75.459298 82.671339 
L 76.285327 84.156126 
L 76.749973 85.616466 
L 76.970828 87.63246 
L 76.719199 89.506129 
L 76.1043 91.512056 
L 75.431936 92.950665 
L 73.572267 95.540375 
L 72.90508 96.215506 
L 70.698356 97.924975 
L 67.949388 99.278292 
L 66.271589 99.780506 
L 63.790858 100.216788 
L 61.386808 100.292316 
L 53.237724 99.900805 
L 43.510709 99.39384 
L 39.966017 99.415444 
L 37.583752 99.684129 
L 34.853227 100.50721 
L 33.971098 101.010969 
L 33.081563 101.795944 
L 32.558929 102.480853 
L 32.030004 103.688109 
L 31.861831 104.972045 
L 31.971387 105.885593 
L 32.363272 107.047679 
L 33.618555 108.927442 
L 34.257863 109.566067 
L 35.670767 110.704283 
L 38.072354 112.16786 
L 42.607866 114.629647 
L 45.317342 116.22151 
L 53.216018 121.388156 
L 54.921174 122.284755 
L 57.635683 123.458741 
L 60.121356 124.28035 
L 61.912342 124.723877 
L 64.546972 125.189622 
L 66.605907 125.407315 
L 72.980272 125.672967 
L 75.2221 125.720062 
L 77.895215 125.65983 
L 79.538933 125.317951 
L 80.402764 124.998828 
L 81.4902 124.465392 
L 83.759423 122.905365 
L 84.776614 121.864736 
L 85.952972 119.286888 
L 86.182043 117.617897 
L 86.423644 113.574047 
L 86.875835 111.397378 
L 87.927683 108.814012 
L 90.915591 103.971384 
L 99.174903 90.540137 
L 102.406027 86.524257 
L 103.352056 85.71987 
L 105.482729 84.318919 
L 109.5912 82.53189 
L 111.848468 81.964321 
L 113.523121 81.72328 
L 118.011523 82.090794 
L 119.787212 82.803386 
L 122.607161 84.565361 
L 126.719763 87.439992 
L 136.424432 93.472303 
L 146.972603 99.872432 
L 170.454551 113.127398 
L 178.399314 118.471419 
L 179.522142 119.003346 
L 180.815083 119.424801 
L 182.159774 119.553519 
L 183.04113 119.447594 
L 184.158871 119.067231 
L 185.078082 118.487564 
L 186.605756 116.769916 
L 187.479312 114.976073 
L 187.824859 113.64605 
L 187.944284 112.739278 
L 187.902888 111.50506 
L 187.521555 109.800586 
L 186.869899 108.185286 
L 186.343096 107.214469 
L 185.158202 105.496299 
L 183.92456 104.155292 
L 181.304544 102.142551 
L 178.572509 100.755367 
L 173.874631 98.761804 
L 172.597616 98.019051 
L 170.753569 96.642562 
L 169.102823 94.898687 
L 168.569243 94.156851 
L 167.498741 91.949786 
L 167.210984 90.149992 
L 167.291583 89.130231 
L 167.948938 87.269486 
L 169.426895 85.34227 
L 170.643875 84.396476 
L 172.503453 83.482533 
L 173.536138 83.157406 
L 175.649968 82.82119 
L 178.907298 82.968926 
L 180.194235 83.221525 
L 184.982203 84.741975 
L 189.737978 86.266056 
L 195.190958 87.95928 
L 196.627194 88.494982 
L 200.458869 90.671006 
L 202.969868 93.393732 
L 204.333592 95.945913 
L 205.473908 99.696973 
L 205.818645 101.77072 
L 206.116772 106.37966 
L 206.16368 119.167505 
L 205.982007 122.239568 
L 205.656843 124.212817 
L 205.183495 126.144096 
L 204.613713 127.740666 
L 203.574305 129.62494 
L 200.768122 132.725672 
L 196.655733 135.171709 
L 192.005163 136.256986 
L 187.803206 136.463568 
L 156.542465 136.448724 
L 150.614394 136.497882 
L 150.614394 136.497882 
" clip-path="url(#pf340294f11)" style="fill: none; stroke: #000000; stroke-opacity: 0.5; stroke-width: 3; stroke-linecap: square"/>
   </g>
  </g>
 </g>
 <defs>
  <clipPath id="pf340294f11">
   <rect x="0" y="0" width="216" height="216"/>
  </clipPath>
 </defs>
</svg>
