<?xml version="1.0" encoding="utf-8" standalone="no"?>
<!DOCTYPE svg PUBLIC "-//W3C//DTD SVG 1.1//EN"
  "http://www.w3.org/Graphics/SVG/1.1/DTD/svg11.dtd">
<svg xmlns:xlink="http://www.w3.org/1999/xlink" width="216pt" height="216pt" viewBox="0 0 216 216" xmlns="http://www.w3.org/2000/svg" version="1.1">
 <metadata>
  <rdf:RDF xmlns:dc="http://purl.org/dc/elements/1.1/" xmlns:cc="http://creativecommons.org/ns#" xmlns:rdf="http://www.w3.org/1999/02/22-rdf-syntax-ns#">
   <cc:Work>
    <dc:type rdf:resource="http://purl.org/dc/dcmitype/StillImage"/>
    <dc:date>2025-06-19T13:35:37.745603</dc:date>
    <dc:format>image/svg+xml</dc:format>
    <dc:creator>
     <cc:Agent>
      <dc:title>Matplotlib v3.10.0, https://matplotlib.org/</dc:title>
     </cc:Agent>
    </dc:creator>
   </cc:Work>
  </rdf:RDF>
 </metadata>
 <defs>
  <style type="text/css">*{stroke-linejoin: round; stroke-linecap: butt}</style>
 </defs>
 <g id="figure_1">
  <g id="patch_1">
   <path d="M 0 216 
L 216 216 
L 216 0 
L 0 0 
L 0 216 
z
" style="fill: none"/>
  </g>
  <g id="axes_1">
   <g id="line2d_1">
    <path d="M 24.587413 126.228739 
L 51.245658 146.639296 
L 68.830138 160.206632 
L 70.930747 162.014888 
L 73.551094 164.083014 
L 74.623054 164.602752 
L 75.814121 164.873449 
L 76.474622 164.905933 
L 77.579066 164.581096 
L 78.228739 163.985563 
L 78.499436 163.552448 
L 78.748477 162.502143 
L 78.672682 161.246109 
L 78.304534 158.831491 
L 77.849763 157.09903 
L 76.290548 153.677419 
L 75.391834 151.685089 
L 74.460636 149.22716 
L 73.616061 146.032935 
L 73.486127 143.845703 
L 73.962554 140.813896 
L 74.43898 139.135574 
L 75.543424 136.840063 
L 76.972705 134.70697 
L 77.903903 133.68915 
L 79.820438 132.075795 
L 82.711482 130.170088 
L 89.327318 126.640199 
L 91.449583 125.135123 
L 94.06993 123.131965 
L 95.715768 121.583578 
L 97.047598 119.52628 
L 99.375592 115.422513 
L 101.086397 113.018723 
L 102.721408 111.50282 
L 105.677419 109.997744 
L 107.355741 109.001579 
L 108.720054 107.453192 
L 109.629596 105.839838 
L 110.084367 104.670426 
L 111.318746 99.689601 
L 111.773517 98.531017 
L 113.28942 95.986465 
L 115.563275 93.842545 
L 118.107828 92.22919 
L 120.110986 91.384615 
L 122.016693 90.973156 
L 124.323032 91.059779 
L 126.282878 91.568689 
L 129.098128 92.738101 
L 131.566885 94.091586 
L 135.010151 95.325964 
L 136.688473 95.575006 
L 137.87954 95.466727 
L 139.417099 94.806226 
L 140.781412 93.961651 
L 142.199865 92.933002 
L 143.098579 92.055944 
L 147.375592 87.064291 
L 148.577487 86.165576 
L 150.580645 85.42928 
L 152.648771 85.505076 
L 154.457027 86.165576 
L 155.528987 86.880217 
L 156.828333 87.995488 
L 158.192646 89.381457 
L 159.048049 89.868712 
L 160.336567 90.258516 
L 162.426348 90.312655 
L 165.837131 89.912023 
L 168.381683 89.31649 
L 172.193097 88.331153 
L 175.333183 87.389127 
L 177.921047 86.263027 
L 180.249041 85.136928 
L 181.970674 83.978344 
L 184.471915 81.509587 
L 186.767426 78.8351 
L 193.643131 70.324385 
L 203.572299 58.33792 
L 205.001579 56.508008 
L 205.802842 54.981277 
L 206.095195 54.14753 
L 206.181818 53.248816 
L 206.084367 52.729077 
L 205.846154 52.241823 
L 205.478006 51.841191 
L 205.034063 51.53801 
L 203.907963 51.159035 
L 203.117528 51.094067 
L 201.720731 51.191518 
L 200.107376 51.473043 
L 197.573652 52.241823 
L 182.739454 57.536657 
L 176.67584 59.474848 
L 165.035867 62.690729 
L 155.150011 65.159486 
L 143.791563 67.69321 
L 132.498083 69.89127 
L 120.933905 71.851117 
L 113.007895 72.814798 
L 96.484548 74.460636 
L 84.433115 75.662531 
L 83.07963 76.009023 
L 81.520415 76.972705 
L 80.892398 77.784796 
L 80.697496 78.369501 
L 80.67584 79.722987 
L 81.000677 80.751635 
L 81.639522 81.975186 
L 82.31085 82.982179 
L 83.837582 84.682157 
L 89.208211 89.922851 
L 90.9515 92.294157 
L 91.633657 93.799233 
L 91.893526 95.174374 
L 91.850214 96.592827 
L 91.482066 97.69727 
L 90.691631 98.845026 
L 90.226032 99.267313 
L 89.717122 99.570494 
L 89.067449 99.754568 
L 87.432439 99.862847 
L 86.826077 99.852019 
L 85.819084 99.711256 
L 84.606361 99.224002 
L 83.707647 98.704263 
L 82.57072 97.675615 
L 81.282202 96.203023 
L 79.798782 93.56102 
L 78.293706 90.810738 
L 76.89691 89.1649 
L 74.904579 87.399955 
L 74.005865 86.869389 
L 72.825626 86.425446 
L 71.645387 86.284683 
L 70.952402 86.34965 
L 69.674712 86.76111 
L 68.732687 87.464922 
L 68.223776 88.24453 
L 68.093842 88.915858 
L 68.245432 90.020302 
L 69.079179 91.87187 
L 72.360027 96.278818 
L 74.861268 99.418904 
L 75.987367 101.22716 
L 76.517934 102.266637 
L 77.070156 103.836679 
L 77.719829 106.651929 
L 77.838935 108.351906 
L 77.719829 110.766524 
L 77.135123 113.051207 
L 76.095646 115.379201 
L 74.146628 117.858786 
L 72.50079 119.114821 
L 69.263253 120.65238 
L 66.285585 121.51861 
L 63.925107 121.637717 
L 61.521317 121.399504 
L 59.46402 120.998872 
L 56.129032 119.73201 
L 53.573652 118.226934 
L 51.732912 116.678547 
L 49.805549 114.296413 
L 48.690277 112.672231 
L 47.098579 109.759531 
L 44.79224 106.002256 
L 43.15723 103.98827 
L 41.8254 102.623957 
L 40.612678 101.671103 
L 39.215881 100.848184 
L 38.133093 100.404241 
L 35.967516 100.079404 
L 33.942702 100.263478 
L 31.744642 100.902323 
L 21.025039 105.796526 
L 14.355064 108.557636 
L 13.163997 109.142342 
L 11.951275 109.911121 
L 11.269118 110.484999 
L 10.554478 111.286262 
L 9.958944 112.379878 
L 9.818182 113.657568 
L 10.023912 114.523799 
L 10.597789 115.617415 
L 11.864651 117.187458 
L 12.665915 117.934582 
L 15.048049 119.699526 
L 21.53395 123.857433 
L 24.587413 126.228739 
L 24.587413 126.228739 
" clip-path="url(#p93441ab90a)" style="fill: none; stroke: #ffffff; stroke-width: 9; stroke-linecap: square"/>
   </g>
   <g id="line2d_2">
    <path d="M 24.587413 126.228739 
L 51.245658 146.639296 
L 68.830138 160.206632 
L 70.930747 162.014888 
L 73.551094 164.083014 
L 74.623054 164.602752 
L 75.814121 164.873449 
L 76.474622 164.905933 
L 77.579066 164.581096 
L 78.228739 163.985563 
L 78.499436 163.552448 
L 78.748477 162.502143 
L 78.672682 161.246109 
L 78.304534 158.831491 
L 77.849763 157.09903 
L 76.290548 153.677419 
L 75.391834 151.685089 
L 74.460636 149.22716 
L 73.616061 146.032935 
L 73.486127 143.845703 
L 73.962554 140.813896 
L 74.43898 139.135574 
L 75.543424 136.840063 
L 76.972705 134.70697 
L 77.903903 133.68915 
L 79.820438 132.075795 
L 82.711482 130.170088 
L 89.327318 126.640199 
L 91.449583 125.135123 
L 94.06993 123.131965 
L 95.715768 121.583578 
L 97.047598 119.52628 
L 99.375592 115.422513 
L 101.086397 113.018723 
L 102.721408 111.50282 
L 105.677419 109.997744 
L 107.355741 109.001579 
L 108.720054 107.453192 
L 109.629596 105.839838 
L 110.084367 104.670426 
L 111.318746 99.689601 
L 111.773517 98.531017 
L 113.28942 95.986465 
L 115.563275 93.842545 
L 118.107828 92.22919 
L 120.110986 91.384615 
L 122.016693 90.973156 
L 124.323032 91.059779 
L 126.282878 91.568689 
L 129.098128 92.738101 
L 131.566885 94.091586 
L 135.010151 95.325964 
L 136.688473 95.575006 
L 137.87954 95.466727 
L 139.417099 94.806226 
L 140.781412 93.961651 
L 142.199865 92.933002 
L 143.098579 92.055944 
L 147.375592 87.064291 
L 148.577487 86.165576 
L 150.580645 85.42928 
L 152.648771 85.505076 
L 154.457027 86.165576 
L 155.528987 86.880217 
L 156.828333 87.995488 
L 158.192646 89.381457 
L 159.048049 89.868712 
L 160.336567 90.258516 
L 162.426348 90.312655 
L 165.837131 89.912023 
L 168.381683 89.31649 
L 172.193097 88.331153 
L 175.333183 87.389127 
L 177.921047 86.263027 
L 180.249041 85.136928 
L 181.970674 83.978344 
L 184.471915 81.509587 
L 186.767426 78.8351 
L 193.643131 70.324385 
L 203.572299 58.33792 
L 205.001579 56.508008 
L 205.802842 54.981277 
L 206.095195 54.14753 
L 206.181818 53.248816 
L 206.084367 52.729077 
L 205.846154 52.241823 
L 205.478006 51.841191 
L 205.034063 51.53801 
L 203.907963 51.159035 
L 203.117528 51.094067 
L 201.720731 51.191518 
L 200.107376 51.473043 
L 197.573652 52.241823 
L 182.739454 57.536657 
L 176.67584 59.474848 
L 165.035867 62.690729 
L 155.150011 65.159486 
L 143.791563 67.69321 
L 132.498083 69.89127 
L 120.933905 71.851117 
L 113.007895 72.814798 
L 96.484548 74.460636 
L 84.433115 75.662531 
L 83.07963 76.009023 
L 81.520415 76.972705 
L 80.892398 77.784796 
L 80.697496 78.369501 
L 80.67584 79.722987 
L 81.000677 80.751635 
L 81.639522 81.975186 
L 82.31085 82.982179 
L 83.837582 84.682157 
L 89.208211 89.922851 
L 90.9515 92.294157 
L 91.633657 93.799233 
L 91.893526 95.174374 
L 91.850214 96.592827 
L 91.482066 97.69727 
L 90.691631 98.845026 
L 90.226032 99.267313 
L 89.717122 99.570494 
L 89.067449 99.754568 
L 87.432439 99.862847 
L 86.826077 99.852019 
L 85.819084 99.711256 
L 84.606361 99.224002 
L 83.707647 98.704263 
L 82.57072 97.675615 
L 81.282202 96.203023 
L 79.798782 93.56102 
L 78.293706 90.810738 
L 76.89691 89.1649 
L 74.904579 87.399955 
L 74.005865 86.869389 
L 72.825626 86.425446 
L 71.645387 86.284683 
L 70.952402 86.34965 
L 69.674712 86.76111 
L 68.732687 87.464922 
L 68.223776 88.24453 
L 68.093842 88.915858 
L 68.245432 90.020302 
L 69.079179 91.87187 
L 72.360027 96.278818 
L 74.861268 99.418904 
L 75.987367 101.22716 
L 76.517934 102.266637 
L 77.070156 103.836679 
L 77.719829 106.651929 
L 77.838935 108.351906 
L 77.719829 110.766524 
L 77.135123 113.051207 
L 76.095646 115.379201 
L 74.146628 117.858786 
L 72.50079 119.114821 
L 69.263253 120.65238 
L 66.285585 121.51861 
L 63.925107 121.637717 
L 61.521317 121.399504 
L 59.46402 120.998872 
L 56.129032 119.73201 
L 53.573652 118.226934 
L 51.732912 116.678547 
L 49.805549 114.296413 
L 48.690277 112.672231 
L 47.098579 109.759531 
L 44.79224 106.002256 
L 43.15723 103.98827 
L 41.8254 102.623957 
L 40.612678 101.671103 
L 39.215881 100.848184 
L 38.133093 100.404241 
L 35.967516 100.079404 
L 33.942702 100.263478 
L 31.744642 100.902323 
L 21.025039 105.796526 
L 14.355064 108.557636 
L 13.163997 109.142342 
L 11.951275 109.911121 
L 11.269118 110.484999 
L 10.554478 111.286262 
L 9.958944 112.379878 
L 9.818182 113.657568 
L 10.023912 114.523799 
L 10.597789 115.617415 
L 11.864651 117.187458 
L 12.665915 117.934582 
L 15.048049 119.699526 
L 21.53395 123.857433 
L 24.587413 126.228739 
L 24.587413 126.228739 
" clip-path="url(#p93441ab90a)" style="fill: none; stroke: #000000; stroke-width: 3; stroke-linecap: square"/>
   </g>
  </g>
 </g>
 <defs>
  <clipPath id="p93441ab90a">
   <rect x="0" y="0" width="216" height="216"/>
  </clipPath>
 </defs>
</svg>
