<?xml version="1.0" encoding="utf-8" standalone="no"?>
<!DOCTYPE svg PUBLIC "-//W3C//DTD SVG 1.1//EN"
  "http://www.w3.org/Graphics/SVG/1.1/DTD/svg11.dtd">
<svg xmlns:xlink="http://www.w3.org/1999/xlink" width="216pt" height="216pt" viewBox="0 0 216 216" xmlns="http://www.w3.org/2000/svg" version="1.1">
 <metadata>
  <rdf:RDF xmlns:dc="http://purl.org/dc/elements/1.1/" xmlns:cc="http://creativecommons.org/ns#" xmlns:rdf="http://www.w3.org/1999/02/22-rdf-syntax-ns#">
   <cc:Work>
    <dc:type rdf:resource="http://purl.org/dc/dcmitype/StillImage"/>
    <dc:date>2025-06-30T23:40:52.253902</dc:date>
    <dc:format>image/svg+xml</dc:format>
    <dc:creator>
     <cc:Agent>
      <dc:title>Matplotlib v3.10.0, https://matplotlib.org/</dc:title>
     </cc:Agent>
    </dc:creator>
   </cc:Work>
  </rdf:RDF>
 </metadata>
 <defs>
  <style type="text/css">*{stroke-linejoin: round; stroke-linecap: butt}</style>
 </defs>
 <g id="figure_1">
  <g id="patch_1">
   <path d="M 0 216 
L 216 216 
L 216 0 
L 0 0 
L 0 216 
z
" style="fill: none"/>
  </g>
  <g id="axes_1">
   <g id="line2d_1">
    <path d="M 143.627767 155.806959 
L 139.512416 152.911638 
L 128.261989 145.40076 
L 119.437345 139.812294 
L 117.891455 138.732311 
L 113.596976 135.253582 
L 112.302484 133.904007 
L 110.777231 131.791393 
L 110.010309 130.287319 
L 109.02352 127.033274 
L 108.686405 124.198788 
L 108.629559 121.921499 
L 108.769712 119.115706 
L 109.210305 113.872732 
L 109.140408 111.221689 
L 108.811994 108.636373 
L 108.263534 106.569026 
L 107.800181 105.315163 
L 106.425041 102.630323 
L 105.457417 101.223975 
L 103.494267 98.911199 
L 101.019081 96.548265 
L 97.746842 93.442068 
L 94.474063 89.995699 
L 92.805926 88.01281 
L 91.847506 86.220592 
L 91.669025 85.330991 
L 91.754166 83.547689 
L 91.874256 83.089908 
L 92.252719 82.237556 
L 92.716001 81.540998 
L 93.659175 80.623567 
L 95.029317 79.91802 
L 96.60149 79.477569 
L 100.57079 78.840013 
L 101.655952 78.416569 
L 103.182534 77.32001 
L 104.074076 76.222948 
L 104.515749 75.232312 
L 104.501223 74.16689 
L 103.91066 73.166943 
L 102.913157 72.203885 
L 101.554413 71.287462 
L 100.537962 70.755973 
L 99.341484 70.264791 
L 96.249883 69.40888 
L 93.591578 68.946066 
L 90.956464 68.822632 
L 88.425404 69.081114 
L 86.243612 69.599551 
L 84.765605 70.13877 
L 82.004648 71.607285 
L 79.816708 73.248564 
L 78.247735 74.754832 
L 77.299167 75.842546 
L 74.353401 79.812243 
L 72.156293 82.814603 
L 65.380049 91.397233 
L 53.780249 105.704744 
L 38.885163 124.039517 
L 37.352972 126.599089 
L 36.754068 127.958085 
L 36.104108 130.45283 
L 36.040539 131.554998 
L 36.198275 134.123596 
L 37.061629 136.440759 
L 38.621902 138.257319 
L 39.873176 139.01874 
L 40.772017 139.429599 
L 42.525045 139.946705 
L 45.365211 140.096997 
L 48.056164 140.195801 
L 49.025981 140.366049 
L 50.082198 140.737393 
L 51.030694 141.271254 
L 52.188737 142.285404 
L 53.085242 143.603518 
L 53.592065 145.128015 
L 53.619104 146.227019 
L 53.294645 147.326958 
L 52.34543 148.720866 
L 51.420952 149.524247 
L 50.097301 150.26219 
L 48.426359 150.796806 
L 46.731831 150.980717 
L 44.778245 150.890182 
L 41.957819 150.330973 
L 39.593842 149.52903 
L 35.884424 147.866898 
L 33.240573 146.519085 
L 30.749351 144.995847 
L 27.548123 142.624248 
L 25.006168 140.297665 
L 23.48897 138.740413 
L 21.417955 136.261309 
L 19.695669 133.701988 
L 18.785321 131.987469 
L 17.827944 129.900382 
L 16.382692 125.85723 
L 15.547095 122.711302 
L 14.580908 117.449415 
L 11.154886 94.027896 
L 10.245976 88.457838 
L 9.870389 85.171109 
L 9.818182 83.676096 
L 10.093454 80.842905 
L 10.499279 79.150461 
L 12.107551 75.522303 
L 13.414303 73.650983 
L 14.78955 72.117461 
L 17.820458 69.93646 
L 19.335462 69.157815 
L 21.223429 68.343468 
L 25.627822 66.851582 
L 31.954448 65.201852 
L 36.583668 64.303118 
L 44.111914 63.291807 
L 47.911866 63.000355 
L 54.428837 62.580003 
L 56.090179 62.41993 
L 60.835032 61.585196 
L 61.77968 61.359433 
L 64.384736 60.622102 
L 67.142025 59.698019 
L 71.969934 57.669718 
L 74.473308 56.618427 
L 76.581213 55.932475 
L 78.20304 55.615027 
L 81.378631 55.628869 
L 85.108291 56.247045 
L 89.791049 57.206147 
L 92.296581 57.51554 
L 94.903902 57.492529 
L 97.826873 56.766774 
L 99.666768 55.874728 
L 104.583665 52.822749 
L 106.506796 52.041193 
L 108.761289 51.656293 
L 109.89704 51.707349 
L 112.951103 52.462514 
L 115.596932 53.866956 
L 117.444953 55.480693 
L 118.946762 57.571447 
L 120.492581 60.273006 
L 121.459414 61.656702 
L 122.179955 62.482016 
L 124.932894 65.005345 
L 126.215916 66.02647 
L 128.457574 67.547084 
L 130.54013 68.733063 
L 134.634771 70.710593 
L 160.558408 82.108864 
L 180.589865 91.036731 
L 190.322519 95.674975 
L 195.935652 98.59737 
L 197.347466 99.409884 
L 200.343498 101.425779 
L 201.405396 102.28453 
L 203.225372 104.069342 
L 204.706112 106.20619 
L 205.292072 107.399073 
L 205.936532 109.292972 
L 206.181818 111.121433 
L 206.040587 113.246884 
L 205.539948 115.146752 
L 204.71823 116.944436 
L 203.867389 118.232852 
L 202.768169 119.55262 
L 201.384221 120.836973 
L 199.605054 122.169146 
L 196.27216 124.145239 
L 194.172309 125.386554 
L 192.388396 126.582817 
L 186.316981 131.319364 
L 182.523717 134.400143 
L 177.676537 138.799107 
L 173.671929 142.647024 
L 172.104682 144.527441 
L 171.635216 145.371631 
L 171.272825 146.359498 
L 171.108905 147.510529 
L 171.292025 149.182405 
L 171.817797 150.275333 
L 173.985099 153.238681 
L 174.210322 153.843158 
L 174.311752 154.474638 
L 174.176812 155.806092 
L 173.790331 157.078292 
L 173.464542 157.815407 
L 172.723795 159.009261 
L 170.286578 161.305607 
L 168.237568 162.703901 
L 166.696748 163.392729 
L 163.911269 164.159041 
L 162.681101 164.326736 
L 159.597303 164.343707 
L 157.145236 163.941729 
L 152.910479 162.173206 
L 147.688466 158.760886 
L 143.627767 155.806959 
L 143.627767 155.806959 
" clip-path="url(#p6f6224cc2d)" style="fill: none; stroke: #ffffff; stroke-width: 9; stroke-linecap: square"/>
   </g>
   <g id="line2d_2">
    <path d="M 143.627767 155.806959 
L 139.512416 152.911638 
L 128.261989 145.40076 
L 119.437345 139.812294 
L 117.891455 138.732311 
L 113.596976 135.253582 
L 112.302484 133.904007 
L 110.777231 131.791393 
L 110.010309 130.287319 
L 109.02352 127.033274 
L 108.686405 124.198788 
L 108.629559 121.921499 
L 108.769712 119.115706 
L 109.210305 113.872732 
L 109.140408 111.221689 
L 108.811994 108.636373 
L 108.263534 106.569026 
L 107.800181 105.315163 
L 106.425041 102.630323 
L 105.457417 101.223975 
L 103.494267 98.911199 
L 101.019081 96.548265 
L 97.746842 93.442068 
L 94.474063 89.995699 
L 92.805926 88.01281 
L 91.847506 86.220592 
L 91.669025 85.330991 
L 91.754166 83.547689 
L 91.874256 83.089908 
L 92.252719 82.237556 
L 92.716001 81.540998 
L 93.659175 80.623567 
L 95.029317 79.91802 
L 96.60149 79.477569 
L 100.57079 78.840013 
L 101.655952 78.416569 
L 103.182534 77.32001 
L 104.074076 76.222948 
L 104.515749 75.232312 
L 104.501223 74.16689 
L 103.91066 73.166943 
L 102.913157 72.203885 
L 101.554413 71.287462 
L 100.537962 70.755973 
L 99.341484 70.264791 
L 96.249883 69.40888 
L 93.591578 68.946066 
L 90.956464 68.822632 
L 88.425404 69.081114 
L 86.243612 69.599551 
L 84.765605 70.13877 
L 82.004648 71.607285 
L 79.816708 73.248564 
L 78.247735 74.754832 
L 77.299167 75.842546 
L 74.353401 79.812243 
L 72.156293 82.814603 
L 65.380049 91.397233 
L 53.780249 105.704744 
L 38.885163 124.039517 
L 37.352972 126.599089 
L 36.754068 127.958085 
L 36.104108 130.45283 
L 36.040539 131.554998 
L 36.198275 134.123596 
L 37.061629 136.440759 
L 38.621902 138.257319 
L 39.873176 139.01874 
L 40.772017 139.429599 
L 42.525045 139.946705 
L 45.365211 140.096997 
L 48.056164 140.195801 
L 49.025981 140.366049 
L 50.082198 140.737393 
L 51.030694 141.271254 
L 52.188737 142.285404 
L 53.085242 143.603518 
L 53.592065 145.128015 
L 53.619104 146.227019 
L 53.294645 147.326958 
L 52.34543 148.720866 
L 51.420952 149.524247 
L 50.097301 150.26219 
L 48.426359 150.796806 
L 46.731831 150.980717 
L 44.778245 150.890182 
L 41.957819 150.330973 
L 39.593842 149.52903 
L 35.884424 147.866898 
L 33.240573 146.519085 
L 30.749351 144.995847 
L 27.548123 142.624248 
L 25.006168 140.297665 
L 23.48897 138.740413 
L 21.417955 136.261309 
L 19.695669 133.701988 
L 18.785321 131.987469 
L 17.827944 129.900382 
L 16.382692 125.85723 
L 15.547095 122.711302 
L 14.580908 117.449415 
L 11.154886 94.027896 
L 10.245976 88.457838 
L 9.870389 85.171109 
L 9.818182 83.676096 
L 10.093454 80.842905 
L 10.499279 79.150461 
L 12.107551 75.522303 
L 13.414303 73.650983 
L 14.78955 72.117461 
L 17.820458 69.93646 
L 19.335462 69.157815 
L 21.223429 68.343468 
L 25.627822 66.851582 
L 31.954448 65.201852 
L 36.583668 64.303118 
L 44.111914 63.291807 
L 47.911866 63.000355 
L 54.428837 62.580003 
L 56.090179 62.41993 
L 60.835032 61.585196 
L 61.77968 61.359433 
L 64.384736 60.622102 
L 67.142025 59.698019 
L 71.969934 57.669718 
L 74.473308 56.618427 
L 76.581213 55.932475 
L 78.20304 55.615027 
L 81.378631 55.628869 
L 85.108291 56.247045 
L 89.791049 57.206147 
L 92.296581 57.51554 
L 94.903902 57.492529 
L 97.826873 56.766774 
L 99.666768 55.874728 
L 104.583665 52.822749 
L 106.506796 52.041193 
L 108.761289 51.656293 
L 109.89704 51.707349 
L 112.951103 52.462514 
L 115.596932 53.866956 
L 117.444953 55.480693 
L 118.946762 57.571447 
L 120.492581 60.273006 
L 121.459414 61.656702 
L 122.179955 62.482016 
L 124.932894 65.005345 
L 126.215916 66.02647 
L 128.457574 67.547084 
L 130.54013 68.733063 
L 134.634771 70.710593 
L 160.558408 82.108864 
L 180.589865 91.036731 
L 190.322519 95.674975 
L 195.935652 98.59737 
L 197.347466 99.409884 
L 200.343498 101.425779 
L 201.405396 102.28453 
L 203.225372 104.069342 
L 204.706112 106.20619 
L 205.292072 107.399073 
L 205.936532 109.292972 
L 206.181818 111.121433 
L 206.040587 113.246884 
L 205.539948 115.146752 
L 204.71823 116.944436 
L 203.867389 118.232852 
L 202.768169 119.55262 
L 201.384221 120.836973 
L 199.605054 122.169146 
L 196.27216 124.145239 
L 194.172309 125.386554 
L 192.388396 126.582817 
L 186.316981 131.319364 
L 182.523717 134.400143 
L 177.676537 138.799107 
L 173.671929 142.647024 
L 172.104682 144.527441 
L 171.635216 145.371631 
L 171.272825 146.359498 
L 171.108905 147.510529 
L 171.292025 149.182405 
L 171.817797 150.275333 
L 173.985099 153.238681 
L 174.210322 153.843158 
L 174.311752 154.474638 
L 174.176812 155.806092 
L 173.790331 157.078292 
L 173.464542 157.815407 
L 172.723795 159.009261 
L 170.286578 161.305607 
L 168.237568 162.703901 
L 166.696748 163.392729 
L 163.911269 164.159041 
L 162.681101 164.326736 
L 159.597303 164.343707 
L 157.145236 163.941729 
L 152.910479 162.173206 
L 147.688466 158.760886 
L 143.627767 155.806959 
L 143.627767 155.806959 
" clip-path="url(#p6f6224cc2d)" style="fill: none; stroke: #000000; stroke-width: 3; stroke-linecap: square"/>
   </g>
  </g>
 </g>
 <defs>
  <clipPath id="p6f6224cc2d">
   <rect x="0" y="0" width="216" height="216"/>
  </clipPath>
 </defs>
</svg>
